# This file uses centimeters as units for non-parametric coordinates.

mtllib giant_propeller_geo.mtl
v 0.488064 0.495277 0.333324
v 0.495519 0.487823 0.333324
v 0.495519 0.495277 0.333338
v 0.491791 0.495277 0.333342
v 0.495518 0.491550 0.333342
v 0.491791 0.491550 0.333324
v 0.512201 0.495277 0.333324
v 0.508474 0.495277 0.333342
v 0.504746 0.487823 0.333324
v 0.504746 0.495277 0.333338
v 0.504746 0.491550 0.333342
v 0.508474 0.491550 0.333324
v 0.488064 0.504505 0.333324
v 0.495519 0.511959 0.333324
v 0.495519 0.504505 0.333338
v 0.491791 0.504505 0.333342
v 0.495518 0.508232 0.333342
v 0.491791 0.508232 0.333324
v 0.512201 0.504505 0.333324
v 0.504746 0.511959 0.333324
v 0.504746 0.504505 0.333338
v 0.508474 0.504505 0.333342
v 0.504746 0.508232 0.333342
v 0.508474 0.508232 0.333324
v 0.495518 0.487823 0.556628
v 0.495519 0.491550 0.556646
v 0.504745 0.487823 0.556628
v 0.504746 0.491550 0.556646
v 0.491791 0.495277 0.556646
v 0.491791 0.504505 0.556646
v 0.495519 0.495277 0.556641
v 0.495519 0.504505 0.556641
v 0.504745 0.495277 0.556641
v 0.491790 0.491550 0.556628
v 0.488063 0.504505 0.556628
v 0.488063 0.495277 0.556628
v 0.508473 0.491550 0.556628
v 0.508474 0.495277 0.556646
v 0.495519 0.508232 0.556646
v 0.491790 0.508232 0.556628
v 0.504745 0.504505 0.556641
v 0.504746 0.508232 0.556646
v 0.512200 0.504505 0.556628
v 0.512200 0.495277 0.556628
v 0.508474 0.504505 0.556646
v 0.504745 0.511959 0.556628
v 0.495518 0.511959 0.556628
v 0.508473 0.508232 0.556628
vt 0.376612 0.720851
vt 0.489231 0.720919
vt 0.324598 0.774526
vt 0.324133 0.884003
vt 0.374716 0.771154
vt 0.374716 0.887232
vt 0.490963 0.771154
vt 0.327760 0.724268
vt 0.541491 0.773187
vt 0.376591 0.937541
vt 0.490963 0.887232
vt 0.489223 0.937476
vt 0.541373 0.885394
vt 0.537918 0.934119
vt 0.376600 0.720784
vt 0.374716 0.677381
vt 0.490963 0.677381
vt 0.489096 0.720832
vt 0.324320 0.773018
vt 0.324278 0.885358
vt 0.374716 0.771154
vt 0.374716 0.887232
vt 0.490963 0.771154
vt 0.327760 0.724268
vt 0.280807 0.887232
vt 0.280807 0.771154
vt 0.537918 0.724268
vt 0.541408 0.773033
vt 0.376753 0.937685
vt 0.327760 0.934119
vt 0.490963 0.887232
vt 0.489121 0.937567
vt 0.584873 0.771154
vt 0.584873 0.887233
vt 0.541291 0.885497
vt 0.490963 0.981005
vt 0.374716 0.981005
vt 0.537918 0.934119
vt 0.374716 0.677381
vt 0.490963 0.677381
vt 0.302218 0.776797
vt 0.301952 0.881766
vt 0.280807 0.887232
vt 0.280807 0.771154
vt 0.537918 0.724268
vt 0.327760 0.934119
vt 0.584873 0.771154
vt 0.584873 0.887233
vt 0.490963 0.981005
vt 0.374716 0.981005
vt 0.199127 0.640559
vt 0.187424 0.641150
vt 0.187424 0.036051
vt 0.199130 0.036495
vt 0.279802 0.036051
vt 0.291505 0.036643
vt 0.291508 0.640706
vt 0.279802 0.641150
vt 0.491159 0.641150
vt 0.427606 0.641150
vt 0.427606 0.036051
vt 0.491159 0.036051
vt 0.626732 0.036051
vt 0.690285 0.036051
vt 0.690285 0.641150
vt 0.626732 0.641150
vt 0.740770 0.036643
vt 0.752474 0.036051
vt 0.752474 0.641150
vt 0.740767 0.640706
vt 0.844851 0.641150
vt 0.833148 0.640559
vt 0.833145 0.036495
vt 0.844851 0.036051
vt 0.271505 0.641150
vt 0.207952 0.641150
vt 0.207952 0.036051
vt 0.271505 0.036051
vt 0.408211 0.036643
vt 0.419913 0.036051
vt 0.419913 0.641150
vt 0.408207 0.640706
vt 0.512291 0.641150
vt 0.500588 0.640559
vt 0.500585 0.036495
vt 0.512291 0.036051
vt 0.698581 0.036051
vt 0.710284 0.036643
vt 0.710287 0.640706
vt 0.698581 0.641150
vt 0.730813 0.640559
vt 0.719110 0.641150
vt 0.719110 0.036051
vt 0.730816 0.036495
vt 0.760167 0.036051
vt 0.823719 0.036051
vt 0.823719 0.641150
vt 0.760167 0.641150
vt 0.006116 0.006116
vt 0.056469 0.006116
vt 0.058841 0.993884
vt 0.008489 0.993884
vt 0.008489 0.006116
vt 0.058835 0.006116
vt 0.056462 0.993884
vt 0.006116 0.993884
vt 0.008489 0.006116
vt 0.058841 0.006116
vt 0.056469 0.993884
vt 0.006116 0.993884
vt 0.006237 0.006116
vt 0.993884 0.006116
vt 0.993763 0.056455
vt 0.006116 0.056455
vt 0.008489 0.006116
vt 0.058835 0.006116
vt 0.056462 0.993884
vt 0.006116 0.993884
vt 0.006116 0.006116
vt 0.056469 0.006116
vt 0.058841 0.993884
vt 0.008489 0.993884
vt 0.008489 0.006116
vt 0.058841 0.006116
vt 0.056469 0.993884
vt 0.006116 0.993884
vt 0.006237 0.006116
vt 0.993884 0.006116
vt 0.993763 0.056455
vt 0.006116 0.056455
vn 0.000000 -0.001791 0.999998
vn 0.000000 -0.004829 0.999988
vn 0.000000 -0.004829 0.999988
vn 0.000000 -0.001791 0.999998
vn -0.001794 0.000000 0.999998
vn 0.001259 0.000000 0.999999
vn 0.001259 0.000000 0.999999
vn -0.001794 0.000000 0.999998
vn 0.000000 0.000359 1.000000
vn 0.000000 0.000359 1.000000
vn -0.001793 -0.001791 0.999997
vn -0.001793 -0.001791 0.999997
vn -0.001793 -0.001791 0.999997
vn -0.001793 -0.001791 0.999997
vn -0.004846 0.000000 0.999988
vn -0.004846 0.000000 0.999988
vn 0.001801 -0.001791 0.999997
vn 0.001801 -0.001791 0.999997
vn 0.001801 -0.001791 0.999997
vn 0.001801 -0.001791 0.999997
vn -0.001793 0.001791 0.999997
vn -0.001793 0.001791 0.999997
vn -0.001793 0.001791 0.999997
vn -0.001793 0.001791 0.999997
vn 0.000000 -0.000359 1.000000
vn 0.000000 -0.000359 1.000000
vn 0.000000 0.001791 0.999998
vn 0.000000 0.001791 0.999998
vn 0.004835 0.000000 0.999988
vn 0.004835 0.000000 0.999988
vn 0.001790 0.000301 0.999998
vn 0.001789 0.000000 0.999998
vn 0.000000 0.004829 0.999988
vn 0.000000 0.004829 0.999988
vn -0.000378 0.000515 1.000000
vn -0.001255 0.000000 0.999999
vn 0.001793 0.001791 0.999997
vn 0.001793 0.001791 0.999997
vn -0.000002 0.001785 -0.999998
vn -0.000002 0.001785 -0.999999
vn 0.000000 0.004817 -0.999988
vn 0.000000 0.004817 -0.999988
vn 0.001786 0.000000 -0.999998
vn 0.001786 0.000000 -0.999998
vn -0.001250 0.000000 -0.999999
vn -0.001250 0.000000 -0.999999
vn -0.000003 -0.000359 -1.000000
vn -0.000003 -0.000359 -1.000000
vn 0.001788 0.001787 -0.999997
vn 0.001788 0.001787 -0.999997
vn 0.001788 0.001787 -0.999997
vn 0.001788 0.001787 -0.999997
vn 0.004823 0.000000 -0.999988
vn 0.004823 0.000000 -0.999988
vn -0.001776 0.001783 -0.999997
vn -0.001776 0.001783 -0.999997
vn -0.001776 0.001783 -0.999997
vn -0.001776 0.001783 -0.999997
vn 0.001793 -0.001787 -0.999997
vn 0.001793 -0.001787 -0.999997
vn 0.001793 -0.001787 -0.999997
vn 0.001793 -0.001787 -0.999997
vn -0.000003 0.000359 -1.000000
vn -0.000003 0.000359 -1.000000
vn -0.000002 -0.001785 -0.999998
vn -0.000002 -0.001785 -0.999998
vn -0.004813 0.000000 -0.999988
vn -0.001780 0.000000 -0.999998
vn -0.001781 -0.000300 -0.999998
vn -0.004813 0.000000 -0.999988
vn 0.000000 -0.004817 -0.999988
vn 0.000000 -0.004817 -0.999988
vn 0.001252 0.000000 -0.999999
vn 0.000378 -0.000513 -1.000000
vn -0.001785 -0.001783 -0.999997
vn -0.001785 -0.001783 -0.999997
vn -1.000000 0.000000 -0.000001
vn -1.000000 0.000000 -0.000001
vn -1.000000 0.000000 -0.000001
vn -1.000000 0.000000 -0.000001
vn 0.000000 -1.000000 0.000000
vn 0.000000 -1.000000 0.000000
vn 0.000000 -1.000000 0.000000
vn 0.000000 -1.000000 0.000000
vn 1.000000 -0.000125 0.000003
vn 1.000000 -0.000125 0.000003
vn 1.000000 -0.000125 0.000003
vn 1.000000 -0.000125 0.000003
vn -0.000032 1.000000 0.000000
vn -0.000032 1.000000 0.000000
vn -0.000032 1.000000 0.000000
vn -0.000032 1.000000 0.000000
vn -1.000000 0.000000 -0.000005
vn -1.000000 0.000000 -0.000005
vn -1.000000 0.000000 -0.000005
vn -1.000000 0.000000 -0.000005
vn 0.000000 -1.000000 0.000000
vn 0.000000 -1.000000 0.000000
vn 0.000000 -1.000000 0.000000
vn 0.000000 -1.000000 0.000000
vn 1.000000 0.000000 0.000005
vn 1.000000 0.000000 0.000005
vn 1.000000 0.000000 0.000005
vn 1.000000 0.000000 0.000005
vn 0.000000 1.000000 0.000000
vn 0.000000 1.000000 0.000000
vn 0.000000 1.000000 0.000000
vn 0.000000 1.000000 0.000000
vn 0.000000 -1.000000 -0.000000
vn 0.000000 -1.000000 -0.000000
vn 0.000000 -1.000000 -0.000000
vn 0.000000 -1.000000 -0.000000
vn 1.000000 0.000125 0.000003
vn 1.000000 0.000125 0.000003
vn 1.000000 0.000125 0.000003
vn 1.000000 0.000125 0.000003
vn 0.000000 1.000000 0.000000
vn 0.000000 1.000000 0.000000
vn 0.000000 1.000000 0.000000
vn 0.000000 1.000000 0.000000
vn -1.000000 0.000000 -0.000001
vn -1.000000 0.000000 -0.000001
vn -1.000000 0.000000 -0.000001
vn -1.000000 0.000000 -0.000001
vn 0.000000 1.000000 -0.000000
vn 0.000000 1.000000 -0.000000
vn 0.000000 1.000000 -0.000000
vn 0.000000 1.000000 -0.000000
vn 1.000000 0.000134 0.000003
vn 1.000000 0.000134 0.000003
vn 1.000000 0.000134 0.000003
vn 1.000000 0.000134 0.000003
vn 0.000000 1.000000 0.000000
vn 0.000000 1.000000 0.000000
vn 0.000000 1.000000 0.000000
vn 0.000000 1.000000 0.000000
vn -1.000000 -0.000124 -0.000003
vn -1.000000 -0.000124 -0.000003
vn -1.000000 -0.000124 -0.000003
vn -1.000000 -0.000124 -0.000003
vn -1.000000 0.000125 -0.000003
vn -1.000000 0.000125 -0.000003
vn -1.000000 0.000125 -0.000003
vn -1.000000 0.000125 -0.000003
vn 0.000000 -1.000000 0.000000
vn 0.000000 -1.000000 0.000000
vn 0.000000 -1.000000 0.000000
vn 0.000000 -1.000000 0.000000
vn 0.000000 -1.000000 -0.000000
vn 0.000000 -1.000000 -0.000000
vn 0.000000 -1.000000 -0.000000
vn 0.000000 -1.000000 -0.000000
vn 1.000000 -0.000130 0.000003
vn 1.000000 -0.000130 0.000003
vn 1.000000 -0.000130 0.000003
vn 1.000000 -0.000130 0.000003
s 1
usemtl propelleraxle_mtlSG
f 26/1/1 25/39/2 27/40/3 28/2/4
s 2
f 29/3/5 31/5/6 32/6/7 30/4/8
s 1
f 31/5/9 26/1/1 28/2/4 33/7/10
s off
f 31/5/11 29/3/12 34/8/13 26/1/14
s 2
f 30/42/8 35/43/15 36/44/16 29/41/5
s off
f 33/7/17 28/2/18 37/45/19 38/9/20
f 30/4/21 32/6/22 39/10/23 40/46/24
s 1
f 33/7/10 41/11/25 32/6/26 31/5/9
f 32/6/26 41/11/25 42/12/27 39/10/28
s 3
f 44/47/29 43/48/30 45/13/31 38/9/32
s 1
f 39/10/28 42/12/27 46/49/33 47/50/34
s 3
f 38/9/32 45/13/31 41/11/35 33/7/36
f 42/12/37 41/11/35 45/13/31 48/14/38
s 4
f 5/15/39 11/18/40 9/17/41 2/16/42
s 5
f 4/19/43 16/20/44 15/22/45 3/21/46
s 4
f 3/21/47 10/23/48 11/18/40 5/15/39
s off
f 3/21/49 5/15/50 6/24/51 4/19/52
s 5
f 16/20/44 4/19/43 1/26/53 13/25/54
s off
f 10/23/55 8/28/56 12/27/57 11/18/58
f 16/20/59 18/30/60 17/29/61 15/22/62
s 4
f 10/23/48 3/21/47 15/22/63 21/31/64
f 15/22/63 17/29/65 23/32/66 21/31/64
s 6
f 7/33/67 8/28/68 22/35/69 19/34/70
s 4
f 17/29/65 14/37/71 20/36/72 23/32/66
s 6
f 8/28/68 10/23/73 21/31/74 22/35/69
f 23/32/75 24/38/76 22/35/69 21/31/74
s off
f 5/51/77 2/52/78 25/53/79 26/54/80
f 2/75/81 9/76/82 27/77/83 25/78/84
f 9/55/85 11/56/86 28/57/87 27/58/88
f 16/79/89 13/80/90 35/81/91 30/82/92
f 13/59/93 1/60/94 36/61/95 35/62/96
f 1/83/97 4/84/98 29/85/99 36/86/100
f 7/63/101 19/64/102 43/65/103 44/66/104
f 19/87/105 22/88/106 45/89/107 43/90/108
f 8/91/109 7/92/110 44/93/111 38/94/112
f 23/67/113 20/68/114 46/69/115 42/70/116
f 20/95/117 14/96/118 47/97/119 46/98/120
f 14/71/121 17/72/122 39/73/123 47/74/124
f 42/99/125 48/100/126 24/101/127 23/102/128
f 48/103/129 45/104/130 22/105/131 24/106/132
f 17/107/133 18/108/134 40/109/135 39/110/136
f 40/111/137 18/112/138 16/113/139 30/114/140
f 34/115/141 29/116/142 4/117/143 6/118/144
f 6/119/145 5/120/146 26/121/147 34/122/148
f 11/123/149 12/124/150 37/125/151 28/126/152
f 37/127/153 12/128/154 8/129/155 38/130/156
