# This file uses centimeters as units for non-parametric coordinates.

mtllib rudder_axel_geo.mtl
v 0.479070 0.999422 0.487094
v 0.492000 0.999422 0.474165
v 0.492000 0.999173 0.487094
v 0.485534 0.999087 0.487094
v 0.491998 0.999087 0.480630
v 0.485534 0.999422 0.480630
v 0.520931 0.999422 0.487094
v 0.514467 0.999087 0.487094
v 0.508002 0.999422 0.474165
v 0.508002 0.999173 0.487094
v 0.508002 0.999087 0.480630
v 0.514467 0.999422 0.480630
v 0.479070 0.999422 0.503097
v 0.492000 0.999422 0.516026
v 0.492000 0.999173 0.503098
v 0.485534 0.999087 0.503098
v 0.491998 0.999087 0.509562
v 0.485534 0.999422 0.509562
v 0.520931 0.999422 0.503098
v 0.508002 0.999422 0.516026
v 0.508002 0.999173 0.503098
v 0.514467 0.999087 0.503098
v 0.508002 0.999087 0.509562
v 0.514467 0.999422 0.509562
v 0.491998 0.000168 0.474165
v 0.492000 -0.000168 0.480630
v 0.508000 0.000168 0.474165
v 0.508002 -0.000168 0.480630
v 0.485534 -0.000168 0.487094
v 0.485534 -0.000168 0.503098
v 0.491999 -0.000081 0.487094
v 0.491999 -0.000081 0.503098
v 0.508001 -0.000081 0.487094
v 0.485532 0.000168 0.480630
v 0.479068 0.000168 0.503097
v 0.479068 0.000168 0.487094
v 0.514466 0.000168 0.480630
v 0.514467 -0.000168 0.487094
v 0.492000 -0.000168 0.509562
v 0.485532 0.000168 0.509562
v 0.508001 -0.000081 0.503098
v 0.508002 -0.000168 0.509562
v 0.520929 0.000168 0.503098
v 0.520929 0.000168 0.487094
v 0.514467 -0.000168 0.503098
v 0.508000 0.000168 0.516026
v 0.491998 0.000168 0.516026
v 0.514466 0.000168 0.509562
v 0.514467 0.499459 0.487094
v 0.514466 0.499795 0.480630
v 0.508002 0.499459 0.480630
v 0.508001 0.499795 0.474165
v 0.491999 0.499795 0.474165
v 0.491999 0.499459 0.480630
v 0.485533 0.499795 0.480630
v 0.485534 0.499459 0.487094
v 0.479069 0.499795 0.487094
v 0.479069 0.499795 0.503097
v 0.485534 0.499459 0.503098
v 0.485533 0.499795 0.509562
v 0.491999 0.499459 0.509562
v 0.491999 0.499795 0.516026
v 0.508001 0.499795 0.516026
v 0.508002 0.499459 0.509562
v 0.514466 0.499795 0.509562
v 0.514467 0.499459 0.503098
v 0.520930 0.499795 0.503098
v 0.520930 0.499795 0.487094
vt 0.434779 0.723791
vt 0.548793 0.723859
vt 0.382121 0.778130
vt 0.381651 0.888963
vt 0.432860 0.774717
vt 0.432860 0.892232
vt 0.550546 0.774717
vt 0.385323 0.727249
vt 0.601700 0.776774
vt 0.434758 0.943164
vt 0.550546 0.892232
vt 0.548785 0.943098
vt 0.601581 0.890371
vt 0.598083 0.939699
vt 0.434767 0.723723
vt 0.432860 0.679782
vt 0.550546 0.679782
vt 0.548656 0.723772
vt 0.381840 0.776603
vt 0.381797 0.890335
vt 0.432860 0.774717
vt 0.432860 0.892232
vt 0.550546 0.774717
vt 0.385323 0.727249
vt 0.337787 0.892232
vt 0.337787 0.774716
vt 0.598083 0.727249
vt 0.601616 0.776619
vt 0.434922 0.943310
vt 0.385323 0.939699
vt 0.550546 0.892232
vt 0.548682 0.943191
vt 0.645619 0.774716
vt 0.645619 0.892233
vt 0.601498 0.890475
vt 0.550546 0.987166
vt 0.432860 0.987166
vt 0.598083 0.939699
vt 0.432860 0.679782
vt 0.550546 0.679782
vt 0.381840 0.776603
vt 0.381651 0.888963
vt 0.337787 0.892232
vt 0.337787 0.774716
vt 0.598083 0.727249
vt 0.385323 0.939699
vt 0.645619 0.774716
vt 0.645619 0.892233
vt 0.550546 0.987166
vt 0.432860 0.987166
vt 0.838282 0.970792
vt 0.826579 0.972635
vt 0.672976 0.034343
vt 0.684682 0.035727
vt 0.838306 0.973550
vt 0.826603 0.971712
vt 0.672903 0.036647
vt 0.684609 0.035258
vt 0.231111 0.972635
vt 0.167558 0.972635
vt 0.093544 0.034343
vt 0.157097 0.034343
vt 0.307669 0.972635
vt 0.244116 0.972635
vt 0.699487 0.034344
vt 0.763040 0.034344
vt 0.671615 0.036965
vt 0.683316 0.034960
vt 0.839602 0.973233
vt 0.827894 0.972011
vt 0.838305 0.973549
vt 0.826602 0.971712
vt 0.672903 0.036647
vt 0.684609 0.035258
vt 0.916643 0.972636
vt 0.853091 0.972636
vt 0.016986 0.034343
vt 0.080538 0.034343
vt 0.838282 0.970792
vt 0.826579 0.972636
vt 0.672976 0.034343
vt 0.684682 0.035726
vt 0.838306 0.973550
vt 0.826603 0.971713
vt 0.672903 0.036647
vt 0.684609 0.035258
vt 0.838306 0.973550
vt 0.826603 0.971713
vt 0.672903 0.036647
vt 0.684609 0.035258
vt 0.838282 0.970792
vt 0.826579 0.972636
vt 0.672976 0.034343
vt 0.684682 0.035726
vt 0.916643 0.972636
vt 0.853091 0.972636
vt 0.699487 0.034343
vt 0.763039 0.034343
vt 0.800012 0.030070
vt 0.815476 0.030125
vt 0.969111 0.972143
vt 0.953646 0.972087
vt 0.946280 0.972102
vt 0.935464 0.972128
vt 0.781906 0.030111
vt 0.792721 0.030085
vt 0.800043 0.030125
vt 0.815507 0.030069
vt 0.969080 0.972087
vt 0.953615 0.972143
vt 0.789077 0.030154
vt 0.949926 0.972032
vt 0.939109 0.972058
vt 0.778260 0.030180
vt 0.969079 0.972091
vt 0.953616 0.972146
vt 0.800044 0.030122
vt 0.815506 0.030066
vt 0.969111 0.972143
vt 0.953646 0.972088
vt 0.800012 0.030070
vt 0.815476 0.030125
vt 0.781905 0.030113
vt 0.792722 0.030087
vt 0.946280 0.972100
vt 0.935464 0.972126
vt 0.789078 0.030154
vt 0.949924 0.972032
vt 0.939107 0.972058
vt 0.778261 0.030180
vt 0.935486 0.027749
vt 0.838284 0.029889
vt 0.946303 0.027723
vt 0.792699 0.974464
vt 0.672951 0.977550
vt 0.935486 0.027749
vt 0.016986 0.976859
vt 0.684656 0.977775
vt 0.672976 0.976859
vt 0.080538 0.976859
vt 0.800027 0.974449
vt 0.684680 0.976630
vt 0.969094 0.027708
vt 0.815492 0.974504
vt 0.672951 0.977550
vt 0.953632 0.027764
vt 0.093544 0.976859
vt 0.684655 0.977774
vt 0.672976 0.976860
vt 0.157097 0.976859
vt 0.781883 0.974490
vt 0.684680 0.976629
vt 0.969095 0.027708
vt 0.792699 0.974463
vt 0.672951 0.977550
vt 0.953631 0.027764
vt 0.699487 0.976860
vt 0.684656 0.977774
vt 0.838261 0.030726
vt 0.763039 0.976860
vt 0.800027 0.974449
vt 0.826556 0.031118
vt 0.815492 0.974504
vt 0.946302 0.027723
vt 0.672951 0.977550
vt 0.935487 0.027749
vt 0.699487 0.976860
vt 0.684655 0.977774
vt 0.672976 0.976860
vt 0.763040 0.976860
vt 0.307669 0.030119
vt 0.826579 0.030119
vt 0.781883 0.974489
vt 0.684680 0.976629
vt 0.838259 0.031034
vt 0.244116 0.030119
vt 0.781883 0.974490
vt 0.826555 0.030810
vt 0.969095 0.027764
vt 0.792699 0.974464
vt 0.672953 0.977858
vt 0.953631 0.027708
vt 0.916643 0.030119
vt 0.684657 0.977467
vt 0.838259 0.031034
vt 0.853091 0.030119
vt 0.800027 0.974504
vt 0.826554 0.030809
vt 0.946303 0.027723
vt 0.815492 0.974449
vt 0.838284 0.029889
vt 0.935486 0.027749
vt 0.231111 0.030119
vt 0.826579 0.030119
vt 0.838259 0.031034
vt 0.167558 0.030119
vt 0.800028 0.974504
vt 0.826555 0.030810
vt 0.969095 0.027764
vt 0.815491 0.974449
vt 0.838284 0.029889
vt 0.953631 0.027709
vt 0.916643 0.030119
vt 0.826579 0.030119
vt 0.838259 0.031034
vt 0.853091 0.030119
vt 0.781883 0.974490
vt 0.826554 0.030809
vt 0.946303 0.027723
vt 0.792699 0.974464
vn 0.000000 -0.999814 -0.019274
vn 0.000000 -0.998652 -0.051902
vn 0.000000 -0.998652 -0.051902
vn 0.000000 -0.999814 -0.019272
vn -0.019269 -0.999814 -0.000001
vn 0.013421 -0.999910 -0.000001
vn 0.013421 -0.999910 -0.000001
vn -0.019269 -0.999814 -0.000001
vn 0.000000 -0.999993 0.003861
vn 0.000000 -0.999993 0.003862
vn -0.019264 -0.999629 -0.019268
vn -0.019264 -0.999629 -0.019268
vn -0.019264 -0.999629 -0.019268
vn -0.019264 -0.999629 -0.019268
vn -0.051891 -0.998653 -0.000001
vn -0.051891 -0.998653 -0.000001
vn 0.019266 -0.999629 -0.019270
vn 0.019266 -0.999629 -0.019270
vn 0.019266 -0.999629 -0.019270
vn 0.019266 -0.999629 -0.019270
vn -0.019263 -0.999629 0.019268
vn -0.019263 -0.999629 0.019268
vn -0.019263 -0.999629 0.019268
vn -0.019263 -0.999629 0.019268
vn 0.000000 -0.999993 -0.003863
vn 0.000000 -0.999993 -0.003862
vn 0.000000 -0.999814 0.019272
vn 0.000000 -0.999814 0.019274
vn 0.019272 -0.999814 -0.000001
vn 0.051922 -0.998651 -0.000001
vn 0.051922 -0.998651 -0.000001
vn 0.019272 -0.999809 0.003236
vn 0.000000 -0.998652 0.051907
vn 0.000000 -0.998652 0.051907
vn -0.013417 -0.999910 -0.000001
vn -0.004016 -0.999977 0.005544
vn 0.019266 -0.999629 0.019270
vn 0.019266 -0.999629 0.019270
vn 0.000000 0.999815 0.019219
vn 0.000000 0.999815 0.019219
vn 0.000000 0.998661 0.051737
vn 0.000000 0.998661 0.051737
vn -0.013339 0.999911 0.000004
vn -0.013339 0.999911 0.000004
vn 0.019227 0.999815 -0.000000
vn 0.019227 0.999815 0.000000
vn 0.000000 0.999993 -0.003840
vn 0.000000 0.999993 -0.003839
vn 0.019217 0.999631 0.019215
vn 0.019217 0.999631 0.019215
vn 0.019217 0.999631 0.019215
vn 0.019217 0.999631 0.019215
vn 0.051739 0.998661 -0.000004
vn 0.051739 0.998661 -0.000004
vn -0.019214 0.999631 0.019224
vn -0.019214 0.999631 0.019224
vn -0.019214 0.999631 0.019224
vn -0.019214 0.999631 0.019224
vn 0.019227 0.999630 -0.019227
vn 0.019227 0.999630 -0.019227
vn 0.019227 0.999630 -0.019227
vn 0.019227 0.999630 -0.019227
vn 0.000000 0.999993 0.003839
vn 0.000000 0.999993 0.003839
vn 0.000000 0.999815 -0.019227
vn 0.000000 0.999815 -0.019227
vn -0.051734 0.998661 0.000000
vn -0.019225 0.999815 0.000002
vn -0.019225 0.999810 -0.003230
vn -0.051734 0.998661 0.000000
vn 0.000000 0.998662 -0.051715
vn 0.000000 0.998662 -0.051715
vn 0.013339 0.999911 0.000005
vn 0.003970 0.999977 -0.005532
vn -0.019224 0.999630 -0.019236
vn -0.019224 0.999630 -0.019236
vn -1.000000 0.000000 -0.000148
vn -1.000000 0.000000 -0.000148
vn -1.000000 0.000000 -0.000005
vn -1.000000 0.000000 0.000005
vn 0.000000 0.000000 -1.000000
vn 0.000000 0.000000 -1.000000
vn 0.000000 0.000000 -1.000000
vn 0.000000 0.000000 -1.000000
vn 1.000000 -0.000001 -0.000037
vn 1.000000 -0.000001 -0.000037
vn 1.000000 -0.000001 -0.000094
vn 1.000000 -0.000001 -0.000090
vn -0.000028 -0.000000 1.000000
vn -0.000028 -0.000000 1.000000
vn -0.000028 -0.000000 1.000000
vn -0.000028 -0.000000 1.000000
vn -1.000000 0.000002 -0.000000
vn -1.000000 0.000002 -0.000000
vn -1.000000 0.000002 -0.000000
vn -1.000000 0.000002 -0.000000
vn 0.000005 0.000000 -1.000000
vn 0.000005 0.000000 -1.000000
vn -0.000000 0.000000 -1.000000
vn 0.000000 0.000000 -1.000000
vn 1.000000 -0.000002 0.000000
vn 1.000000 -0.000002 0.000000
vn 1.000000 -0.000002 0.000000
vn 1.000000 -0.000002 0.000000
vn -0.000009 -0.000000 1.000000
vn -0.000009 -0.000000 1.000000
vn -0.000014 -0.000000 1.000000
vn -0.000014 -0.000000 1.000000
vn 0.000000 0.000000 -1.000000
vn 0.000000 0.000000 -1.000000
vn 0.000004 0.000000 -1.000000
vn 0.000005 0.000000 -1.000000
vn 1.000000 -0.000001 0.000037
vn 1.000000 -0.000001 0.000037
vn 1.000000 -0.000001 0.000090
vn 1.000000 -0.000001 0.000094
vn 0.000000 0.000000 1.000000
vn 0.000000 0.000000 1.000000
vn 0.000000 0.000000 1.000000
vn 0.000000 0.000000 1.000000
vn -1.000000 0.000000 0.000148
vn -1.000000 0.000000 0.000148
vn -1.000000 0.000000 -0.000005
vn -1.000000 0.000000 0.000005
vn -0.000009 -0.000000 1.000000
vn -0.000009 -0.000000 1.000000
vn -0.000009 -0.000000 1.000000
vn -0.000009 -0.000000 1.000000
vn 1.000000 -0.000001 0.000127
vn 1.000000 -0.000001 0.000131
vn 1.000000 -0.000001 0.000074
vn 1.000000 -0.000001 0.000074
vn 0.000009 -0.000000 1.000000
vn 0.000009 -0.000000 1.000000
vn 0.000009 -0.000000 1.000000
vn 0.000009 -0.000000 1.000000
vn -1.000000 0.000001 -0.000145
vn -1.000000 0.000001 -0.000074
vn -1.000000 0.000001 -0.000074
vn -1.000000 0.000001 -0.000150
vn -1.000000 0.000001 0.000145
vn -1.000000 0.000001 0.000150
vn -1.000000 0.000001 0.000074
vn -1.000000 0.000001 0.000074
vn 0.000000 -0.000000 -1.000000
vn 0.000000 -0.000000 -1.000000
vn 0.000000 0.000000 -1.000000
vn 0.000000 -0.000000 -1.000000
vn 0.000000 0.000000 -1.000000
vn 0.000000 0.000000 -1.000000
vn 0.000000 0.000000 -1.000000
vn 0.000000 0.000000 -1.000000
vn 1.000000 -0.000001 -0.000127
vn 1.000000 -0.000001 -0.000074
vn 1.000000 -0.000001 -0.000074
vn 1.000000 -0.000001 -0.000131
vn 1.000000 -0.000001 -0.000184
vn 1.000000 -0.000001 -0.000184
vn 0.000000 0.000000 -1.000000
vn 0.000000 0.000000 -1.000000
vn 1.000000 -0.000001 -0.000148
vn 1.000000 -0.000001 -0.000148
vn 0.000000 0.000000 -1.000000
vn 0.000000 0.000000 -1.000000
vn -1.000000 0.000000 0.000148
vn -1.000000 0.000000 0.000148
vn 0.000000 0.000000 -1.000000
vn 0.000000 0.000000 -1.000000
vn -1.000000 0.000001 0.000221
vn -1.000000 0.000001 0.000221
vn -0.000005 0.000000 -1.000000
vn -0.000005 0.000000 -1.000000
vn -1.000000 0.000002 -0.000000
vn -1.000000 0.000002 -0.000000
vn -0.000028 0.000000 1.000000
vn -0.000028 0.000000 1.000000
vn -1.000000 0.000001 -0.000221
vn -1.000000 0.000001 -0.000221
vn 0.000009 0.000000 1.000000
vn 0.000009 0.000000 1.000000
vn -1.000000 0.000000 -0.000148
vn -1.000000 0.000000 -0.000148
vn 0.000000 0.000000 1.000000
vn 0.000000 0.000000 1.000000
vn 1.000000 -0.000001 0.000148
vn 1.000000 -0.000001 0.000148
vn -0.000009 0.000000 1.000000
vn -0.000009 0.000000 1.000000
vn 1.000000 -0.000001 0.000184
vn 1.000000 -0.000001 0.000184
vn -0.000018 0.000000 1.000000
vn -0.000018 0.000000 1.000000
vn 1.000000 -0.000002 0.000000
vn 1.000000 -0.000002 0.000000
vn 0.000009 0.000000 -1.000000
vn 0.000009 0.000000 -1.000000
s 1
usemtl Rudder_AxelSG
f 26/1/1 25/39/2 27/40/3 28/2/4
s 2
f 29/3/5 31/5/6 32/6/7 30/4/8
s 1
f 31/5/9 26/1/1 28/2/4 33/7/10
s off
f 31/5/11 29/3/12 34/8/13 26/1/14
s 2
f 36/44/15 29/41/5 30/42/8 35/43/16
s off
f 33/7/17 28/2/18 37/45/19 38/9/20
f 30/4/21 32/6/22 39/10/23 40/46/24
s 1
f 31/5/9 33/7/10 41/11/25 32/6/26
f 32/6/26 41/11/25 42/12/27 39/10/28
s 3
f 38/9/29 44/47/30 43/48/31 45/13/32
s 1
f 39/10/28 42/12/27 46/49/33 47/50/34
s 3
f 33/7/35 38/9/29 45/13/32 41/11/36
f 42/12/37 41/11/36 45/13/32 48/14/38
s 4
f 5/15/39 11/18/40 9/17/41 2/16/42
s 5
f 15/22/43 3/21/44 4/19/45 16/20/46
s 4
f 3/21/47 10/23/48 11/18/40 5/15/39
s off
f 3/21/49 5/15/50 6/24/51 4/19/52
s 5
f 4/19/45 1/26/53 13/25/54 16/20/46
s off
f 10/23/55 8/28/56 12/27/57 11/18/58
f 16/20/59 18/30/60 17/29/61 15/22/62
s 4
f 10/23/48 3/21/47 15/22/63 21/31/64
f 15/22/63 17/29/65 23/32/66 21/31/64
s 6
f 7/33/67 8/28/68 22/35/69 19/34/70
s 4
f 17/29/65 14/37/71 20/36/72 23/32/66
s 6
f 8/28/68 10/23/73 21/31/74 22/35/69
f 23/32/75 24/38/76 22/35/69 21/31/74
s 7
f 5/51/77 2/52/78 53/204/79 54/201/80
s 8
f 2/75/81 9/76/82 52/206/83 53/203/84
s 9
f 9/55/85 11/56/86 51/208/87 52/205/88
s 10
f 16/79/89 13/80/90 58/194/91 59/191/92
s 11
f 1/60/93 57/196/94 58/193/95 13/59/96
s 12
f 1/83/97 4/84/98 56/198/99 57/195/100
s 13
f 68/171/101 7/63/102 19/64/103 67/176/104
s 14
f 19/87/105 22/88/106 66/178/107 67/175/108
s 15
f 8/91/109 7/92/110 68/172/111 49/132/112
s 16
f 23/67/113 20/68/114 63/184/115 64/181/116
s 17
f 20/95/117 14/96/118 62/186/119 63/183/120
s 18
f 14/71/121 17/72/122 61/188/123 62/185/124
s 19
f 64/182/125 65/179/126 24/101/127 23/102/128
s 20
f 65/180/129 66/177/130 22/105/131 24/106/132
s 21
f 17/107/133 18/108/134 60/190/135 61/187/136
s 22
f 60/189/137 18/112/138 16/113/139 59/192/140
s 23
f 55/200/141 56/197/142 4/117/143 6/118/144
s 24
f 6/119/145 5/120/146 54/202/147 55/199/148
s 25
f 11/123/149 12/124/150 50/210/151 51/207/152
s 26
f 50/209/153 12/128/154 8/129/155 49/131/156
f 37/127/157 50/134/153 49/173/156 38/130/158
s 25
f 51/136/152 50/133/151 37/125/159 28/126/160
s 9
f 52/138/88 51/135/87 28/57/161 27/58/162
s 8
f 53/140/84 52/137/83 27/77/163 25/78/164
s 7
f 54/142/80 53/139/79 25/53/165 26/54/166
s 24
f 55/144/148 54/141/147 26/121/167 34/122/168
s 23
f 34/115/169 29/116/170 56/146/142 55/143/141
s 12
f 57/148/100 56/145/99 29/85/171 36/86/172
s 11
f 58/150/95 57/147/94 36/61/173 35/62/174
s 10
f 59/152/92 58/149/91 35/81/175 30/82/176
s 22
f 40/111/177 60/154/137 59/151/140 30/114/178
s 21
f 61/156/136 60/153/135 40/109/179 39/110/180
s 18
f 62/158/124 61/155/123 39/73/181 47/74/182
s 17
f 63/160/120 62/157/119 47/97/183 46/98/184
s 16
f 64/162/116 63/159/115 46/69/185 42/70/186
s 19
f 42/99/187 48/100/188 65/163/126 64/161/125
s 20
f 48/103/189 45/104/190 66/166/130 65/164/129
s 14
f 67/168/108 66/165/107 45/89/191 43/90/192
s 13
f 44/66/193 68/170/101 67/167/104 43/65/194
s 15
f 49/174/112 68/169/111 44/93/195 38/94/196
