# This file uses centimeters as units for non-parametric coordinates.

v 0.830517 0.208044 0.654956
v 0.830517 0.241000 0.668352
v 0.830517 0.273956 0.654956
v 0.830517 0.194648 0.622000
v 0.830517 0.241000 0.622000
v 0.830517 0.287352 0.622000
v 0.830517 0.208044 0.589044
v 0.830517 0.241000 0.575648
v 0.830517 0.273956 0.589044
v 0.834325 0.208044 0.654956
v 0.834325 0.241000 0.668352
v 0.834325 0.194648 0.622000
v 0.834325 0.273956 0.654956
v 0.834325 0.287352 0.622000
v 0.834325 0.208044 0.589044
v 0.834325 0.273956 0.589044
v 0.834325 0.241000 0.575648
v 0.608331 0.260944 0.610008
v 0.608331 0.260944 0.633940
v 0.830517 0.229034 0.633940
v 0.830517 0.229034 0.610008
v 0.830517 0.252966 0.610008
v 0.830517 0.252966 0.633940
v 0.830517 0.260944 0.610008
v 0.830517 0.260944 0.633940
v 0.608331 0.229034 0.633940
v 0.608331 0.229034 0.610008
v 0.608331 0.252966 0.633940
v 0.608331 0.252966 0.610008
v 0.608331 0.221056 0.610008
v 0.830517 0.221056 0.610008
v 0.608331 0.221056 0.633940
v 0.830517 0.221056 0.633940
v 0.608331 0.229034 0.602031
v 0.830517 0.229034 0.602031
v 0.608331 0.229034 0.641918
v 0.830517 0.229034 0.641918
v 0.608331 0.252966 0.602031
v 0.830517 0.252966 0.602031
v 0.608331 0.252966 0.641918
v 0.830517 0.252966 0.641918
v 0.578289 0.241000 0.600917
v 0.580868 0.233063 0.600917
v 0.587620 0.228158 0.600917
v 0.595966 0.228158 0.600917
v 0.602717 0.233063 0.600917
v 0.605295 0.241000 0.600917
v 0.602717 0.248937 0.600917
v 0.595966 0.253842 0.600917
v 0.587620 0.253842 0.600917
v 0.580868 0.248937 0.600917
v 0.578289 0.241000 0.613458
v 0.580868 0.233063 0.613458
v 0.587620 0.228158 0.613458
v 0.595966 0.228158 0.613458
v 0.602717 0.233063 0.613458
v 0.605295 0.241000 0.613458
v 0.602717 0.248937 0.613458
v 0.595966 0.253842 0.613458
v 0.587620 0.253842 0.613458
v 0.580868 0.248937 0.613458
v 0.557358 0.241000 0.613458
v 0.563935 0.220760 0.613458
v 0.581152 0.208251 0.613458
v 0.602433 0.208251 0.613458
v 0.619651 0.220760 0.613458
v 0.626228 0.241000 0.613458
v 0.619651 0.261240 0.613458
v 0.602433 0.273749 0.613458
v 0.581152 0.273749 0.613458
v 0.563935 0.261240 0.613458
v 0.557358 0.241000 0.600917
v 0.563935 0.220760 0.600917
v 0.581152 0.208251 0.600917
v 0.602433 0.208251 0.600917
v 0.619651 0.220760 0.600917
v 0.626228 0.241000 0.600917
v 0.619651 0.261240 0.600917
v 0.602433 0.273749 0.600917
v 0.581152 0.273749 0.600917
v 0.563935 0.261240 0.600917
v 0.578289 0.241000 0.630542
v 0.580868 0.233063 0.630542
v 0.587620 0.228158 0.630542
v 0.595966 0.228158 0.630542
v 0.602717 0.233063 0.630542
v 0.605295 0.241000 0.630542
v 0.602717 0.248937 0.630542
v 0.595966 0.253842 0.630542
v 0.587620 0.253842 0.630542
v 0.580868 0.248937 0.630542
v 0.578289 0.241000 0.643083
v 0.580868 0.233063 0.643083
v 0.587620 0.228158 0.643083
v 0.595966 0.228158 0.643083
v 0.602717 0.233063 0.643083
v 0.605295 0.241000 0.643083
v 0.602717 0.248937 0.643083
v 0.595966 0.253842 0.643083
v 0.587620 0.253842 0.643083
v 0.580868 0.248937 0.643083
v 0.557358 0.241000 0.643083
v 0.563935 0.220760 0.643083
v 0.581152 0.208251 0.643083
v 0.602433 0.208251 0.643083
v 0.619651 0.220760 0.643083
v 0.626228 0.241000 0.643083
v 0.619651 0.261240 0.643083
v 0.602433 0.273749 0.643083
v 0.581152 0.273749 0.643083
v 0.563935 0.261240 0.643083
v 0.557358 0.241000 0.630542
v 0.563935 0.220760 0.630542
v 0.581152 0.208251 0.630542
v 0.602433 0.208251 0.630542
v 0.619651 0.220760 0.630542
v 0.626228 0.241000 0.630542
v 0.619651 0.261240 0.630542
v 0.602433 0.273749 0.630542
v 0.581152 0.273749 0.630542
v 0.563935 0.261240 0.630542
vt 0.377488 0.592496
vt 0.502229 0.539042
vt 0.511909 0.731166
vt 0.324908 0.717655
vt 0.631467 0.586154
vt 0.698620 0.713976
vt 0.252066 0.196255
vt 0.367713 0.853175
vt 0.328548 0.196146
vt 0.328560 0.204333
vt 0.252077 0.204442
vt 0.405031 0.196037
vt 0.405043 0.204224
vt 0.175583 0.196365
vt 0.175594 0.204551
vt 0.710962 0.195600
vt 0.710974 0.203787
vt 0.234057 0.765930
vt 0.271151 0.765924
vt 0.234047 0.702982
vt 0.271141 0.702977
vt 0.234037 0.640035
vt 0.271131 0.640030
vt 0.234027 0.577088
vt 0.271121 0.577082
vt 0.234017 0.514142
vt 0.271111 0.514136
vt 0.271091 0.388241
vt 0.233997 0.388247
vt 0.234007 0.451194
vt 0.271101 0.451188
vt 0.271071 0.262346
vt 0.233977 0.262352
vt 0.271082 0.325294
vt 0.233987 0.325300
vt 0.271101 0.451188
vt 0.234007 0.451194
vt 0.233997 0.388247
vt 0.271091 0.388241
vt 0.271111 0.514136
vt 0.234017 0.514142
vt 0.673299 0.497876
vt 0.767828 0.477615
vt 0.378000 0.296504
vt 0.378035 0.497929
vt 0.378028 0.455523
vt 0.767837 0.346966
vt 0.724288 0.346963
vt 0.378030 0.466125
vt 0.767826 0.521164
vt 0.378002 0.307105
vt 0.673290 0.444870
vt 0.378026 0.444922
vt 0.898478 0.477623
vt 0.673275 0.360059
vt 0.378011 0.360111
vt 0.378009 0.349510
vt 0.673271 0.338857
vt 0.378007 0.338909
vt 0.673284 0.413066
vt 0.378020 0.413118
vt 0.673281 0.391863
vt 0.898486 0.346974
vt 0.378018 0.402517
vt 0.378016 0.391915
vt 0.248880 0.176815
vt 0.303750 0.176815
vt 0.248880 0.094359
vt 0.248880 0.176815
vt 0.303750 0.176815
vt 0.248880 0.094359
vt 0.742699 0.094359
vt 0.742699 0.176815
vt 0.797570 0.094359
vt 0.797570 0.176815
vt 0.303750 0.094359
vt 0.358616 0.094359
vt 0.358616 0.176815
vt 0.413485 0.094359
vt 0.413485 0.176815
vt 0.468354 0.094359
vt 0.468354 0.176815
vt 0.523220 0.094359
vt 0.523220 0.176815
vt 0.578090 0.094359
vt 0.578090 0.176815
vt 0.687830 0.176815
vt 0.687830 0.094359
vt 0.632961 0.094359
vt 0.632961 0.176815
vt 0.742699 0.094359
vt 0.742699 0.176815
vt 0.797570 0.094359
vt 0.797570 0.176815
vt 0.303750 0.094359
vt 0.358616 0.094359
vt 0.358616 0.176815
vt 0.413485 0.094359
vt 0.413485 0.176815
vt 0.468354 0.094359
vt 0.468354 0.176815
vt 0.523220 0.094359
vt 0.523220 0.176815
vt 0.578090 0.094359
vt 0.578090 0.176815
vt 0.687830 0.176815
vt 0.687830 0.094359
vt 0.632961 0.094359
vt 0.632961 0.176815
vt 0.108499 0.548349
vt 0.166183 0.548349
vt 0.172992 0.572249
vt 0.101690 0.572249
vt 0.126324 0.533578
vt 0.148358 0.533578
vt 0.148358 0.533578
vt 0.126324 0.533578
vt 0.166180 0.548349
vt 0.108502 0.548349
vt 0.172989 0.572249
vt 0.101693 0.572249
vt 0.166180 0.596149
vt 0.108502 0.596149
vt 0.148358 0.610920
vt 0.126324 0.610920
vt 0.126324 0.610920
vt 0.148358 0.610920
vt 0.108499 0.596149
vt 0.166183 0.596149
vt 0.063792 0.511302
vt 0.046430 0.572249
vt 0.109249 0.473634
vt 0.165433 0.473634
vt 0.210890 0.511302
vt 0.228252 0.572249
vt 0.210890 0.633197
vt 0.165433 0.670864
vt 0.109249 0.670864
vt 0.063792 0.633197
vt 0.210890 0.511302
vt 0.228252 0.572249
vt 0.165433 0.473634
vt 0.109249 0.473634
vt 0.063792 0.511302
vt 0.046430 0.572249
vt 0.063792 0.633197
vt 0.109249 0.670864
vt 0.165433 0.670864
vt 0.210890 0.633197
vt 0.108499 0.757208
vt 0.166183 0.757208
vt 0.172992 0.781108
vt 0.101690 0.781108
vt 0.126324 0.742437
vt 0.148358 0.742437
vt 0.148358 0.742437
vt 0.126324 0.742437
vt 0.166180 0.757208
vt 0.108502 0.757208
vt 0.172989 0.781108
vt 0.101693 0.781108
vt 0.166180 0.805008
vt 0.108502 0.805008
vt 0.148358 0.819779
vt 0.126324 0.819779
vt 0.126324 0.819779
vt 0.148358 0.819779
vt 0.108499 0.805008
vt 0.166183 0.805008
vt 0.063792 0.720160
vt 0.046430 0.781108
vt 0.109249 0.682493
vt 0.165433 0.682493
vt 0.210890 0.720160
vt 0.228252 0.781108
vt 0.210890 0.842055
vt 0.165433 0.879723
vt 0.109249 0.879723
vt 0.063792 0.842055
vt 0.210890 0.720160
vt 0.228252 0.781108
vt 0.165433 0.682493
vt 0.109249 0.682493
vt 0.063792 0.720160
vt 0.046430 0.781108
vt 0.063792 0.842055
vt 0.109249 0.879723
vt 0.165433 0.879723
vt 0.210890 0.842055
vt 0.271171 0.891817
vt 0.271161 0.828872
vt 0.234067 0.828878
vt 0.234077 0.891823
vt 0.271171 0.891817
vt 0.271161 0.828872
vt 0.234067 0.828878
vt 0.234077 0.891823
vt 0.233987 0.325300
vt 0.271081 0.325294
vt 0.233977 0.262352
vt 0.271071 0.262346
vt 0.234057 0.765930
vt 0.271151 0.765924
vt 0.234046 0.702983
vt 0.271141 0.702977
vt 0.234037 0.640035
vt 0.271131 0.640030
vt 0.234027 0.577088
vt 0.271121 0.577082
vt 0.511909 0.905771
vt 0.636054 0.855310
vt 0.481514 0.195928
vt 0.481526 0.204115
vt 0.634480 0.195709
vt 0.634491 0.203896
vt 0.557997 0.195819
vt 0.558008 0.204006
vt 0.787457 0.203678
vt 0.787445 0.195491
vt 0.898489 0.303424
vt 0.673283 0.402465
vt 0.767840 0.303416
vt 0.673266 0.307053
vt 0.898475 0.521173
vt 0.673273 0.349458
vt 0.673292 0.455471
vt 0.673301 0.508477
vt 0.673294 0.466072
vt 0.724279 0.477612
vt 0.942036 0.346977
vt 0.942028 0.477626
vt 0.378037 0.508530
vt 0.673264 0.296451
vn -1.000000 0.000000 0.000000
vn -1.000000 0.000000 0.000000
vn -1.000000 -0.000000 0.000000
vn -1.000000 0.000001 0.000000
vn -1.000000 0.000000 0.000000
vn -1.000000 -0.000001 0.000000
vn -1.000000 -0.000001 0.000000
vn -1.000000 0.000001 0.000000
vn -1.000000 -0.000002 0.000000
vn 0.000000 -0.376552 0.926395
vn 0.000000 -0.376552 0.926395
vn 0.000000 -0.376552 0.926395
vn 0.000000 -0.376552 0.926395
vn 0.000000 -0.926397 0.376550
vn 0.000000 -0.926397 0.376550
vn 0.000000 -0.926397 0.376550
vn 0.000000 -0.926397 0.376550
vn 0.000000 0.376552 0.926396
vn 0.000000 0.376552 0.926396
vn 0.000000 0.376552 0.926396
vn 0.000000 0.376552 0.926396
vn 0.000000 0.926397 0.376549
vn 0.000000 0.926397 0.376549
vn 0.000000 0.926397 0.376549
vn 0.000000 0.926397 0.376549
vn 0.000000 -0.926397 -0.376550
vn 0.000000 -0.926397 -0.376550
vn 0.000000 -0.926397 -0.376550
vn 0.000000 -0.926397 -0.376550
vn 0.000000 0.926397 -0.376549
vn 0.000000 0.926397 -0.376549
vn 0.000000 0.926397 -0.376549
vn 0.000000 0.926397 -0.376549
vn 0.000000 -0.376552 -0.926395
vn 0.000000 -0.376552 -0.926395
vn 0.000000 -0.376552 -0.926395
vn 0.000000 -0.376552 -0.926395
vn 0.000000 0.376552 -0.926396
vn 0.000000 0.376552 -0.926396
vn 0.000000 0.376552 -0.926396
vn 0.000000 0.376552 -0.926396
vn -0.000000 0.000000 -1.000000
vn -0.000000 0.000000 -1.000000
vn -0.000000 0.000000 -1.000000
vn -0.000000 0.000000 -1.000000
vn -0.000000 0.000000 1.000000
vn -0.000000 0.000000 1.000000
vn -0.000000 0.000000 1.000000
vn -0.000000 0.000000 1.000000
vn -0.000000 -1.000000 0.000000
vn -0.000000 -1.000000 0.000000
vn -0.000000 -1.000000 0.000000
vn -0.000000 -1.000000 0.000000
vn 0.000000 -1.000000 -0.000004
vn 0.000000 -1.000000 -0.000004
vn 0.000000 -1.000000 -0.000004
vn 0.000000 -1.000000 -0.000004
vn 0.000000 -1.000000 0.000004
vn 0.000000 -1.000000 0.000004
vn 0.000000 -1.000000 0.000004
vn 0.000000 -1.000000 0.000004
vn 0.000000 -0.000004 -1.000000
vn 0.000000 -0.000004 -1.000000
vn 0.000000 -0.000004 -1.000000
vn 0.000000 -0.000004 -1.000000
vn 0.000000 1.000000 0.000000
vn 0.000000 1.000000 0.000000
vn 0.000000 1.000000 0.000000
vn 0.000000 1.000000 0.000000
vn 0.000000 0.000000 -1.000000
vn 0.000000 0.000000 -1.000000
vn 0.000000 0.000000 -1.000000
vn 0.000000 0.000000 -1.000000
vn 0.000000 0.000000 1.000000
vn 0.000000 0.000000 1.000000
vn 0.000000 0.000000 1.000000
vn 0.000000 0.000000 1.000000
vn 0.000000 0.000000 1.000000
vn 0.000000 0.000000 1.000000
vn 0.000000 0.000000 1.000000
vn 0.000000 0.000000 1.000000
vn 0.000000 1.000000 0.000000
vn 0.000000 1.000000 0.000000
vn 0.000000 1.000000 0.000000
vn 0.000000 1.000000 0.000000
vn 0.000000 1.000000 0.000000
vn 0.000000 1.000000 0.000000
vn 0.000000 1.000000 0.000000
vn 0.000000 1.000000 0.000000
vn -1.000000 0.000000 0.000000
vn -1.000000 0.000000 0.000000
vn -1.000000 0.000000 0.000000
vn -1.000000 0.000000 0.000000
vn -1.000000 0.000000 0.000000
vn -1.000000 0.000000 0.000000
vn -1.000000 0.000000 0.000000
vn -1.000000 0.000000 0.000000
vn -1.000000 0.000000 0.000000
vn -1.000000 0.000000 0.000000
vn -1.000000 0.000000 0.000000
vn -1.000000 0.000000 0.000000
vn -1.000000 0.000000 0.000000
vn -1.000000 0.000000 0.000000
vn -1.000000 0.000000 0.000000
vn -1.000000 0.000000 0.000000
vn -1.000000 0.000000 0.000000
vn -1.000000 0.000000 0.000000
vn -1.000000 0.000000 0.000000
vn -1.000000 0.000000 0.000000
vn 0.809011 0.587794 -0.000001
vn 0.809010 0.587795 -0.000001
vn 1.000000 0.000003 0.000000
vn 1.000000 0.000002 0.000000
vn 0.309007 0.951060 -0.000001
vn 0.309008 0.951060 -0.000001
vn -0.309025 0.951054 -0.000001
vn -0.309026 0.951054 -0.000001
vn -0.809041 0.587753 -0.000001
vn -0.809040 0.587754 -0.000001
vn -1.000000 -0.000002 0.000000
vn -1.000000 -0.000002 0.000000
vn -0.809038 -0.587756 0.000000
vn -0.809038 -0.587757 0.000000
vn -0.309024 -0.951054 0.000000
vn -0.309024 -0.951054 0.000000
vn 0.309005 -0.951061 0.000000
vn 0.309004 -0.951061 0.000000
vn 0.809010 -0.587795 0.000000
vn 0.809010 -0.587795 0.000000
vn -0.000002 0.000000 1.000000
vn -0.000002 0.000000 1.000000
vn 0.000000 0.000000 1.000000
vn 0.000000 0.000000 1.000000
vn -0.000002 -0.000001 1.000000
vn -0.000002 -0.000001 1.000000
vn 0.000001 -0.000002 1.000000
vn 0.000001 -0.000002 1.000000
vn 0.000001 -0.000001 1.000000
vn 0.000001 -0.000001 1.000000
vn 0.000000 0.000000 1.000000
vn 0.000000 0.000000 1.000000
vn 0.000001 0.000000 1.000000
vn 0.000001 0.000000 1.000000
vn 0.000001 0.000000 1.000000
vn 0.000001 0.000000 1.000000
vn -0.000001 0.000000 1.000000
vn -0.000001 0.000000 1.000000
vn -0.000001 0.000000 1.000000
vn -0.000001 0.000000 1.000000
vn -0.809012 -0.587792 0.000000
vn -0.809012 -0.587792 0.000000
vn -1.000000 0.000000 0.000000
vn -1.000000 0.000000 0.000000
vn -0.309019 -0.951056 0.000000
vn -0.309019 -0.951056 0.000000
vn 0.309019 -0.951056 0.000000
vn 0.309019 -0.951056 0.000000
vn 0.809012 -0.587792 0.000000
vn 0.809012 -0.587792 0.000000
vn 1.000000 0.000000 0.000000
vn 1.000000 0.000000 0.000000
vn 0.809012 0.587792 0.000000
vn 0.809012 0.587792 0.000000
vn 0.309019 0.951056 0.000000
vn 0.309019 0.951056 0.000000
vn -0.309019 0.951056 0.000000
vn -0.309019 0.951056 0.000000
vn -0.809012 0.587792 0.000000
vn -0.809012 0.587792 0.000000
vn -0.000001 0.000001 -1.000000
vn -0.000001 -0.000000 -1.000000
vn -0.000001 -0.000000 -1.000000
vn -0.000001 0.000001 -1.000000
vn 0.000001 -0.000001 -1.000000
vn 0.000001 -0.000001 -1.000000
vn -0.000002 -0.000001 -1.000000
vn -0.000002 -0.000001 -1.000000
vn 0.000000 -0.000000 -1.000000
vn 0.000000 -0.000000 -1.000000
vn 0.000002 0.000001 -1.000000
vn 0.000002 0.000001 -1.000000
vn 0.000002 0.000000 -1.000000
vn 0.000002 0.000000 -1.000000
vn 0.000001 0.000001 -1.000000
vn 0.000001 0.000001 -1.000000
vn -0.000003 0.000001 -1.000000
vn -0.000003 0.000001 -1.000000
vn -0.000001 0.000000 -1.000000
vn -0.000001 0.000000 -1.000000
vn 0.809009 0.587796 -0.000001
vn 0.809009 0.587796 -0.000001
vn 1.000000 0.000000 0.000000
vn 1.000000 0.000000 0.000000
vn 0.309007 0.951060 -0.000001
vn 0.309007 0.951060 -0.000001
vn -0.309025 0.951054 -0.000001
vn -0.309025 0.951054 -0.000001
vn -0.809039 0.587755 -0.000001
vn -0.809038 0.587756 -0.000001
vn -1.000000 -0.000000 0.000000
vn -1.000000 -0.000000 0.000000
vn -0.809038 -0.587756 0.000000
vn -0.809038 -0.587757 0.000000
vn -0.309024 -0.951054 0.000000
vn -0.309024 -0.951054 0.000000
vn 0.309006 -0.951060 0.000000
vn 0.309006 -0.951060 0.000000
vn 0.809009 -0.587796 0.000000
vn 0.809009 -0.587796 0.000000
vn 0.000003 -0.000001 1.000000
vn 0.000003 -0.000001 1.000000
vn 0.000006 0.000000 1.000000
vn 0.000006 0.000000 1.000000
vn -0.000003 0.000001 1.000000
vn -0.000003 0.000001 1.000000
vn -0.000002 0.000002 1.000000
vn -0.000002 0.000002 1.000000
vn -0.000000 -0.000001 1.000000
vn -0.000000 -0.000001 1.000000
vn -0.000005 -0.000000 1.000000
vn -0.000005 -0.000000 1.000000
vn -0.000002 0.000002 1.000000
vn -0.000002 0.000002 1.000000
vn 0.000002 0.000000 1.000000
vn 0.000002 0.000000 1.000000
vn 0.000000 0.000000 1.000000
vn 0.000000 0.000000 1.000000
vn 0.000003 0.000001 1.000000
vn 0.000003 0.000001 1.000000
vn -0.809013 -0.587791 0.000000
vn -0.809013 -0.587791 0.000000
vn -1.000000 0.000000 0.000000
vn -1.000000 0.000000 0.000000
vn -0.309018 -0.951056 0.000000
vn -0.309018 -0.951056 0.000000
vn 0.309020 -0.951056 0.000000
vn 0.309020 -0.951056 0.000000
vn 0.809013 -0.587791 0.000000
vn 0.809013 -0.587791 0.000000
vn 1.000000 0.000000 0.000000
vn 1.000000 0.000000 0.000000
vn 0.809013 0.587791 0.000000
vn 0.809013 0.587791 0.000000
vn 0.309019 0.951056 0.000000
vn 0.309019 0.951056 0.000000
vn -0.309019 0.951056 0.000000
vn -0.309019 0.951056 0.000000
vn -0.809013 0.587791 0.000000
vn -0.809013 0.587791 0.000000
vn 0.000001 0.000000 -1.000000
vn -0.000002 0.000000 -1.000000
vn -0.000002 0.000000 -1.000000
vn 0.000001 0.000000 -1.000000
vn -0.000002 0.000000 -1.000000
vn -0.000002 0.000000 -1.000000
vn 0.000000 0.000000 -1.000000
vn 0.000000 0.000000 -1.000000
vn -0.000001 0.000000 -1.000000
vn -0.000001 0.000000 -1.000000
vn -0.000001 0.000000 -1.000000
vn -0.000001 0.000000 -1.000000
vn 0.000002 0.000000 -1.000000
vn 0.000002 0.000000 -1.000000
vn 0.000002 0.000000 -1.000000
vn 0.000002 0.000000 -1.000000
vn 0.000000 0.000000 -1.000000
vn 0.000000 0.000000 -1.000000
vn 0.000001 0.000000 -1.000000
vn 0.000001 0.000000 -1.000000
s 1
f 1/1/1 2/2/2 5/3/3 4/4/4
f 2/2/2 3/5/5 6/6/6 5/3/3
f 4/4/4 5/3/3 8/210/7 7/8/8
f 5/3/3 6/6/6 9/211/9 8/210/7
s off
f 2/7/10 1/9/11 10/10/12 11/11/13
f 1/9/14 4/12/15 12/13/16 10/10/17
f 3/14/18 2/7/19 11/11/20 13/15/21
f 6/16/22 3/219/23 13/218/24 14/17/25
f 4/12/26 7/212/27 15/213/28 12/13/29
f 9/214/30 6/16/31 14/17/32 16/215/33
f 7/212/34 8/216/35 17/217/36 15/213/37
f 8/216/38 9/214/39 16/215/40 17/217/41
f 30/42/42 27/227/43 21/232/44 31/45/45
f 20/46/46 26/226/47 32/228/48 33/49/49
f 32/228/50 30/42/51 31/45/52 33/49/53
f 27/233/54 34/223/55 35/51/56 21/44/57
f 36/52/58 26/226/59 20/46/60 37/53/61
f 29/225/62 18/55/63 24/56/64 22/57/65
f 38/58/66 29/225/67 22/57/68 39/59/69
f 34/223/70 38/58/71 39/59/72 35/51/73
f 40/60/74 36/52/75 37/53/76 41/61/77
f 19/62/78 28/221/79 23/64/80 25/65/81
f 28/221/82 40/60/83 41/61/84 23/64/85
f 18/55/86 19/62/87 25/65/88 24/56/89
f 40/220/90 28/63/91 26/47/92 36/222/93
f 28/63/94 19/230/95 18/231/96 29/54/97
f 29/54/98 38/224/99 34/50/100 27/43/101
f 27/43/102 30/229/103 32/48/104 26/47/105
f 27/43/106 26/47/107 28/63/108 29/54/109
s 2
f 53/109/110 43/108/111 42/107/112 52/106/113
f 54/105/114 44/104/115 43/108/111 53/109/110
f 55/103/116 45/102/117 44/104/115 54/105/114
f 56/101/118 46/100/119 45/102/117 55/103/116
f 57/99/120 47/98/121 46/100/119 56/101/118
f 58/97/122 48/96/123 47/98/121 57/99/120
f 59/70/124 49/95/125 48/96/123 58/97/122
f 60/69/126 50/71/127 49/95/125 59/70/124
f 61/92/128 51/91/129 50/93/127 60/94/126
f 52/106/113 42/107/112 51/91/129 61/92/128
s 3
f 63/130/130 53/110/131 52/113/132 62/131/133
f 64/132/134 54/114/135 53/110/131 63/130/130
f 65/133/136 55/116/137 54/114/135 64/132/134
f 66/134/138 56/118/139 55/116/137 65/133/136
f 67/135/140 57/120/141 56/118/139 66/134/138
f 68/136/142 58/122/143 57/120/141 67/135/140
f 69/137/144 59/124/145 58/122/143 68/136/142
f 70/138/146 60/126/147 59/124/145 69/137/144
f 71/139/148 61/128/149 60/126/147 70/138/146
f 62/131/133 52/113/132 61/128/149 71/139/148
s 4
f 73/31/150 63/30/151 62/29/152 72/28/153
f 74/27/154 64/26/155 63/30/151 73/31/150
f 75/25/156 65/24/157 64/26/155 74/27/154
f 76/23/158 66/22/159 65/24/157 75/25/156
f 77/21/160 67/20/161 66/22/159 76/23/158
f 78/19/162 68/18/163 67/20/161 77/21/160
f 79/195/164 69/196/165 68/18/163 78/19/162
f 80/194/166 70/197/167 69/196/165 79/195/164
f 81/34/168 71/35/169 70/33/167 80/32/166
f 72/28/153 62/29/152 71/35/169 81/34/168
s 5
f 42/112/170 43/111/171 73/140/172 72/141/173
f 43/111/171 44/115/174 74/142/175 73/140/172
f 44/115/174 45/117/176 75/143/177 74/142/175
f 45/117/176 46/119/178 76/144/179 75/143/177
f 46/119/178 47/121/180 77/145/181 76/144/179
f 47/121/180 48/123/182 78/146/183 77/145/181
f 48/123/182 49/125/184 79/147/185 78/146/183
f 49/125/184 50/127/186 80/148/187 79/147/185
f 50/127/186 51/129/188 81/149/189 80/148/187
f 51/129/188 42/112/170 72/141/173 81/149/189
s 6
f 93/90/190 83/89/191 82/88/192 92/87/193
f 94/86/194 84/85/195 83/89/191 93/90/190
f 95/84/196 85/83/197 84/85/195 94/86/194
f 96/82/198 86/81/199 85/83/197 95/84/196
f 97/80/200 87/79/201 86/81/199 96/82/198
f 98/78/202 88/77/203 87/79/201 97/80/200
f 99/67/204 89/76/205 88/77/203 98/78/202
f 100/66/206 90/68/207 89/76/205 99/67/204
f 101/73/208 91/72/209 90/74/207 100/75/206
f 92/87/193 82/88/192 91/72/209 101/73/208
s 7
f 103/170/210 93/150/211 92/153/212 102/171/213
f 104/172/214 94/154/215 93/150/211 103/170/210
f 105/173/216 95/156/217 94/154/215 104/172/214
f 106/174/218 96/158/219 95/156/217 105/173/216
f 107/175/220 97/160/221 96/158/219 106/174/218
f 108/176/222 98/162/223 97/160/221 107/175/220
f 109/177/224 99/164/225 98/162/223 108/176/222
f 110/178/226 100/166/227 99/164/225 109/177/224
f 111/179/228 101/168/229 100/166/227 110/178/226
f 102/171/213 92/153/212 101/168/229 111/179/228
s 8
f 113/36/230 103/37/231 102/38/232 112/39/233
f 114/40/234 104/41/235 103/37/231 113/36/230
f 115/209/236 105/208/237 104/41/235 114/40/234
f 116/207/238 106/206/239 105/208/237 115/209/236
f 117/205/240 107/204/241 106/206/239 116/207/238
f 118/203/242 108/202/243 107/204/241 117/205/240
f 119/191/244 109/192/245 108/202/243 118/203/242
f 120/190/246 110/193/247 109/192/245 119/191/244
f 121/199/248 111/198/249 110/200/247 120/201/246
f 112/39/233 102/38/232 111/198/249 121/199/248
s 9
f 82/152/250 83/151/251 113/180/252 112/181/253
f 83/151/251 84/155/254 114/182/255 113/180/252
f 84/155/254 85/157/256 115/183/257 114/182/255
f 85/157/256 86/159/258 116/184/259 115/183/257
f 86/159/258 87/161/260 117/185/261 116/184/259
f 87/161/260 88/163/262 118/186/263 117/185/261
f 88/163/262 89/165/264 119/187/265 118/186/263
f 89/165/264 90/167/266 120/188/267 119/187/265
f 90/167/266 91/169/268 121/189/269 120/188/267
f 91/169/268 82/152/250 112/181/253 121/189/269
