# This file uses centimeters as units for non-parametric coordinates.

mtllib enginegaugehand1_geo.mtl
v 0.698753 0.364039 0.712378
v 0.700147 0.362101 0.712378
v 0.698753 0.364039 0.724526
v 0.700147 0.362101 0.724526
v 0.709302 0.371630 0.724526
v 0.710697 0.369692 0.724526
v 0.709302 0.371630 0.712378
v 0.710697 0.369692 0.712378
vt 0.408189 0.132756
vt 0.591811 0.132756
vt 0.591811 0.316378
vt 0.408189 0.316378
vt 0.591811 0.500000
vt 0.408189 0.500000
vt 0.591811 0.683622
vt 0.408189 0.683622
vt 0.591811 0.867244
vt 0.408189 0.867244
vt 0.775433 0.132756
vt 0.775433 0.316378
vt 0.224567 0.132756
vt 0.224567 0.316378
vn -0.811702 -0.584072 0.000000
vn -0.811702 -0.584072 0.000000
vn -0.811702 -0.584072 0.000000
vn -0.811702 -0.584072 0.000000
vn 0.000000 0.000000 1.000000
vn 0.000000 0.000000 1.000000
vn 0.000000 0.000000 1.000000
vn 0.000000 0.000000 1.000000
vn 0.811702 0.584072 0.000000
vn 0.811702 0.584072 0.000000
vn 0.811702 0.584072 0.000000
vn 0.811702 0.584072 0.000000
vn 0.000000 0.000000 -1.000000
vn 0.000000 0.000000 -1.000000
vn 0.000000 0.000000 -1.000000
vn 0.000000 0.000000 -1.000000
vn 0.584078 -0.811698 0.000000
vn 0.584078 -0.811698 0.000000
vn 0.584078 -0.811698 0.000000
vn 0.584078 -0.811698 0.000000
vn -0.584078 0.811698 0.000000
vn -0.584078 0.811698 0.000000
vn -0.584078 0.811698 0.000000
vn -0.584078 0.811698 0.000000
s off
usemtl initialShadingGroup
f 1/1/1 2/2/2 4/3/3 3/4/4
f 3/4/5 4/3/6 6/5/7 5/6/8
f 5/6/9 6/5/10 8/7/11 7/8/12
f 7/8/13 8/7/14 2/9/15 1/10/16
f 2/2/17 8/11/18 6/12/19 4/3/20
f 7/13/21 1/1/22 3/4/23 5/14/24
