# This file uses centimeters as units for non-parametric coordinates.

v 0.500037 0.250358 0.765142
v 0.534107 0.250358 0.765142
v 0.500037 0.284428 0.765142
v 0.534107 0.284428 0.765142
v 0.500037 0.284428 0.731072
v 0.534107 0.284428 0.731072
v 0.500037 0.250358 0.731072
v 0.534107 0.250358 0.731072
vt 0.376529 0.006116
vt 0.623471 0.006116
vt 0.376529 0.253058
vt 0.623471 0.253058
vt 0.376529 0.500000
vt 0.623471 0.500000
vt 0.376529 0.746942
vt 0.623471 0.746942
vt 0.376529 0.993884
vt 0.623471 0.993884
vt 0.870413 0.006116
vt 0.870413 0.253058
vt 0.129587 0.006116
vt 0.129587 0.253058
vn 0.000000 0.000000 1.000000
vn 0.000000 0.000000 1.000000
vn 0.000000 0.000000 1.000000
vn 0.000000 0.000000 1.000000
vn 0.000000 1.000000 0.000000
vn 0.000000 1.000000 0.000000
vn 0.000000 1.000000 0.000000
vn 0.000000 1.000000 0.000000
vn 0.000000 0.000000 -1.000000
vn 0.000000 0.000000 -1.000000
vn 0.000000 0.000000 -1.000000
vn 0.000000 0.000000 -1.000000
vn 0.000000 -1.000000 0.000000
vn 0.000000 -1.000000 0.000000
vn 0.000000 -1.000000 0.000000
vn 0.000000 -1.000000 0.000000
vn 1.000000 0.000000 0.000000
vn 1.000000 0.000000 0.000000
vn 1.000000 0.000000 0.000000
vn 1.000000 0.000000 0.000000
vn -1.000000 0.000000 0.000000
vn -1.000000 0.000000 0.000000
vn -1.000000 0.000000 0.000000
vn -1.000000 0.000000 0.000000
s off
f 1/1/1 2/2/2 4/4/3 3/3/4
f 3/3/5 4/4/6 6/6/7 5/5/8
f 5/5/9 6/6/10 8/8/11 7/7/12
f 7/7/13 8/8/14 2/10/15 1/9/16
f 2/2/17 8/11/18 6/12/19 4/4/20
f 7/13/21 1/1/22 3/3/23 5/14/24
