# This file uses centimeters as units for non-parametric coordinates.

v 0.252166 0.131749 0.914144
v 0.257420 0.141905 0.914274
v 0.256534 0.135951 0.914199
v 0.252163 0.131663 0.918665
v 0.257418 0.141819 0.918794
v 0.256532 0.135865 0.918719
v 0.300244 0.147747 0.918886
v 0.294738 0.116005 0.918486
v 0.270969 0.092932 0.918188
v 0.300247 0.147833 0.914365
v 0.294740 0.116091 0.913966
v 0.270971 0.093019 0.913667
v 0.253651 0.148625 0.914254
v 0.242216 0.148474 0.914254
v 0.247886 0.150498 0.914254
v 0.253651 0.148625 0.918775
v 0.242216 0.148474 0.918775
v 0.247886 0.150498 0.918775
v 0.216812 0.183459 0.918775
v 0.247409 0.193556 0.918775
v 0.278960 0.183459 0.918775
v 0.216812 0.183459 0.914254
v 0.247409 0.193556 0.914254
v 0.278960 0.183459 0.914254
v 0.238168 0.142041 0.914250
v 0.243646 0.132003 0.914218
v 0.239207 0.136069 0.914229
v 0.238162 0.142016 0.918771
v 0.243640 0.131978 0.918739
v 0.239201 0.136044 0.918750
v 0.224588 0.093167 0.918579
v 0.201360 0.115495 0.918641
v 0.195537 0.148107 0.918757
v 0.224594 0.093192 0.914058
v 0.201366 0.115521 0.914120
v 0.195543 0.148132 0.914236
vt 0.591361 0.292801
vt 0.645473 0.126261
vt 0.416250 0.051782
vt 0.591361 0.292801
vt 0.645473 0.218322
vt 0.645473 0.126261
vt 0.591361 0.051782
vt 0.503806 0.023333
vt 0.591361 0.292801
vt 0.645473 0.126261
vt 0.591361 0.051782
vt 0.503806 0.023333
vt 0.416250 0.051782
vt 0.645473 0.218322
vt 0.591361 0.292801
vt 0.645473 0.126261
vt 0.503806 0.023333
vt 0.591361 0.051782
vt 0.416250 0.051782
vt 0.591361 0.051782
vt 0.503806 0.023333
vt 0.416250 0.051782
vt 0.503806 0.023333
vt 0.591361 0.051782
vt 0.416250 0.051782
vt 0.645473 0.218322
vt 0.591361 0.292801
vt 0.591361 0.292801
vt 0.645473 0.218322
vt 0.591361 0.292801
vt 0.591361 0.292801
vt 0.645473 0.126261
vt 0.645473 0.126261
vt 0.645473 0.126261
vt 0.645473 0.126261
vt 0.503806 0.023333
vt 0.591361 0.051782
vt 0.416250 0.051782
vt 0.591361 0.051782
vt 0.503806 0.023333
vt 0.416250 0.051782
vt 0.503806 0.023333
vt 0.591361 0.051782
vt 0.416250 0.051782
vt 0.645473 0.218322
vt 0.591361 0.292801
vt 0.591361 0.292801
vt 0.645473 0.218322
vt 0.591361 0.292801
vt 0.591361 0.292801
vt 0.645473 0.126261
vt 0.645473 0.126261
vt 0.645473 0.126261
vt 0.645473 0.126261
vt 0.503806 0.023333
vt 0.591361 0.051782
vt 0.416250 0.051782
vn 0.985285 -0.170898 -0.002669
vn 0.985285 -0.170898 -0.002669
vn 0.985285 -0.170898 -0.002669
vn 0.985285 -0.170898 -0.002669
vn 0.696547 -0.717389 -0.013254
vn 0.696547 -0.717389 -0.013254
vn 0.696547 -0.717389 -0.013254
vn 0.696547 -0.717389 -0.013254
vn -0.000407 -0.012507 0.999922
vn -0.000407 -0.012507 0.999922
vn -0.000407 -0.012507 0.999922
vn -0.000407 -0.012507 0.999922
vn -0.000409 -0.012516 0.999922
vn -0.000409 -0.012516 0.999922
vn -0.000409 -0.012516 0.999922
vn -0.000409 -0.012516 0.999922
vn -0.899578 -0.436670 -0.008871
vn -0.899578 -0.436670 -0.008871
vn -0.899578 -0.436670 -0.008871
vn -0.899578 -0.436670 -0.008871
vn 0.000408 0.012515 -0.999922
vn 0.000408 0.012515 -0.999922
vn 0.000408 0.012515 -0.999922
vn 0.000408 0.012515 -0.999922
vn -0.137134 0.990375 0.018774
vn -0.137134 0.990375 0.018774
vn -0.137134 0.990375 0.018774
vn -0.137134 0.990375 0.018774
vn 0.000409 0.012515 -0.999922
vn 0.000409 0.012515 -0.999922
vn 0.000409 0.012515 -0.999922
vn 0.000409 0.012515 -0.999922
vn -0.313370 0.949631 -0.000010
vn -0.313370 0.949631 -0.000010
vn -0.313370 0.949631 -0.000010
vn -0.313370 0.949631 -0.000010
vn 0.304776 0.952424 0.000000
vn 0.304776 0.952424 0.000000
vn 0.304776 0.952424 0.000000
vn 0.304776 0.952424 0.000000
vn -0.000014 -0.000004 1.000000
vn -0.000014 -0.000004 1.000000
vn -0.000014 -0.000004 1.000000
vn -0.000014 -0.000004 1.000000
vn 0.000000 0.000000 1.000000
vn 0.000000 0.000000 1.000000
vn 0.000000 0.000000 1.000000
vn 0.000000 0.000000 1.000000
vn 0.809009 -0.587797 0.000000
vn 0.809009 -0.587797 0.000000
vn 0.809009 -0.587797 0.000000
vn 0.809009 -0.587797 0.000000
vn 0.000000 0.000000 -1.000000
vn 0.000000 0.000000 -1.000000
vn 0.000000 0.000000 -1.000000
vn 0.000000 0.000000 -1.000000
vn -0.809167 -0.587580 -0.000021
vn -0.809166 -0.587579 -0.000021
vn -0.809167 -0.587579 -0.000021
vn -0.809167 -0.587579 -0.000021
vn 0.000000 0.000000 -1.000000
vn 0.000000 0.000000 -1.000000
vn 0.000000 0.000000 -1.000000
vn 0.000000 0.000000 -1.000000
vn -0.693002 -0.720918 -0.004979
vn -0.693002 -0.720918 -0.004979
vn -0.693002 -0.720918 -0.004979
vn -0.693002 -0.720918 -0.004979
vn -0.984428 -0.175775 -0.002298
vn -0.984428 -0.175775 -0.002298
vn -0.984428 -0.175775 -0.002298
vn -0.984428 -0.175775 -0.002298
vn -0.000863 -0.003701 0.999993
vn -0.000863 -0.003701 0.999993
vn -0.000863 -0.003701 0.999993
vn -0.000863 -0.003701 0.999993
vn -0.000872 -0.003691 0.999993
vn -0.000872 -0.003691 0.999993
vn -0.000872 -0.003691 0.999993
vn -0.000872 -0.003691 0.999993
vn 0.141449 0.989929 0.005748
vn 0.141449 0.989929 0.005748
vn 0.141449 0.989929 0.005748
vn 0.141449 0.989929 0.005748
vn 0.000872 0.003693 -0.999993
vn 0.000872 0.003693 -0.999993
vn 0.000872 0.003693 -0.999993
vn 0.000872 0.003693 -0.999993
vn 0.897675 -0.440656 -0.001303
vn 0.897675 -0.440656 -0.001303
vn 0.897675 -0.440656 -0.001303
vn 0.897675 -0.440656 -0.001303
vn 0.000871 0.003691 -0.999993
vn 0.000871 0.003691 -0.999993
vn 0.000871 0.003691 -0.999993
vn 0.000871 0.003691 -0.999993
s off
f 8/12/1 11/17/2 10/18/3 7/11/4
f 9/13/5 12/19/6 11/17/7 8/12/8
f 5/4/9 6/1/10 8/9/11 7/15/12
f 6/6/13 4/5/14 9/14/15 8/16/16
f 9/10/17 4/2/18 1/3/19 12/19/20
f 3/8/21 2/7/22 10/18/23 11/17/24
f 7/15/25 10/18/26 2/7/27 5/4/28
f 1/3/29 3/8/30 11/17/31 12/19/32
f 20/21/33 23/23/34 22/24/35 19/20/36
f 21/22/37 24/25/38 23/23/39 20/21/40
f 17/27/41 18/30/42 20/31/43 19/28/44
f 18/32/45 16/26/46 21/29/47 20/33/48
f 21/35/49 16/34/50 13/38/51 24/25/52
f 15/36/53 14/37/54 22/24/55 23/23/56
f 19/28/57 22/24/58 14/37/59 17/27/60
f 13/38/61 15/36/62 23/23/63 24/25/64
f 32/40/65 35/42/66 34/43/67 31/39/68
f 33/41/69 36/44/70 35/42/71 32/40/72
f 29/46/73 30/49/74 32/50/75 31/47/76
f 30/51/77 28/45/78 33/48/79 32/52/80
f 33/54/81 28/53/82 25/57/83 36/44/84
f 27/55/85 26/56/86 34/43/87 35/42/88
f 31/47/89 34/43/90 26/56/91 29/46/92
f 25/57/93 27/55/94 35/42/95 36/44/96
