# This file uses centimeters as units for non-parametric coordinates.

mtllib propeller_geo.mtl
v 0.488064 0.495277 0.440122
v 0.495519 0.487823 0.440122
v 0.495519 0.495277 0.440135
v 0.491791 0.495277 0.440140
v 0.495518 0.491550 0.440140
v 0.491791 0.491550 0.440122
v 0.512201 0.495277 0.440122
v 0.508474 0.495277 0.440140
v 0.504746 0.487823 0.440122
v 0.504746 0.495277 0.440135
v 0.504746 0.491550 0.440140
v 0.508474 0.491550 0.440122
v 0.488064 0.504505 0.440122
v 0.495519 0.511959 0.440122
v 0.495519 0.504505 0.440135
v 0.491791 0.504505 0.440140
v 0.495518 0.508232 0.440140
v 0.491791 0.508232 0.440122
v 0.512201 0.504505 0.440122
v 0.504746 0.511959 0.440122
v 0.504746 0.504505 0.440135
v 0.508474 0.504505 0.440140
v 0.504746 0.508232 0.440140
v 0.508474 0.508232 0.440122
v 0.495518 0.487823 0.556628
v 0.495519 0.491550 0.556646
v 0.504745 0.487823 0.556628
v 0.504746 0.491550 0.556646
v 0.491791 0.495277 0.556646
v 0.491791 0.504505 0.556646
v 0.495519 0.495277 0.556641
v 0.495519 0.504505 0.556641
v 0.504745 0.495277 0.556641
v 0.491790 0.491550 0.556628
v 0.488063 0.504505 0.556628
v 0.488063 0.495277 0.556628
v 0.508473 0.491550 0.556628
v 0.508474 0.495277 0.556646
v 0.495519 0.508232 0.556646
v 0.491790 0.508232 0.556628
v 0.504745 0.504505 0.556641
v 0.504746 0.508232 0.556646
v 0.512200 0.504505 0.556628
v 0.512200 0.495277 0.556628
v 0.508474 0.504505 0.556646
v 0.504745 0.511959 0.556628
v 0.495518 0.511959 0.556628
v 0.508473 0.508232 0.556628
vt 0.375084 0.723586
vt 0.489097 0.723655
vt 0.322426 0.777925
vt 0.321956 0.888759
vt 0.373165 0.774512
vt 0.373165 0.892028
vt 0.490851 0.774512
vt 0.325627 0.727045
vt 0.542005 0.776570
vt 0.375063 0.942960
vt 0.490851 0.892028
vt 0.489090 0.942893
vt 0.541886 0.890167
vt 0.538387 0.939495
vt 0.375071 0.723518
vt 0.373165 0.679578
vt 0.490851 0.679578
vt 0.488961 0.723567
vt 0.322144 0.776399
vt 0.322102 0.890131
vt 0.373165 0.774512
vt 0.373165 0.892028
vt 0.490851 0.774512
vt 0.325627 0.727045
vt 0.278092 0.892027
vt 0.278092 0.774512
vt 0.538387 0.727045
vt 0.541921 0.776415
vt 0.375227 0.943106
vt 0.325627 0.939495
vt 0.490851 0.892028
vt 0.488986 0.942986
vt 0.585924 0.774512
vt 0.585924 0.892028
vt 0.541803 0.890271
vt 0.490851 0.986962
vt 0.373165 0.986962
vt 0.538387 0.939495
vt 0.373165 0.679578
vt 0.490851 0.679578
vt 0.299769 0.780225
vt 0.299499 0.886494
vt 0.278092 0.892027
vt 0.278092 0.774512
vt 0.538387 0.727045
vt 0.325627 0.939495
vt 0.585924 0.774512
vt 0.585924 0.892028
vt 0.490851 0.986962
vt 0.373165 0.986962
vt 0.195401 0.642299
vt 0.183553 0.642898
vt 0.183553 0.030306
vt 0.195404 0.030755
vt 0.277075 0.030306
vt 0.288923 0.030905
vt 0.288926 0.642449
vt 0.277075 0.642898
vt 0.491050 0.642898
vt 0.426710 0.642898
vt 0.426710 0.030306
vt 0.491050 0.030306
vt 0.628301 0.030306
vt 0.692642 0.030306
vt 0.692642 0.642898
vt 0.628301 0.642898
vt 0.743752 0.030905
vt 0.755600 0.030306
vt 0.755600 0.642898
vt 0.743749 0.642449
vt 0.849122 0.642898
vt 0.837274 0.642299
vt 0.837271 0.030755
vt 0.849122 0.030306
vt 0.268675 0.642898
vt 0.204336 0.642898
vt 0.204336 0.030306
vt 0.268675 0.030306
vt 0.407074 0.030905
vt 0.418922 0.030306
vt 0.418922 0.642898
vt 0.407071 0.642449
vt 0.512443 0.642898
vt 0.500596 0.642299
vt 0.500592 0.030755
vt 0.512443 0.030306
vt 0.701041 0.030306
vt 0.712888 0.030905
vt 0.712892 0.642449
vt 0.701041 0.642898
vt 0.733671 0.642299
vt 0.721823 0.642898
vt 0.721823 0.030306
vt 0.733674 0.030755
vt 0.763389 0.030306
vt 0.827728 0.030306
vt 0.827728 0.642898
vt 0.763389 0.642898
vt 0.000000 0.000000
vt 0.050976 0.000000
vt 0.053378 1.000000
vt 0.002402 1.000000
vt 0.002402 0.000000
vt 0.053371 0.000000
vt 0.050969 1.000000
vt 0.000000 1.000000
vt 0.002402 0.000000
vt 0.053378 0.000000
vt 0.050976 1.000000
vt 0.000000 1.000000
vt 0.000122 0.000000
vt 1.000000 0.000000
vt 0.999878 0.050963
vt 0.000000 0.050963
vt 0.002402 0.000000
vt 0.053371 0.000000
vt 0.050969 1.000000
vt 0.000000 1.000000
vt 0.000000 0.000000
vt 0.050976 0.000000
vt 0.053378 1.000000
vt 0.002402 1.000000
vt 0.002402 0.000000
vt 0.053378 0.000000
vt 0.050976 1.000000
vt 0.000000 1.000000
vt 0.000122 0.000000
vt 1.000000 0.000000
vt 0.999878 0.050963
vt 0.000000 0.050963
vn 0.000000 -0.001791 0.999998
vn 0.000000 -0.004829 0.999988
vn 0.000000 -0.004829 0.999988
vn 0.000000 -0.001791 0.999998
vn -0.001794 0.000000 0.999998
vn 0.001259 0.000000 0.999999
vn 0.001259 0.000000 0.999999
vn -0.001794 0.000000 0.999998
vn 0.000000 0.000359 1.000000
vn 0.000000 0.000359 1.000000
vn -0.001793 -0.001791 0.999997
vn -0.001793 -0.001791 0.999997
vn -0.001793 -0.001791 0.999997
vn -0.001793 -0.001791 0.999997
vn -0.004846 0.000000 0.999988
vn -0.004846 0.000000 0.999988
vn 0.001801 -0.001791 0.999997
vn 0.001801 -0.001791 0.999997
vn 0.001801 -0.001791 0.999997
vn 0.001801 -0.001791 0.999997
vn -0.001793 0.001791 0.999997
vn -0.001793 0.001791 0.999997
vn -0.001793 0.001791 0.999997
vn -0.001793 0.001791 0.999997
vn 0.000000 -0.000359 1.000000
vn 0.000000 -0.000359 1.000000
vn 0.000000 0.001791 0.999998
vn 0.000000 0.001791 0.999998
vn 0.004835 0.000000 0.999988
vn 0.004835 0.000000 0.999988
vn 0.001790 0.000301 0.999998
vn 0.001789 0.000000 0.999998
vn 0.000000 0.004829 0.999988
vn 0.000000 0.004829 0.999988
vn -0.000378 0.000515 1.000000
vn -0.001255 0.000000 0.999999
vn 0.001793 0.001791 0.999997
vn 0.001793 0.001791 0.999997
vn 0.000000 0.001787 -0.999998
vn 0.000000 0.001787 -0.999998
vn 0.000000 0.004813 -0.999988
vn 0.000000 0.004813 -0.999988
vn 0.001785 0.000000 -0.999999
vn 0.001785 0.000000 -0.999998
vn -0.001241 0.000000 -0.999999
vn -0.001241 0.000000 -0.999999
vn 0.000000 -0.000357 -1.000000
vn 0.000000 -0.000357 -1.000000
vn 0.001790 0.001787 -0.999997
vn 0.001790 0.001787 -0.999997
vn 0.001790 0.001787 -0.999997
vn 0.001790 0.001787 -0.999997
vn 0.004811 0.000000 -0.999988
vn 0.004811 0.000000 -0.999988
vn -0.001793 0.001787 -0.999997
vn -0.001793 0.001787 -0.999997
vn -0.001793 0.001787 -0.999997
vn -0.001793 0.001787 -0.999997
vn 0.001793 -0.001787 -0.999997
vn 0.001793 -0.001787 -0.999997
vn 0.001793 -0.001787 -0.999997
vn 0.001793 -0.001787 -0.999997
vn 0.000000 0.000357 -1.000000
vn 0.000000 0.000357 -1.000000
vn 0.000000 -0.001787 -0.999998
vn 0.000000 -0.001787 -0.999998
vn -0.004820 0.000000 -0.999988
vn -0.001787 0.000000 -0.999998
vn -0.001788 -0.000300 -0.999998
vn -0.004820 0.000000 -0.999988
vn 0.000000 -0.004813 -0.999988
vn 0.000000 -0.004813 -0.999988
vn 0.001245 0.000000 -0.999999
vn 0.000371 -0.000514 -1.000000
vn -0.001793 -0.001787 -0.999997
vn -0.001793 -0.001787 -0.999997
vn -1.000000 0.000000 0.000000
vn -1.000000 0.000000 0.000000
vn -1.000000 0.000000 0.000000
vn -1.000000 0.000000 0.000000
vn 0.000000 -1.000000 -0.000000
vn 0.000000 -1.000000 -0.000000
vn 0.000000 -1.000000 -0.000000
vn 0.000000 -1.000000 -0.000000
vn 1.000000 -0.000129 0.000004
vn 1.000000 -0.000129 0.000004
vn 1.000000 -0.000129 0.000004
vn 1.000000 -0.000129 0.000004
vn -0.000032 1.000000 0.000000
vn -0.000032 1.000000 0.000000
vn -0.000032 1.000000 0.000000
vn -0.000032 1.000000 0.000000
vn -1.000000 0.000000 -0.000008
vn -1.000000 0.000000 -0.000008
vn -1.000000 0.000000 -0.000008
vn -1.000000 0.000000 -0.000008
vn 0.000000 -1.000000 0.000000
vn 0.000000 -1.000000 0.000000
vn 0.000000 -1.000000 0.000000
vn 0.000000 -1.000000 0.000000
vn 1.000000 0.000000 0.000008
vn 1.000000 0.000000 0.000008
vn 1.000000 0.000000 0.000008
vn 1.000000 0.000000 0.000008
vn 0.000000 1.000000 0.000000
vn 0.000000 1.000000 0.000000
vn 0.000000 1.000000 0.000000
vn 0.000000 1.000000 0.000000
vn 0.000000 -1.000000 0.000000
vn 0.000000 -1.000000 0.000000
vn 0.000000 -1.000000 0.000000
vn 0.000000 -1.000000 0.000000
vn 1.000000 0.000129 0.000004
vn 1.000000 0.000129 0.000004
vn 1.000000 0.000129 0.000004
vn 1.000000 0.000129 0.000004
vn 0.000000 1.000000 -0.000000
vn 0.000000 1.000000 -0.000000
vn 0.000000 1.000000 -0.000000
vn 0.000000 1.000000 -0.000000
vn -1.000000 0.000000 0.000000
vn -1.000000 0.000000 0.000000
vn -1.000000 0.000000 0.000000
vn -1.000000 0.000000 0.000000
vn 0.000000 1.000000 0.000000
vn 0.000000 1.000000 0.000000
vn 0.000000 1.000000 0.000000
vn 0.000000 1.000000 0.000000
vn 1.000000 0.000129 0.000004
vn 1.000000 0.000129 0.000004
vn 1.000000 0.000129 0.000004
vn 1.000000 0.000129 0.000004
vn 0.000000 1.000000 -0.000000
vn 0.000000 1.000000 -0.000000
vn 0.000000 1.000000 -0.000000
vn 0.000000 1.000000 -0.000000
vn -1.000000 -0.000126 -0.000004
vn -1.000000 -0.000126 -0.000004
vn -1.000000 -0.000126 -0.000004
vn -1.000000 -0.000126 -0.000004
vn -1.000000 0.000129 -0.000004
vn -1.000000 0.000129 -0.000004
vn -1.000000 0.000129 -0.000004
vn -1.000000 0.000129 -0.000004
vn 0.000000 -1.000000 0.000000
vn 0.000000 -1.000000 0.000000
vn 0.000000 -1.000000 0.000000
vn 0.000000 -1.000000 0.000000
vn 0.000000 -1.000000 0.000000
vn 0.000000 -1.000000 0.000000
vn 0.000000 -1.000000 0.000000
vn 0.000000 -1.000000 0.000000
vn 1.000000 -0.000129 0.000004
vn 1.000000 -0.000129 0.000004
vn 1.000000 -0.000129 0.000004
vn 1.000000 -0.000129 0.000004
s 1
usemtl lambert27SG
f 26/1/1 25/39/2 27/40/3 28/2/4
s 2
f 29/3/5 31/5/6 32/6/7 30/4/8
s 1
f 31/5/9 26/1/1 28/2/4 33/7/10
s off
f 31/5/11 29/3/12 34/8/13 26/1/14
s 2
f 30/42/8 35/43/15 36/44/16 29/41/5
s off
f 33/7/17 28/2/18 37/45/19 38/9/20
f 30/4/21 32/6/22 39/10/23 40/46/24
s 1
f 33/7/10 41/11/25 32/6/26 31/5/9
f 32/6/26 41/11/25 42/12/27 39/10/28
s 3
f 44/47/29 43/48/30 45/13/31 38/9/32
s 1
f 39/10/28 42/12/27 46/49/33 47/50/34
s 3
f 38/9/32 45/13/31 41/11/35 33/7/36
f 42/12/37 41/11/35 45/13/31 48/14/38
s 4
f 5/15/39 11/18/40 9/17/41 2/16/42
s 5
f 4/19/43 16/20/44 15/22/45 3/21/46
s 4
f 3/21/47 10/23/48 11/18/40 5/15/39
s off
f 3/21/49 5/15/50 6/24/51 4/19/52
s 5
f 16/20/44 4/19/43 1/26/53 13/25/54
s off
f 10/23/55 8/28/56 12/27/57 11/18/58
f 16/20/59 18/30/60 17/29/61 15/22/62
s 4
f 10/23/48 3/21/47 15/22/63 21/31/64
f 15/22/63 17/29/65 23/32/66 21/31/64
s 6
f 7/33/67 8/28/68 22/35/69 19/34/70
s 4
f 17/29/65 14/37/71 20/36/72 23/32/66
s 6
f 8/28/68 10/23/73 21/31/74 22/35/69
f 23/32/75 24/38/76 22/35/69 21/31/74
s off
f 5/51/77 2/52/78 25/53/79 26/54/80
f 2/75/81 9/76/82 27/77/83 25/78/84
f 9/55/85 11/56/86 28/57/87 27/58/88
f 16/79/89 13/80/90 35/81/91 30/82/92
f 13/59/93 1/60/94 36/61/95 35/62/96
f 1/83/97 4/84/98 29/85/99 36/86/100
f 7/63/101 19/64/102 43/65/103 44/66/104
f 19/87/105 22/88/106 45/89/107 43/90/108
f 8/91/109 7/92/110 44/93/111 38/94/112
f 23/67/113 20/68/114 46/69/115 42/70/116
f 20/95/117 14/96/118 47/97/119 46/98/120
f 14/71/121 17/72/122 39/73/123 47/74/124
f 42/99/125 48/100/126 24/101/127 23/102/128
f 48/103/129 45/104/130 22/105/131 24/106/132
f 17/107/133 18/108/134 40/109/135 39/110/136
f 40/111/137 18/112/138 16/113/139 30/114/140
f 34/115/141 29/116/142 4/117/143 6/118/144
f 6/119/145 5/120/146 26/121/147 34/122/148
f 11/123/149 12/124/150 37/125/151 28/126/152
f 37/127/153 12/128/154 8/129/155 38/130/156
