# This file uses centimeters as units for non-parametric coordinates.

v 0.062500 0.100010 0.676522
v 0.562500 0.100010 0.676522
v 0.062500 0.699960 0.676522
v 0.562500 0.699960 0.676522
v 0.062500 0.699960 0.176522
v 0.562500 0.699960 0.176522
v 0.062500 0.100010 0.176522
v 0.562500 0.100010 0.176522
v 0.562500 0.633299 0.676522
v 0.062500 0.633299 0.676522
v 0.062500 0.633299 0.176522
v 0.562500 0.633299 0.176522
v 0.562500 0.566638 0.676522
v 0.062500 0.566638 0.676522
v 0.062500 0.566638 0.176522
v 0.562500 0.566638 0.176522
v 0.562500 0.499976 0.676522
v 0.062500 0.499976 0.676522
v 0.062500 0.499976 0.176522
v 0.562500 0.499976 0.176522
v 0.562500 0.433315 0.676522
v 0.062500 0.433315 0.676522
v 0.062500 0.433315 0.176522
v 0.562500 0.433315 0.176522
v 0.562500 0.366654 0.676522
v 0.062500 0.366654 0.676522
v 0.062500 0.366654 0.176522
v 0.562500 0.366654 0.176522
v 0.562500 0.299993 0.676522
v 0.062500 0.299993 0.676522
v 0.062500 0.299993 0.176522
v 0.562500 0.299993 0.176522
v 0.562500 0.233332 0.676522
v 0.062500 0.233332 0.676522
v 0.062500 0.233332 0.176522
v 0.562500 0.233332 0.176522
v 0.562500 0.166671 0.676522
v 0.062500 0.166671 0.676522
v 0.062500 0.166671 0.176522
v 0.562500 0.166671 0.176522
v 0.539485 0.666629 0.199537
v 0.085515 0.666629 0.199537
v 0.085515 0.666629 0.653507
v 0.539485 0.666629 0.653507
v 0.539485 0.599968 0.199537
v 0.085515 0.599968 0.199537
v 0.085515 0.599968 0.653507
v 0.539485 0.599968 0.653507
v 0.539485 0.533307 0.199537
v 0.085515 0.533307 0.199537
v 0.085515 0.533307 0.653507
v 0.539485 0.533307 0.653507
v 0.539485 0.466646 0.199537
v 0.085515 0.466646 0.199537
v 0.085515 0.466646 0.653507
v 0.539485 0.466646 0.653507
v 0.539485 0.399985 0.199537
v 0.085515 0.399985 0.199537
v 0.085515 0.399985 0.653507
v 0.539485 0.399985 0.653507
v 0.539485 0.333324 0.199537
v 0.085515 0.333324 0.199537
v 0.085515 0.333324 0.653507
v 0.539485 0.333324 0.653507
v 0.539485 0.266663 0.199537
v 0.085515 0.266663 0.199537
v 0.085515 0.266663 0.653507
v 0.539485 0.266663 0.653507
v 0.539485 0.200001 0.199537
v 0.085515 0.200001 0.199537
v 0.085515 0.200001 0.653507
v 0.539485 0.200001 0.653507
v 0.539485 0.133340 0.199537
v 0.085515 0.133340 0.199537
v 0.085515 0.133340 0.653507
v 0.539485 0.133340 0.653507
v 0.062500 0.076935 0.176522
v 0.562500 0.076935 0.176522
v 0.562500 0.076935 0.676522
v 0.062500 0.076935 0.676522
v 0.062500 0.723035 0.676522
v 0.562500 0.723035 0.676522
v 0.562500 0.723035 0.176522
v 0.062500 0.723035 0.176522
v 0.208319 0.723035 0.322341
v 0.416681 0.723035 0.322341
v 0.208319 0.723035 0.530703
v 0.416681 0.723035 0.530703
vt 0.384639 0.023333
vt 0.622972 0.023333
vt 0.384639 0.261667
vt 0.622972 0.261667
vt 0.384639 0.500000
vt 0.622972 0.500000
vt 0.384639 0.738333
vt 0.622972 0.738333
vt 0.384639 0.976667
vt 0.622972 0.976667
vt 0.861306 0.023333
vt 0.861306 0.261667
vt 0.146306 0.023333
vt 0.146306 0.261667
vt 0.622972 0.235185
vt 0.384639 0.235185
vt 0.146306 0.235185
vt 0.384639 0.526482
vt 0.622972 0.526482
vt 0.861306 0.235185
vt 0.622972 0.208704
vt 0.384639 0.208704
vt 0.146306 0.208704
vt 0.384639 0.552963
vt 0.622972 0.552963
vt 0.861306 0.208704
vt 0.622972 0.182222
vt 0.384639 0.182222
vt 0.146306 0.182222
vt 0.384639 0.579444
vt 0.622972 0.579444
vt 0.861306 0.182222
vt 0.622972 0.155741
vt 0.384639 0.155741
vt 0.146306 0.155741
vt 0.384639 0.605926
vt 0.622972 0.605926
vt 0.861306 0.155741
vt 0.622972 0.129259
vt 0.384639 0.129259
vt 0.146306 0.129259
vt 0.384639 0.632407
vt 0.622972 0.632407
vt 0.861306 0.129259
vt 0.622972 0.102778
vt 0.384639 0.102778
vt 0.146306 0.102778
vt 0.384639 0.658889
vt 0.622972 0.658889
vt 0.861306 0.102778
vt 0.622972 0.076296
vt 0.384639 0.076296
vt 0.146306 0.076296
vt 0.384639 0.685370
vt 0.622972 0.685370
vt 0.861306 0.076296
vt 0.622972 0.049815
vt 0.384639 0.049815
vt 0.146306 0.049815
vt 0.384639 0.711852
vt 0.622972 0.711852
vt 0.861306 0.049815
vt 0.622972 0.513241
vt 0.861306 0.248426
vt 0.146306 0.248426
vt 0.384639 0.513241
vt 0.384639 0.248426
vt 0.622972 0.248426
vt 0.622972 0.539722
vt 0.861306 0.221944
vt 0.146306 0.221944
vt 0.384639 0.539722
vt 0.384639 0.221944
vt 0.622972 0.221944
vt 0.622972 0.566204
vt 0.861306 0.195463
vt 0.146306 0.195463
vt 0.384639 0.566204
vt 0.384639 0.195463
vt 0.622972 0.195463
vt 0.622972 0.592685
vt 0.861306 0.168981
vt 0.146306 0.168981
vt 0.384639 0.592685
vt 0.384639 0.168981
vt 0.622972 0.168981
vt 0.622972 0.619167
vt 0.861306 0.142500
vt 0.146306 0.142500
vt 0.384639 0.619167
vt 0.384639 0.142500
vt 0.622972 0.142500
vt 0.622972 0.645648
vt 0.861306 0.116019
vt 0.146306 0.116019
vt 0.384639 0.645648
vt 0.384639 0.116019
vt 0.622972 0.116019
vt 0.622972 0.672130
vt 0.861306 0.089537
vt 0.146306 0.089537
vt 0.384639 0.672130
vt 0.384639 0.089537
vt 0.622972 0.089537
vt 0.622972 0.698611
vt 0.861306 0.063056
vt 0.146306 0.063056
vt 0.384639 0.698611
vt 0.384639 0.063056
vt 0.622972 0.063056
vt 0.622972 0.725093
vt 0.861306 0.036574
vt 0.146306 0.036574
vt 0.384639 0.725093
vt 0.384639 0.036574
vt 0.622972 0.036574
vt 0.384639 0.738333
vt 0.622972 0.738333
vt 0.622972 0.976667
vt 0.384639 0.976667
vt 0.384639 0.261667
vt 0.622972 0.261667
vt 0.622972 0.500000
vt 0.384639 0.500000
vt 0.622972 0.500000
vt 0.384639 0.500000
vt 0.384639 0.261667
vt 0.622972 0.261667
vn 0.000000 -0.568207 0.822886
vn 0.000000 -0.568207 0.822886
vn 0.000000 -0.568207 0.822886
vn 0.000000 -0.568207 0.822886
vn 0.000000 -0.568206 -0.822886
vn 0.000000 -0.568206 -0.822886
vn 0.000000 -0.568206 -0.822886
vn 0.000000 -0.568206 -0.822886
vn 0.000000 -1.000000 0.000000
vn 0.000000 -1.000000 0.000000
vn 0.000000 -1.000000 0.000000
vn 0.000000 -1.000000 0.000000
vn 0.822885 -0.568208 -0.000000
vn 0.822885 -0.568208 -0.000000
vn 0.822885 -0.568208 -0.000000
vn 0.822885 -0.568208 -0.000000
vn -0.822884 -0.568209 -0.000000
vn -0.822885 -0.568209 -0.000000
vn -0.822884 -0.568209 -0.000000
vn -0.822885 -0.568209 -0.000000
vn 0.000000 -0.568210 0.822884
vn 0.000000 -0.568210 0.822884
vn 0.000000 -0.568210 0.822884
vn 0.000000 -0.568210 0.822884
vn -0.822884 -0.568210 -0.000000
vn -0.822884 -0.568210 -0.000000
vn -0.822884 -0.568210 -0.000000
vn -0.822884 -0.568210 -0.000000
vn 0.000000 -0.568206 -0.822887
vn 0.000000 -0.568206 -0.822887
vn 0.000000 -0.568206 -0.822887
vn 0.000000 -0.568206 -0.822887
vn 0.822884 -0.568209 -0.000000
vn 0.822884 -0.568209 -0.000000
vn 0.822884 -0.568209 -0.000000
vn 0.822884 -0.568209 -0.000000
vn 0.000000 -0.568203 0.822889
vn 0.000000 -0.568203 0.822889
vn 0.000000 -0.568203 0.822889
vn 0.000000 -0.568203 0.822889
vn -0.822887 -0.568204 -0.000000
vn -0.822887 -0.568205 -0.000000
vn -0.822887 -0.568205 -0.000000
vn -0.822887 -0.568205 -0.000000
vn 0.000000 -0.568202 -0.822889
vn 0.000000 -0.568202 -0.822889
vn 0.000000 -0.568202 -0.822889
vn 0.000000 -0.568202 -0.822889
vn 0.822888 -0.568204 -0.000000
vn 0.822888 -0.568204 -0.000000
vn 0.822888 -0.568204 -0.000000
vn 0.822888 -0.568204 -0.000000
vn 0.000000 -0.568206 0.822887
vn 0.000000 -0.568206 0.822887
vn 0.000000 -0.568206 0.822887
vn 0.000000 -0.568206 0.822887
vn -0.822885 -0.568208 -0.000000
vn -0.822885 -0.568208 -0.000000
vn -0.822885 -0.568208 -0.000000
vn -0.822885 -0.568208 -0.000000
vn 0.000000 -0.568206 -0.822886
vn 0.000000 -0.568206 -0.822886
vn 0.000000 -0.568206 -0.822886
vn 0.000000 -0.568206 -0.822886
vn 0.822886 -0.568207 -0.000000
vn 0.822886 -0.568207 -0.000000
vn 0.822886 -0.568207 -0.000000
vn 0.822886 -0.568207 -0.000000
vn 0.000000 -0.568208 0.822885
vn 0.000000 -0.568208 0.822885
vn 0.000000 -0.568208 0.822885
vn 0.000000 -0.568208 0.822885
vn -0.822884 -0.568210 -0.000000
vn -0.822884 -0.568210 -0.000000
vn -0.822884 -0.568210 -0.000000
vn -0.822884 -0.568210 -0.000000
vn 0.000000 -0.568207 -0.822885
vn 0.000000 -0.568207 -0.822885
vn 0.000000 -0.568207 -0.822885
vn 0.000000 -0.568207 -0.822885
vn 0.822884 -0.568209 -0.000000
vn 0.822884 -0.568209 -0.000000
vn 0.822884 -0.568209 -0.000000
vn 0.822884 -0.568209 -0.000000
vn 0.000000 -0.568206 0.822886
vn 0.000000 -0.568206 0.822886
vn 0.000000 -0.568206 0.822886
vn 0.000000 -0.568206 0.822886
vn -0.822884 -0.568209 -0.000000
vn -0.822884 -0.568209 -0.000000
vn -0.822884 -0.568209 -0.000000
vn -0.822884 -0.568209 -0.000000
vn 0.000000 -0.568207 -0.822886
vn 0.000000 -0.568207 -0.822886
vn 0.000000 -0.568207 -0.822886
vn 0.000000 -0.568207 -0.822886
vn 0.822885 -0.568208 -0.000000
vn 0.822885 -0.568208 -0.000000
vn 0.822885 -0.568208 -0.000000
vn 0.822885 -0.568208 -0.000000
vn 0.000000 -0.568207 0.822886
vn 0.000000 -0.568207 0.822886
vn 0.000000 -0.568207 0.822886
vn 0.000000 -0.568207 0.822886
vn -0.822885 -0.568209 -0.000000
vn -0.822885 -0.568209 -0.000000
vn -0.822885 -0.568209 -0.000000
vn -0.822885 -0.568209 -0.000000
vn 0.000000 -0.568206 -0.822886
vn 0.000000 -0.568206 -0.822886
vn 0.000000 -0.568206 -0.822886
vn 0.000000 -0.568206 -0.822886
vn 0.822885 -0.568208 -0.000000
vn 0.822885 -0.568208 -0.000000
vn 0.822885 -0.568208 -0.000000
vn 0.822885 -0.568208 -0.000000
vn 0.000000 -0.568206 0.822886
vn 0.000000 -0.568206 0.822886
vn 0.000000 -0.568206 0.822886
vn 0.000000 -0.568206 0.822886
vn -0.822885 -0.568208 -0.000000
vn -0.822885 -0.568208 -0.000000
vn -0.822885 -0.568208 -0.000000
vn -0.822885 -0.568208 -0.000000
vn 0.000000 -0.568206 -0.822887
vn 0.000000 -0.568206 -0.822887
vn 0.000000 -0.568206 -0.822887
vn 0.000000 -0.568206 -0.822887
vn 0.822886 -0.568207 -0.000000
vn 0.822886 -0.568207 -0.000000
vn 0.822886 -0.568207 -0.000000
vn 0.822886 -0.568207 -0.000000
vn 0.000000 -0.568207 0.822886
vn 0.000000 -0.568207 0.822886
vn 0.000000 -0.568207 0.822886
vn 0.000000 -0.568207 0.822886
vn -0.822884 -0.568209 -0.000000
vn -0.822885 -0.568209 -0.000000
vn -0.822884 -0.568209 -0.000000
vn -0.822885 -0.568209 -0.000000
vn 0.000000 -0.568206 -0.822886
vn 0.000000 -0.568206 -0.822886
vn 0.000000 -0.568206 -0.822886
vn 0.000000 -0.568206 -0.822886
vn 0.822885 -0.568208 -0.000000
vn 0.822885 -0.568208 -0.000000
vn 0.822885 -0.568208 -0.000000
vn 0.822885 -0.568208 -0.000000
vn 0.000000 0.568211 -0.822883
vn 0.000000 0.568211 -0.822883
vn 0.000000 0.568211 -0.822883
vn 0.000000 0.568211 -0.822883
vn -0.822883 0.568212 -0.000000
vn -0.822882 0.568212 -0.000000
vn -0.822882 0.568212 -0.000000
vn -0.822882 0.568212 -0.000000
vn 0.000000 0.568207 0.822886
vn 0.000000 0.568207 0.822886
vn 0.000000 0.568207 0.822886
vn 0.000000 0.568207 0.822886
vn 0.822883 0.568211 -0.000000
vn 0.822883 0.568211 -0.000000
vn 0.822883 0.568211 -0.000000
vn 0.822883 0.568211 -0.000000
vn 0.000000 0.568209 -0.822884
vn 0.000000 0.568209 -0.822884
vn 0.000000 0.568209 -0.822884
vn 0.000000 0.568209 -0.822884
vn -0.822883 0.568211 -0.000000
vn -0.822883 0.568211 -0.000000
vn -0.822883 0.568211 -0.000000
vn -0.822883 0.568211 -0.000000
vn 0.000000 0.568209 0.822885
vn 0.000000 0.568209 0.822885
vn 0.000000 0.568209 0.822885
vn 0.000000 0.568209 0.822885
vn 0.822883 0.568211 -0.000000
vn 0.822883 0.568211 -0.000000
vn 0.822883 0.568211 -0.000000
vn 0.822883 0.568211 -0.000000
vn 0.000000 0.568205 -0.822887
vn 0.000000 0.568205 -0.822887
vn 0.000000 0.568205 -0.822887
vn 0.000000 0.568205 -0.822887
vn -0.822885 0.568208 -0.000000
vn -0.822885 0.568208 -0.000000
vn -0.822885 0.568208 -0.000000
vn -0.822885 0.568208 -0.000000
vn 0.000000 0.568206 0.822887
vn 0.000000 0.568206 0.822887
vn 0.000000 0.568206 0.822887
vn 0.000000 0.568206 0.822887
vn 0.822886 0.568207 -0.000000
vn 0.822886 0.568207 -0.000000
vn 0.822886 0.568207 -0.000000
vn 0.822886 0.568207 -0.000000
vn 0.000000 0.568205 -0.822887
vn 0.000000 0.568205 -0.822887
vn 0.000000 0.568205 -0.822887
vn 0.000000 0.568205 -0.822887
vn -0.822885 0.568208 -0.000000
vn -0.822885 0.568208 -0.000000
vn -0.822885 0.568208 -0.000000
vn -0.822885 0.568208 -0.000000
vn 0.000000 0.568206 0.822887
vn 0.000000 0.568206 0.822887
vn 0.000000 0.568206 0.822887
vn 0.000000 0.568206 0.822887
vn 0.822886 0.568207 -0.000000
vn 0.822886 0.568207 -0.000000
vn 0.822886 0.568207 -0.000000
vn 0.822886 0.568207 -0.000000
vn 0.000000 0.568205 -0.822887
vn 0.000000 0.568205 -0.822887
vn 0.000000 0.568205 -0.822887
vn 0.000000 0.568205 -0.822887
vn -0.822885 0.568209 -0.000000
vn -0.822885 0.568209 -0.000000
vn -0.822885 0.568209 -0.000000
vn -0.822884 0.568209 -0.000000
vn 0.000000 0.568207 0.822885
vn 0.000000 0.568208 0.822885
vn 0.000000 0.568207 0.822885
vn 0.000000 0.568207 0.822885
vn 0.822885 0.568208 -0.000000
vn 0.822885 0.568208 -0.000000
vn 0.822885 0.568208 -0.000000
vn 0.822885 0.568208 -0.000000
vn 0.000000 0.568207 -0.822886
vn 0.000000 0.568207 -0.822886
vn 0.000000 0.568207 -0.822886
vn 0.000000 0.568207 -0.822886
vn -0.822884 0.568210 -0.000000
vn -0.822884 0.568210 -0.000000
vn -0.822884 0.568210 -0.000000
vn -0.822884 0.568210 -0.000000
vn 0.000000 0.568207 0.822885
vn 0.000000 0.568208 0.822885
vn 0.000000 0.568207 0.822885
vn 0.000000 0.568207 0.822885
vn 0.822884 0.568209 -0.000000
vn 0.822884 0.568209 -0.000000
vn 0.822884 0.568209 -0.000000
vn 0.822884 0.568209 -0.000000
vn 0.000000 0.568205 -0.822887
vn 0.000000 0.568205 -0.822887
vn 0.000000 0.568205 -0.822887
vn 0.000000 0.568205 -0.822887
vn -0.822885 0.568208 -0.000000
vn -0.822885 0.568208 -0.000000
vn -0.822885 0.568208 -0.000000
vn -0.822885 0.568208 -0.000000
vn 0.000000 0.568206 0.822887
vn 0.000000 0.568205 0.822887
vn 0.000000 0.568205 0.822887
vn 0.000000 0.568205 0.822887
vn 0.822886 0.568207 -0.000000
vn 0.822886 0.568207 -0.000000
vn 0.822886 0.568207 -0.000000
vn 0.822886 0.568207 -0.000000
vn 0.000000 0.568206 -0.822886
vn 0.000000 0.568206 -0.822886
vn 0.000000 0.568206 -0.822886
vn 0.000000 0.568206 -0.822886
vn -0.822885 0.568209 -0.000000
vn -0.822885 0.568209 -0.000000
vn -0.822885 0.568209 -0.000000
vn -0.822885 0.568209 -0.000000
vn 0.000000 0.568206 0.822886
vn 0.000000 0.568206 0.822886
vn 0.000000 0.568206 0.822886
vn 0.000000 0.568206 0.822886
vn 0.822885 0.568208 -0.000000
vn 0.822885 0.568208 -0.000000
vn 0.822885 0.568208 -0.000000
vn 0.822885 0.568208 -0.000000
vn 0.000000 0.568206 -0.822886
vn 0.000000 0.568206 -0.822886
vn 0.000000 0.568206 -0.822886
vn 0.000000 0.568206 -0.822886
vn -0.822885 0.568209 -0.000000
vn -0.822885 0.568209 -0.000000
vn -0.822885 0.568209 -0.000000
vn -0.822885 0.568209 -0.000000
vn 0.000000 0.568207 0.822886
vn 0.000000 0.568207 0.822886
vn 0.000000 0.568207 0.822886
vn 0.000000 0.568207 0.822886
vn 0.822885 0.568208 -0.000000
vn 0.822885 0.568208 -0.000000
vn 0.822885 0.568208 -0.000000
vn 0.822885 0.568208 -0.000000
vn 0.000000 0.000000 -1.000000
vn 0.000000 0.000000 -1.000000
vn 0.000000 0.000000 -1.000000
vn 0.000000 0.000000 -1.000000
vn 1.000000 0.000000 0.000000
vn 1.000000 0.000000 0.000000
vn 1.000000 0.000000 0.000000
vn 1.000000 0.000000 0.000000
vn 0.000000 0.000000 1.000000
vn 0.000000 0.000000 1.000000
vn 0.000000 0.000000 1.000000
vn 0.000000 0.000000 1.000000
vn -1.000000 0.000000 0.000000
vn -1.000000 0.000000 0.000000
vn -1.000000 0.000000 0.000000
vn -1.000000 0.000000 0.000000
vn 0.000000 0.000000 1.000000
vn 0.000000 0.000000 1.000000
vn 0.000000 0.000000 1.000000
vn 0.000000 0.000000 1.000000
vn 1.000000 0.000000 0.000000
vn 1.000000 0.000000 0.000000
vn 1.000000 0.000000 0.000000
vn 1.000000 0.000000 0.000000
vn 0.000000 0.000000 -1.000000
vn 0.000000 0.000000 -1.000000
vn 0.000000 0.000000 -1.000000
vn 0.000000 0.000000 -1.000000
vn -1.000000 0.000000 0.000000
vn -1.000000 0.000000 0.000000
vn -1.000000 0.000000 0.000000
vn -1.000000 0.000000 0.000000
vn 0.000000 1.000000 -0.000000
vn 0.000000 1.000000 -0.000000
vn 0.000000 1.000000 -0.000000
vn 0.000000 1.000000 -0.000000
vn 0.000000 1.000000 0.000000
vn 0.000000 1.000000 0.000000
vn 0.000000 1.000000 0.000000
vn 0.000000 1.000000 0.000000
s off
f 38/58/1 75/115/2 76/116/3 37/57/4
f 74/114/5 39/60/6 40/61/7 73/111/8
f 80/120/9 77/117/10 78/118/11 79/119/12
f 37/57/13 76/116/14 73/112/15 40/62/16
f 75/115/17 38/58/18 39/59/19 74/113/20
f 3/3/21 43/67/22 44/68/23 4/4/24
f 43/67/25 3/3/26 5/14/27 42/65/28
f 42/66/29 5/5/30 6/6/31 41/63/32
f 4/4/33 44/68/34 41/64/35 6/12/36
f 10/16/37 47/73/38 48/74/39 9/15/40
f 47/73/41 10/16/42 11/17/43 46/71/44
f 46/72/45 11/18/46 12/19/47 45/69/48
f 9/15/49 48/74/50 45/70/51 12/20/52
f 14/22/53 51/79/54 52/80/55 13/21/56
f 51/79/57 14/22/58 15/23/59 50/77/60
f 50/78/61 15/24/62 16/25/63 49/75/64
f 13/21/65 52/80/66 49/76/67 16/26/68
f 18/28/69 55/85/70 56/86/71 17/27/72
f 55/85/73 18/28/74 19/29/75 54/83/76
f 54/84/77 19/30/78 20/31/79 53/81/80
f 17/27/81 56/86/82 53/82/83 20/32/84
f 22/34/85 59/91/86 60/92/87 21/33/88
f 59/91/89 22/34/90 23/35/91 58/89/92
f 58/90/93 23/36/94 24/37/95 57/87/96
f 21/33/97 60/92/98 57/88/99 24/38/100
f 26/40/101 63/97/102 64/98/103 25/39/104
f 63/97/105 26/40/106 27/41/107 62/95/108
f 62/96/109 27/42/110 28/43/111 61/93/112
f 25/39/113 64/98/114 61/94/115 28/44/116
f 30/46/117 67/103/118 68/104/119 29/45/120
f 67/103/121 30/46/122 31/47/123 66/101/124
f 66/102/125 31/48/126 32/49/127 65/99/128
f 29/45/129 68/104/130 65/100/131 32/50/132
f 34/52/133 71/109/134 72/110/135 33/51/136
f 71/109/137 34/52/138 35/53/139 70/107/140
f 70/108/141 35/54/142 36/55/143 69/105/144
f 33/51/145 72/110/146 69/106/147 36/56/148
f 11/18/149 42/66/150 41/63/151 12/19/152
f 10/16/153 43/67/154 42/65/155 11/17/156
f 43/67/157 10/16/158 9/15/159 44/68/160
f 44/68/161 9/15/162 12/20/163 41/64/164
f 15/24/165 46/72/166 45/69/167 16/25/168
f 14/22/169 47/73/170 46/71/171 15/23/172
f 47/73/173 14/22/174 13/21/175 48/74/176
f 48/74/177 13/21/178 16/26/179 45/70/180
f 19/30/181 50/78/182 49/75/183 20/31/184
f 18/28/185 51/79/186 50/77/187 19/29/188
f 51/79/189 18/28/190 17/27/191 52/80/192
f 52/80/193 17/27/194 20/32/195 49/76/196
f 23/36/197 54/84/198 53/81/199 24/37/200
f 22/34/201 55/85/202 54/83/203 23/35/204
f 55/85/205 22/34/206 21/33/207 56/86/208
f 56/86/209 21/33/210 24/38/211 53/82/212
f 27/42/213 58/90/214 57/87/215 28/43/216
f 26/40/217 59/91/218 58/89/219 27/41/220
f 59/91/221 26/40/222 25/39/223 60/92/224
f 60/92/225 25/39/226 28/44/227 57/88/228
f 31/48/229 62/96/230 61/93/231 32/49/232
f 30/46/233 63/97/234 62/95/235 31/47/236
f 63/97/237 30/46/238 29/45/239 64/98/240
f 64/98/241 29/45/242 32/50/243 61/94/244
f 35/54/245 66/102/246 65/99/247 36/55/248
f 34/52/249 67/103/250 66/101/251 35/53/252
f 67/103/253 34/52/254 33/51/255 68/104/256
f 68/104/257 33/51/258 36/56/259 65/100/260
f 39/60/261 70/108/262 69/105/263 40/61/264
f 38/58/265 71/109/266 70/107/267 39/59/268
f 71/109/269 38/58/270 37/57/271 72/110/272
f 72/110/273 37/57/274 40/62/275 69/106/276
f 7/7/277 74/114/278 73/111/279 8/8/280
f 1/1/281 75/115/282 74/113/283 7/13/284
f 75/115/285 1/1/286 2/2/287 76/116/288
f 76/116/289 2/2/290 8/11/291 73/112/292
f 77/117/293 7/7/294 8/8/295 78/118/296
f 2/10/297 79/119/298 78/118/299 8/8/300
f 1/9/301 80/120/302 79/119/303 2/10/304
f 80/120/305 1/9/306 7/7/307 77/117/308
f 81/121/309 3/3/310 4/4/311 82/122/312
f 83/123/313 82/122/314 4/4/315 6/6/316
f 5/5/317 84/124/318 83/123/319 6/6/320
f 3/3/321 81/121/322 84/124/323 5/5/324
s 1
f 83/123/325 84/124/326 85/126/327 86/125/328
f 84/124/326 81/121/329 87/127/330 85/126/327
f 81/121/329 82/122/331 88/128/332 87/127/330
f 82/122/331 83/123/325 86/125/328 88/128/332
