# This file uses centimeters as units for non-parametric coordinates.

mtllib gearbox_geo.mtl
v 0.147434 0.000000 0.852566
v 0.852566 0.000000 0.852566
v 0.147434 0.691307 0.852566
v 0.852566 0.691307 0.852566
v 0.147434 0.691307 0.147434
v 0.852566 0.691307 0.147434
v 0.147434 0.000000 0.147434
v 0.852566 0.000000 0.147434
v 0.178905 0.691307 0.813285
v 0.821095 0.691307 0.813285
v 0.821095 0.691307 0.186715
v 0.178905 0.691307 0.186715
v 0.178905 0.682075 0.813285
v 0.821095 0.682075 0.813285
v 0.821095 0.682075 0.186715
v 0.178905 0.682075 0.186715
v 0.190535 0.682075 0.722268
v 0.809465 0.682075 0.722268
v 0.809465 0.682075 0.587004
v 0.190535 0.682075 0.587004
v 0.190535 0.286818 0.722268
v 0.809465 0.286818 0.722268
v 0.809465 0.286818 0.587004
v 0.190535 0.286818 0.587004
v 0.170164 0.286818 0.147434
v 0.829836 0.286818 0.147434
v 0.829836 0.083623 0.147434
v 0.170164 0.083623 0.147434
v 0.170164 0.286818 0.510766
v 0.829836 0.286818 0.510766
v 0.829836 0.083623 0.510766
v 0.170164 0.083623 0.510766
v 0.170164 0.083623 0.852566
v 0.829836 0.083623 0.852566
v 0.829836 0.286818 0.852566
v 0.170164 0.286818 0.852566
v 0.147434 0.426463 0.425466
v 0.147434 0.426463 0.574534
v 0.147434 0.575531 0.574534
v 0.147434 0.575531 0.425466
v 0.852566 0.426463 0.425466
v 0.852566 0.426463 0.574534
v 0.852566 0.575531 0.574534
v 0.852566 0.575531 0.425466
v 0.424513 0.575531 0.147434
v 0.575488 0.575531 0.147434
v 0.575488 0.426463 0.147434
v 0.424512 0.426463 0.147434
v 0.424512 0.575531 0.852566
v 0.575487 0.575531 0.852566
v 0.424512 0.426463 0.852566
v 0.575488 0.426463 0.852566
v 0.424513 0.575531 0.340974
v 0.575488 0.575531 0.340974
v 0.575488 0.426463 0.340974
v 0.424512 0.426463 0.340974
v 0.424512 0.575531 0.722268
v 0.575487 0.575531 0.722268
v 0.424512 0.426463 0.722268
v 0.575488 0.426463 0.722268
vt 0.467341 0.235686
vt 0.658670 0.233919
vt 0.466064 0.233907
vt 0.658535 0.235678
vt 0.468306 0.216659
vt 0.657950 0.216662
vt 0.653217 0.649504
vt 0.652944 0.471129
vt 0.468521 0.217224
vt 0.478636 0.649572
vt 0.658063 0.217231
vt 0.478850 0.471203
vt 0.651426 0.647887
vt 0.651284 0.472874
vt 0.480304 0.647838
vt 0.480622 0.472834
vt 0.162248 0.263900
vt 0.162215 0.077702
vt 0.162255 0.304593
vt 0.162208 0.037009
vt 0.653687 0.584174
vt 0.039359 0.263921
vt 0.039326 0.077722
vt 0.475377 0.584221
vt 0.301949 0.181064
vt 0.251591 0.181061
vt 0.251594 0.131339
vt 0.351671 0.181067
vt 0.110125 0.517076
vt 0.474635 0.108496
vt 0.238886 0.517071
vt 0.651957 0.108503
vt 0.659550 0.562209
vt 0.469503 0.562259
vt 0.110128 0.587994
vt 0.238888 0.587989
vt 0.110130 0.654710
vt 0.238891 0.654705
vt 0.651839 0.107876
vt 0.474421 0.107873
vt 0.309428 0.315338
vt 0.274417 0.315332
vt 0.204396 0.315321
vt 0.239406 0.315326
vt 0.542001 0.350399
vt 0.582719 0.350402
vt 0.541999 0.391117
vt 0.582717 0.391120
vt 0.251587 0.245617
vt 0.301945 0.245620
vt 0.251597 0.066784
vt 0.351667 0.245623
vt 0.437899 0.386377
vt 0.437908 0.313609
vt 0.437891 0.458226
vt 0.437882 0.530995
vt 0.129102 0.148097
vt 0.129110 0.193516
vt 0.082755 0.148105
vt 0.082763 0.193524
vt 0.658659 0.422748
vt 0.468528 0.031399
vt 0.467349 0.423132
vt 0.658070 0.031406
vt 0.658543 0.423123
vt 0.466053 0.422736
vt 0.583431 0.185523
vt 0.542826 0.185523
vt 0.239380 0.480935
vt 0.274391 0.480941
vt 0.204369 0.480930
vt 0.344412 0.480952
vt 0.309401 0.480947
vt 0.583154 0.391735
vt 0.344438 0.315343
vt 0.542735 0.391737
vt 0.542733 0.351317
vt 0.583153 0.351315
vt 0.469529 0.660730
vt 0.278552 0.654704
vt 0.278550 0.587988
vt 0.070469 0.654711
vt 0.659576 0.660679
vt 0.070466 0.587996
vt 0.474422 0.053224
vt 0.651839 0.053226
vt 0.659522 0.457535
vt 0.070464 0.517077
vt 0.278547 0.517070
vt 0.469475 0.457586
vt 0.651959 0.053884
vt 0.474637 0.053877
vt 0.475388 0.623190
vt 0.039319 0.037030
vt 0.039366 0.304614
vt 0.653698 0.623142
vt 0.625982 0.475990
vt 0.588614 0.475860
vt 0.589738 0.644713
vt 0.626971 0.644781
vt 0.039399 0.490812
vt 0.162288 0.490792
vt 0.375106 0.313601
vt 0.375071 0.602837
vt 0.375080 0.530987
vt 0.375089 0.458219
vt 0.375097 0.386369
vt 0.468987 0.423532
vt 0.468951 0.234755
vt 0.657764 0.423496
vt 0.468309 0.030733
vt 0.657728 0.234719
vt 0.657953 0.030736
vt 0.663664 0.462545
vt 0.663911 0.658168
vt 0.542827 0.145431
vt 0.437874 0.602844
vt 0.583432 0.145432
vt 0.583584 0.186107
vt 0.583586 0.146037
vt 0.543003 0.146036
vt 0.543002 0.186106
vt 0.301952 0.131342
vt 0.301956 0.066787
vt 0.201869 0.181058
vt 0.201865 0.245614
vt 0.468229 0.462521
vt 0.467878 0.658120
vn 0.000000 -1.000000 0.000000
vn 0.000000 -1.000000 0.000000
vn 0.000000 -1.000000 0.000000
vn 0.000000 -1.000000 0.000000
vn 0.000000 1.000000 0.000001
vn 0.000000 1.000000 0.000001
vn 0.000000 1.000000 0.000001
vn 0.000000 1.000000 0.000001
vn 0.000000 1.000000 0.000000
vn 0.000000 1.000000 0.000000
vn 0.000000 1.000000 0.000000
vn 0.000000 1.000000 0.000000
vn 0.000000 1.000000 -0.000001
vn 0.000000 1.000000 -0.000001
vn 0.000000 1.000000 -0.000001
vn 0.000000 1.000000 -0.000001
vn 0.000000 1.000000 0.000000
vn 0.000000 1.000000 0.000000
vn 0.000000 1.000000 0.000000
vn 0.000000 1.000000 0.000000
vn 0.000000 0.000000 -1.000000
vn 0.000000 0.000000 -1.000000
vn 0.000000 0.000000 -1.000000
vn 0.000000 0.000000 -1.000000
vn -1.000000 0.000000 0.000000
vn -1.000000 0.000000 0.000000
vn -1.000000 0.000000 0.000000
vn -1.000000 0.000000 0.000000
vn 0.000000 0.000000 1.000000
vn 0.000000 0.000000 1.000000
vn 0.000000 0.000000 1.000000
vn 0.000000 0.000000 1.000000
vn 1.000000 0.000000 0.000000
vn 1.000000 0.000000 0.000000
vn 1.000000 0.000000 0.000000
vn 1.000000 0.000000 0.000000
vn 0.000000 1.000000 0.000000
vn 0.000000 1.000000 0.000000
vn 0.000000 1.000000 0.000000
vn 0.000000 1.000000 0.000000
vn 0.000000 1.000000 0.000000
vn 0.000000 1.000000 0.000000
vn 0.000000 1.000000 0.000000
vn 0.000000 1.000000 0.000000
vn 0.000000 1.000000 0.000000
vn 0.000000 1.000000 0.000000
vn 0.000000 1.000000 0.000000
vn 0.000000 1.000000 0.000000
vn 0.000000 1.000000 0.000000
vn 0.000000 1.000000 0.000000
vn 0.000000 1.000000 0.000000
vn 0.000000 1.000000 0.000000
vn -1.000000 0.000000 0.000000
vn -1.000000 0.000000 0.000000
vn -1.000000 0.000000 0.000000
vn -1.000000 0.000000 0.000000
vn 1.000000 0.000000 0.000000
vn 1.000000 0.000000 0.000000
vn 1.000000 0.000000 0.000000
vn 1.000000 0.000000 0.000000
vn 0.000000 0.000000 -1.000000
vn 0.000000 0.000000 -1.000000
vn 0.000000 0.000000 -1.000000
vn 0.000000 0.000000 -1.000000
vn -0.000000 0.000000 -1.000000
vn -0.000000 0.000000 -1.000000
vn -0.000000 0.000000 -1.000000
vn -0.000000 0.000000 -1.000000
vn 0.000000 0.000000 -1.000000
vn 0.000000 0.000000 -1.000000
vn 0.000000 0.000000 -1.000000
vn 0.000000 0.000000 -1.000000
vn 0.000000 0.000000 -1.000000
vn 0.000000 0.000000 -1.000000
vn 0.000000 0.000000 -1.000000
vn 0.000000 0.000000 -1.000000
vn 0.000000 -1.000000 0.000000
vn 0.000000 -1.000000 0.000000
vn 0.000000 -1.000000 0.000000
vn 0.000000 -1.000000 0.000000
vn -1.000000 0.000000 0.000000
vn -1.000000 0.000000 0.000000
vn -1.000000 0.000000 0.000000
vn -1.000000 0.000000 0.000000
vn 0.000000 1.000000 0.000000
vn 0.000000 1.000000 0.000000
vn 0.000000 1.000000 0.000000
vn 0.000000 1.000000 0.000000
vn 1.000000 0.000000 0.000000
vn 1.000000 0.000000 0.000000
vn 1.000000 0.000000 0.000000
vn 1.000000 0.000000 0.000000
vn 0.000000 0.000000 1.000000
vn 0.000000 0.000000 1.000000
vn 0.000000 0.000000 1.000000
vn 0.000000 0.000000 1.000000
vn -0.000004 0.000000 1.000000
vn 0.000000 0.000000 1.000000
vn -0.000001 0.000000 1.000000
vn -0.000004 0.000000 1.000000
vn -0.000000 0.000000 1.000000
vn 0.000006 0.000000 1.000000
vn 0.000006 0.000000 1.000000
vn 0.000001 0.000000 1.000000
vn 0.000000 1.000000 0.000000
vn 0.000000 1.000000 0.000000
vn 0.000000 1.000000 0.000000
vn 0.000000 1.000000 0.000000
vn -1.000000 0.000000 0.000000
vn -1.000000 0.000000 0.000000
vn -1.000000 0.000000 0.000000
vn -1.000000 0.000000 0.000000
vn 1.000000 0.000000 0.000000
vn 1.000000 0.000000 0.000000
vn 1.000000 0.000000 0.000000
vn 1.000000 0.000000 0.000000
vn -1.000000 -0.000000 0.000000
vn -1.000000 -0.000000 0.000000
vn -1.000000 -0.000000 0.000000
vn -1.000000 -0.000000 0.000000
vn -1.000000 0.000000 0.000000
vn -1.000000 0.000000 0.000000
vn -1.000000 0.000000 0.000000
vn -1.000000 0.000000 0.000000
vn -1.000000 0.000000 0.000000
vn -1.000000 0.000000 0.000000
vn -1.000000 0.000000 0.000000
vn -1.000000 0.000000 0.000000
vn -1.000000 0.000000 0.000000
vn -1.000000 0.000000 0.000000
vn -1.000000 0.000000 0.000000
vn -1.000000 0.000000 0.000000
vn 0.000000 1.000000 0.000000
vn 0.000000 1.000000 0.000000
vn 0.000000 1.000000 0.000000
vn 0.000000 1.000000 0.000000
vn 0.000000 0.000000 -1.000000
vn 0.000000 0.000000 -1.000000
vn 0.000000 0.000000 -1.000000
vn 0.000000 0.000000 -1.000000
vn 0.000000 -1.000000 0.000000
vn 0.000000 -1.000000 0.000000
vn 0.000000 -1.000000 0.000000
vn 0.000000 -1.000000 0.000000
vn 0.000000 0.000000 1.000000
vn 0.000000 0.000000 1.000000
vn 0.000000 0.000000 1.000000
vn 0.000000 0.000000 1.000000
vn 1.000000 0.000000 0.000000
vn 1.000000 0.000000 0.000000
vn 1.000000 0.000000 0.000000
vn 1.000000 0.000000 0.000000
vn 1.000000 0.000000 0.000000
vn 1.000000 0.000000 0.000000
vn 1.000000 0.000000 0.000000
vn 1.000000 0.000000 0.000000
vn 1.000000 0.000000 0.000000
vn 1.000000 0.000000 0.000000
vn 1.000000 0.000000 0.000000
vn 1.000000 0.000000 0.000000
vn 1.000000 0.000000 0.000000
vn 1.000000 0.000000 0.000000
vn 1.000000 0.000000 0.000000
vn 1.000000 0.000000 0.000000
vn 0.000000 -1.000000 0.000000
vn 0.000000 -1.000000 0.000000
vn 0.000000 -1.000000 0.000000
vn 0.000000 -1.000000 0.000000
vn -0.000001 -1.000000 0.000000
vn -0.000001 -1.000000 0.000000
vn -0.000001 -1.000000 0.000000
vn -0.000001 -1.000000 0.000000
vn 0.000000 -1.000000 0.000000
vn 0.000000 -1.000000 0.000000
vn 0.000000 -1.000000 0.000000
vn 0.000000 -1.000000 0.000000
vn 0.000001 -1.000000 0.000000
vn 0.000001 -1.000000 0.000000
vn 0.000001 -1.000000 0.000000
vn 0.000001 -1.000000 0.000000
vn 0.000000 0.000000 -1.000000
vn 0.000000 0.000000 -1.000000
vn 0.000000 0.000000 -1.000000
vn 0.000000 0.000000 -1.000000
vn -0.000000 0.000000 1.000000
vn 0.000000 0.000000 1.000000
vn -0.000000 0.000000 1.000000
vn 0.000000 0.000000 1.000000
vn 0.000000 -1.000000 0.000000
vn 0.000000 -1.000000 0.000000
vn 0.000000 -1.000000 0.000000
vn 0.000000 -1.000000 0.000000
vn -1.000000 0.000000 0.000000
vn -1.000000 0.000000 0.000000
vn -1.000000 0.000000 0.000000
vn -1.000000 0.000000 0.000000
vn 0.000000 1.000000 0.000000
vn 0.000000 1.000000 0.000000
vn 0.000000 1.000000 0.000000
vn 0.000000 1.000000 0.000000
vn 1.000000 -0.000006 0.000000
vn 1.000000 -0.000006 0.000000
vn 1.000000 -0.000006 0.000000
vn 1.000000 -0.000006 0.000000
vn 0.000000 -1.000000 0.000000
vn 0.000000 -1.000000 0.000000
vn 0.000000 -1.000000 0.000000
vn 0.000000 -1.000000 0.000000
vn 1.000000 0.000000 0.000000
vn 1.000000 0.000000 0.000000
vn 1.000000 0.000000 0.000000
vn 1.000000 0.000000 0.000000
vn 0.000000 1.000000 0.000000
vn 0.000000 1.000000 0.000000
vn 0.000000 1.000000 0.000000
vn 0.000000 1.000000 0.000000
vn -1.000000 -0.000006 0.000000
vn -1.000000 -0.000006 0.000000
vn -1.000000 -0.000006 0.000000
vn -1.000000 -0.000006 0.000000
vn 0.000000 0.000000 -1.000000
vn 0.000000 0.000000 -1.000000
vn 0.000000 0.000000 -1.000000
vn 0.000000 0.000000 -1.000000
vn 0.000000 0.000000 -1.000000
vn 0.000000 0.000000 -1.000000
vn 0.000000 0.000000 -1.000000
vn 0.000000 0.000000 -1.000000
vn 0.000000 0.000000 -1.000000
vn 0.000000 0.000000 -1.000000
vn 0.000000 0.000000 -1.000000
vn 0.000000 0.000000 -1.000000
vn -0.000000 0.000000 -1.000000
vn -0.000000 0.000000 -1.000000
vn -0.000000 0.000000 -1.000000
vn -0.000000 0.000000 -1.000000
vn 0.000000 0.000000 1.000000
vn 0.000000 0.000000 1.000000
vn 0.000000 0.000000 1.000000
vn 0.000000 0.000000 1.000000
s off
usemtl initialShadingGroup
f 7/110/1 8/108/2 2/109/3 1/112/4
f 3/114/5 4/115/6 10/7/7 9/8/8
f 4/115/9 6/128/10 11/10/11 10/7/12
f 6/128/13 5/127/14 12/12/15 11/10/16
f 5/127/17 3/114/18 9/8/19 12/12/20
f 9/8/21 10/7/22 14/13/23 13/14/24
f 10/7/25 11/10/26 15/15/27 14/13/28
f 11/10/29 12/12/30 16/16/31 15/15/32
f 12/12/33 9/8/34 13/14/35 16/16/36
f 13/14/37 14/13/38 18/100/39 17/97/40
f 14/13/41 15/15/42 19/99/43 18/100/44
f 15/15/45 16/16/46 20/98/47 19/99/48
f 16/16/49 13/14/50 17/97/51 20/98/52
f 18/17/53 19/19/54 23/95/55 22/22/56
f 20/20/57 17/18/58 21/23/59 24/94/60
f 53/25/61 54/26/62 55/27/63 56/123/64
s 1
f 6/9/65 8/62/66 27/92/67 26/30/68
s off
f 8/62/69 7/64/70 28/91/71 27/92/72
s 1
f 7/64/73 5/11/74 25/32/75 28/91/76
s off
f 25/90/77 26/87/78 30/33/79 29/34/80
f 26/88/81 27/29/82 31/35/83 30/84/84
f 27/29/85 28/31/86 32/36/87 31/35/88
f 28/31/89 25/89/90 29/81/91 32/36/92
f 1/111/93 2/113/94 34/86/95 33/85/96
s 3
f 2/113/97 4/6/98 35/39/99 34/86/100
f 3/5/101 1/111/102 33/85/103 36/40/104
s off
f 33/38/105 34/37/106 31/35/107 32/36/108
f 34/37/109 35/82/110 30/84/111 31/35/112
f 36/80/113 33/38/114 32/36/115 29/81/116
f 7/1/117 1/4/118 38/78/119 37/77/120
f 1/4/121 3/65/122 39/74/123 38/78/124
f 3/65/125 5/63/126 40/76/127 39/74/128
f 5/63/129 7/1/130 37/77/131 40/76/132
f 37/42/133 38/41/134 42/73/135 41/70/136
f 38/41/137 39/75/138 43/72/139 42/73/140
f 39/43/141 40/44/142 44/69/143 43/71/144
f 40/44/145 37/42/146 41/70/147 44/69/148
f 2/3/149 8/2/150 41/46/151 42/45/152
f 8/2/153 6/61/154 44/48/155 41/46/156
f 6/61/157 4/66/158 43/47/159 44/48/160
f 4/66/161 2/3/162 42/45/163 43/47/164
f 35/83/165 36/79/166 21/93/167 22/96/168
f 36/79/169 29/34/170 24/24/171 21/93/172
f 29/34/173 30/33/174 23/21/175 24/24/176
f 30/33/177 35/83/178 22/96/179 23/21/180
s 1
f 5/11/74 6/9/65 46/122/181 45/119/182
f 6/9/65 26/30/68 47/121/183 46/122/181
f 26/30/68 25/32/75 48/120/184 47/121/183
f 25/32/75 5/11/74 45/119/182 48/120/184
s 3
f 4/6/98 3/5/101 49/68/185 50/67/186
f 3/5/101 36/40/104 51/116/187 49/68/185
f 36/40/104 35/39/99 52/118/188 51/116/187
f 35/39/99 4/6/98 50/67/186 52/118/188
s off
f 45/50/189 46/49/190 54/26/191 53/25/192
f 46/49/193 47/126/194 55/125/195 54/26/196
f 47/51/197 48/124/198 56/123/199 55/27/200
f 48/52/201 45/50/202 53/25/203 56/28/204
f 50/54/205 49/53/206 57/107/207 58/103/208
f 49/53/209 51/55/210 59/106/211 57/107/212
f 51/55/213 52/56/214 60/105/215 59/106/216
f 52/56/217 50/117/218 58/104/219 60/105/220
f 17/18/221 18/17/222 58/58/223 57/57/224
f 18/17/225 22/22/226 60/60/227 58/58/228
f 22/22/229 21/23/230 59/59/231 60/60/232
f 21/23/233 17/18/234 57/57/235 59/59/236
f 23/95/237 19/19/238 20/102/239 24/101/240
