# This file uses centimeters as units for non-parametric coordinates.

v 0.000000 0.474404 0.459120
v 0.000000 0.523149 0.459120
v 0.500000 0.523149 0.524113
v 0.500000 0.474404 0.524113
v 0.500000 0.474404 0.475368
v 0.500000 0.523149 0.475368
v 0.500000 0.474404 0.459120
v 0.500000 0.523149 0.459120
v 0.000000 0.523149 0.524113
v 0.000000 0.474404 0.524113
v 0.000000 0.523149 0.475368
v 0.000000 0.474404 0.475368
v 0.000000 0.474404 0.540362
v 0.500000 0.474404 0.540362
v 0.000000 0.523149 0.540362
v 0.500000 0.523149 0.540362
v 0.000000 0.458156 0.524113
v 0.500000 0.458156 0.524113
v 0.000000 0.539397 0.524113
v 0.500000 0.539397 0.524113
v 0.000000 0.458156 0.475368
v 0.500000 0.458156 0.475368
v 0.000000 0.539397 0.475368
v 0.500000 0.539397 0.475368
vt 0.812349 0.235564
vt 0.818203 0.235558
vt 0.818784 0.789323
vt 0.812930 0.789330
vt 0.906585 0.789231
vt 0.906005 0.235466
vt 0.911858 0.235460
vt 0.912439 0.789225
vt 0.794789 0.235583
vt 0.795370 0.789348
vt 0.824056 0.235552
vt 0.824637 0.789317
vt 0.900151 0.235472
vt 0.900732 0.789238
vt 0.847470 0.235527
vt 0.853323 0.235521
vt 0.853904 0.789287
vt 0.848051 0.789293
vt 0.841617 0.235534
vt 0.842197 0.789299
vt 0.882591 0.235491
vt 0.883172 0.789256
vt 0.870884 0.235503
vt 0.876737 0.235497
vt 0.877318 0.789262
vt 0.871465 0.789268
vt 0.635017 0.764203
vt 0.713263 0.764200
vt 0.713264 0.790282
vt 0.635018 0.790284
vt 0.713260 0.685955
vt 0.739342 0.685953
vt 0.739345 0.764199
vt 0.635015 0.685957
vt 0.635014 0.659876
vt 0.713259 0.659873
vt 0.608936 0.764204
vt 0.608933 0.685958
vt 0.608920 0.685980
vt 0.635002 0.685970
vt 0.635030 0.764216
vt 0.608948 0.764225
vt 0.634992 0.659889
vt 0.713238 0.659860
vt 0.713247 0.685942
vt 0.739329 0.685932
vt 0.739357 0.764178
vt 0.713276 0.764187
vt 0.713285 0.790269
vt 0.635040 0.790297
vn 0.000000 -1.000000 0.000000
vn 0.000000 -1.000000 0.000000
vn 0.000000 -1.000000 0.000000
vn 0.000000 -1.000000 0.000000
vn 0.000000 1.000000 0.000000
vn 0.000000 1.000000 0.000000
vn 0.000000 1.000000 0.000000
vn 0.000000 1.000000 0.000000
vn 0.000000 0.000000 1.000000
vn 0.000000 0.000000 1.000000
vn 0.000000 0.000000 1.000000
vn 0.000000 0.000000 1.000000
vn 0.000000 0.000000 1.000000
vn 0.000000 0.000000 1.000000
vn 0.000000 0.000000 1.000000
vn 0.000000 0.000000 1.000000
vn 0.000000 0.000000 1.000000
vn 0.000000 0.000000 1.000000
vn 0.000000 0.000000 1.000000
vn 0.000000 0.000000 1.000000
vn 0.000000 -1.000000 0.000002
vn 0.000000 -1.000000 0.000002
vn 0.000000 -1.000000 0.000002
vn 0.000000 -1.000000 0.000002
vn -0.000000 0.000000 -1.000000
vn -0.000000 0.000000 -1.000000
vn -0.000000 0.000000 -1.000000
vn -0.000000 0.000000 -1.000000
vn 0.000000 -1.000000 0.000000
vn 0.000000 -1.000000 0.000000
vn 0.000000 -1.000000 0.000000
vn 0.000000 -1.000000 0.000000
vn 0.000000 1.000000 0.000000
vn 0.000000 1.000000 0.000000
vn 0.000000 1.000000 0.000000
vn 0.000000 1.000000 0.000000
vn 0.000000 1.000000 0.000000
vn 0.000000 1.000000 0.000000
vn 0.000000 1.000000 0.000000
vn 0.000000 1.000000 0.000000
vn 0.000000 0.000000 -1.000000
vn 0.000000 0.000000 -1.000000
vn 0.000000 0.000000 -1.000000
vn 0.000000 0.000000 -1.000000
vn 0.000000 0.000000 -1.000000
vn 0.000000 0.000000 -1.000000
vn 0.000000 0.000000 -1.000000
vn 0.000000 0.000000 -1.000000
vn 1.000000 0.000000 0.000000
vn 1.000000 0.000000 0.000000
vn 1.000000 0.000000 0.000000
vn 1.000000 0.000000 0.000000
vn 1.000000 0.000000 0.000000
vn 1.000000 0.000000 0.000000
vn 1.000000 0.000000 0.000000
vn 1.000000 0.000000 0.000000
vn 1.000000 0.000000 0.000000
vn 1.000000 0.000000 0.000000
vn 1.000000 0.000000 0.000000
vn 1.000000 0.000000 0.000000
vn 1.000000 0.000000 0.000000
vn 1.000000 0.000000 0.000000
vn 1.000000 0.000000 0.000000
vn 1.000000 0.000000 0.000000
vn 1.000000 0.000000 0.000000
vn 1.000000 0.000000 0.000000
vn 1.000000 0.000000 0.000000
vn 1.000000 0.000000 0.000000
vn -1.000000 0.000000 0.000000
vn -1.000000 0.000000 0.000000
vn -1.000000 0.000000 0.000000
vn -1.000000 0.000000 0.000000
vn -1.000000 0.000000 0.000000
vn -1.000000 0.000000 0.000000
vn -1.000000 0.000000 0.000000
vn -1.000000 0.000000 0.000000
vn -1.000000 0.000000 0.000000
vn -1.000000 0.000000 0.000000
vn -1.000000 0.000000 0.000000
vn -1.000000 0.000000 0.000000
vn -1.000000 0.000000 0.000000
vn -1.000000 0.000000 0.000000
vn -1.000000 0.000000 0.000000
vn -1.000000 0.000000 0.000000
vn -1.000000 0.000000 0.000000
vn -1.000000 0.000000 0.000000
vn -1.000000 0.000000 0.000000
vn -1.000000 0.000000 0.000000
s off
f 13/1/1 10/2/2 4/3/3 14/4/4
f 3/5/5 9/6/6 15/7/7 16/8/8
f 15/9/9 13/1/10 14/4/11 16/10/12
f 10/2/13 17/11/14 18/12/15 4/3/16
f 19/13/17 9/6/18 3/5/19 20/14/20
f 12/15/21 1/16/22 7/17/23 5/18/24
f 21/19/25 12/15/26 5/18/27 22/20/28
f 17/11/29 21/19/30 22/20/31 18/12/32
f 23/21/33 19/13/34 20/14/35 24/22/36
f 2/23/37 11/24/38 6/25/39 8/26/40
f 11/24/41 23/21/42 24/22/43 6/25/44
f 1/16/45 2/23/46 8/26/47 7/17/48
f 5/27/49 4/28/50 18/29/51 22/30/52
f 4/28/53 3/31/54 16/32/55 14/33/56
f 3/31/57 6/34/58 24/35/59 20/36/60
f 7/37/61 8/38/62 6/34/63 5/27/64
f 6/34/65 3/31/66 4/28/67 5/27/68
f 23/39/69 11/40/70 9/41/71 19/42/72
f 11/40/73 2/43/74 1/44/75 12/45/76
f 12/45/77 21/46/78 17/47/79 10/48/80
f 10/48/81 13/49/82 15/50/83 9/41/84
f 10/48/85 9/41/86 11/40/87 12/45/88
