# This file uses centimeters as units for non-parametric coordinates.

v 0.698419 0.406786 0.085939
v 0.693165 0.416942 0.085810
v 0.694051 0.410988 0.085885
v 0.698422 0.406699 0.081418
v 0.693168 0.416856 0.081289
v 0.694054 0.410902 0.081364
v 0.650341 0.422784 0.081198
v 0.655848 0.391042 0.081597
v 0.679617 0.367969 0.081896
v 0.650339 0.422870 0.085718
v 0.655845 0.391128 0.086118
v 0.679614 0.368055 0.086416
v 0.696935 0.423662 0.085830
v 0.708369 0.423511 0.085830
v 0.702700 0.425535 0.085830
v 0.696935 0.423662 0.081309
v 0.708369 0.423511 0.081309
v 0.702700 0.425535 0.081309
v 0.733774 0.458496 0.081309
v 0.703177 0.468592 0.081309
v 0.671625 0.458496 0.081309
v 0.733773 0.458496 0.085830
v 0.703177 0.468592 0.085830
v 0.671625 0.458496 0.085830
v 0.712418 0.417078 0.085833
v 0.706940 0.407040 0.085865
v 0.711379 0.411106 0.085854
v 0.712424 0.417053 0.081312
v 0.706945 0.407015 0.081344
v 0.711385 0.411081 0.081333
v 0.725997 0.368204 0.081504
v 0.749225 0.390532 0.081442
v 0.755049 0.423144 0.081327
v 0.725992 0.368229 0.086025
v 0.749219 0.390557 0.085963
v 0.755043 0.423169 0.085848
vt 0.591361 0.292801
vt 0.645473 0.126261
vt 0.416250 0.051782
vt 0.591361 0.292801
vt 0.645473 0.218322
vt 0.645473 0.126261
vt 0.591361 0.051782
vt 0.503806 0.023333
vt 0.591361 0.292801
vt 0.645473 0.126261
vt 0.591361 0.051782
vt 0.503806 0.023333
vt 0.416250 0.051782
vt 0.645473 0.218322
vt 0.591361 0.292801
vt 0.645473 0.126261
vt 0.503806 0.023333
vt 0.591361 0.051782
vt 0.416250 0.051782
vt 0.591361 0.051782
vt 0.503806 0.023333
vt 0.416250 0.051782
vt 0.503806 0.023333
vt 0.591361 0.051782
vt 0.416250 0.051782
vt 0.645473 0.218322
vt 0.591361 0.292801
vt 0.591361 0.292801
vt 0.645473 0.218322
vt 0.591361 0.292801
vt 0.591361 0.292801
vt 0.645473 0.126261
vt 0.645473 0.126261
vt 0.645473 0.126261
vt 0.645473 0.126261
vt 0.503806 0.023333
vt 0.591361 0.051782
vt 0.416250 0.051782
vt 0.591361 0.051782
vt 0.503806 0.023333
vt 0.416250 0.051782
vt 0.503806 0.023333
vt 0.591361 0.051782
vt 0.416250 0.051782
vt 0.645473 0.218322
vt 0.591361 0.292801
vt 0.591361 0.292801
vt 0.645473 0.218322
vt 0.591361 0.292801
vt 0.591361 0.292801
vt 0.645473 0.126261
vt 0.645473 0.126261
vt 0.645473 0.126261
vt 0.645473 0.126261
vt 0.503806 0.023333
vt 0.591361 0.051782
vt 0.416250 0.051782
vn -0.985285 -0.170900 0.002668
vn -0.985285 -0.170900 0.002668
vn -0.985285 -0.170900 0.002668
vn -0.985285 -0.170900 0.002668
vn -0.696545 -0.717391 0.013257
vn -0.696545 -0.717391 0.013257
vn -0.696545 -0.717391 0.013257
vn -0.696545 -0.717391 0.013257
vn 0.000407 -0.012506 -0.999922
vn 0.000407 -0.012506 -0.999922
vn 0.000407 -0.012506 -0.999922
vn 0.000407 -0.012506 -0.999922
vn 0.000408 -0.012516 -0.999922
vn 0.000408 -0.012516 -0.999922
vn 0.000408 -0.012516 -0.999922
vn 0.000408 -0.012516 -0.999922
vn 0.899575 -0.436676 0.008872
vn 0.899575 -0.436676 0.008872
vn 0.899575 -0.436676 0.008872
vn 0.899575 -0.436676 0.008872
vn -0.000408 0.012514 0.999922
vn -0.000408 0.012514 0.999922
vn -0.000408 0.012514 0.999922
vn -0.000408 0.012514 0.999922
vn 0.137130 0.990375 -0.018781
vn 0.137130 0.990375 -0.018781
vn 0.137130 0.990375 -0.018781
vn 0.137130 0.990375 -0.018781
vn -0.000410 0.012516 0.999922
vn -0.000410 0.012516 0.999922
vn -0.000410 0.012516 0.999922
vn -0.000410 0.012516 0.999922
vn 0.313368 0.949632 0.000013
vn 0.313368 0.949632 0.000013
vn 0.313368 0.949632 0.000013
vn 0.313368 0.949632 0.000013
vn -0.304776 0.952424 0.000000
vn -0.304776 0.952424 0.000000
vn -0.304776 0.952424 0.000000
vn -0.304776 0.952424 0.000000
vn 0.000010 -0.000003 -1.000000
vn 0.000010 -0.000003 -1.000000
vn 0.000010 -0.000003 -1.000000
vn 0.000010 -0.000003 -1.000000
vn 0.000000 0.000000 -1.000000
vn 0.000000 0.000000 -1.000000
vn 0.000000 0.000000 -1.000000
vn 0.000000 0.000000 -1.000000
vn -0.809009 -0.587796 0.000000
vn -0.809009 -0.587796 0.000000
vn -0.809009 -0.587796 0.000000
vn -0.809009 -0.587796 0.000000
vn 0.000000 0.000000 1.000000
vn 0.000000 0.000000 1.000000
vn 0.000000 0.000000 1.000000
vn 0.000000 0.000000 1.000000
vn 0.809168 -0.587578 0.000019
vn 0.809167 -0.587578 0.000019
vn 0.809168 -0.587578 0.000019
vn 0.809168 -0.587578 0.000019
vn 0.000000 0.000000 1.000000
vn 0.000000 0.000000 1.000000
vn 0.000000 0.000000 1.000000
vn 0.000000 0.000000 1.000000
vn 0.693007 -0.720914 0.004974
vn 0.693006 -0.720914 0.004974
vn 0.693006 -0.720914 0.004974
vn 0.693006 -0.720914 0.004974
vn 0.984428 -0.175776 0.002285
vn 0.984428 -0.175776 0.002285
vn 0.984428 -0.175776 0.002285
vn 0.984428 -0.175776 0.002285
vn 0.000863 -0.003701 -0.999993
vn 0.000863 -0.003701 -0.999993
vn 0.000863 -0.003701 -0.999993
vn 0.000863 -0.003701 -0.999993
vn 0.000871 -0.003690 -0.999993
vn 0.000871 -0.003690 -0.999993
vn 0.000871 -0.003690 -0.999993
vn 0.000871 -0.003690 -0.999993
vn -0.141450 0.989929 -0.005742
vn -0.141450 0.989929 -0.005742
vn -0.141450 0.989929 -0.005742
vn -0.141450 0.989929 -0.005742
vn -0.000870 0.003694 0.999993
vn -0.000870 0.003694 0.999993
vn -0.000870 0.003694 0.999993
vn -0.000870 0.003694 0.999993
vn -0.897675 -0.440657 0.001315
vn -0.897675 -0.440657 0.001315
vn -0.897675 -0.440657 0.001315
vn -0.897675 -0.440657 0.001315
vn -0.000871 0.003691 0.999993
vn -0.000871 0.003691 0.999993
vn -0.000871 0.003691 0.999993
vn -0.000871 0.003691 0.999993
s off
f 8/12/1 11/17/2 10/18/3 7/11/4
f 9/13/5 12/19/6 11/17/7 8/12/8
f 5/4/9 6/1/10 8/9/11 7/15/12
f 6/6/13 4/5/14 9/14/15 8/16/16
f 9/10/17 4/2/18 1/3/19 12/19/20
f 3/8/21 2/7/22 10/18/23 11/17/24
f 7/15/25 10/18/26 2/7/27 5/4/28
f 1/3/29 3/8/30 11/17/31 12/19/32
f 20/21/33 23/23/34 22/24/35 19/20/36
f 21/22/37 24/25/38 23/23/39 20/21/40
f 17/27/41 18/30/42 20/31/43 19/28/44
f 18/32/45 16/26/46 21/29/47 20/33/48
f 21/35/49 16/34/50 13/38/51 24/25/52
f 15/36/53 14/37/54 22/24/55 23/23/56
f 19/28/57 22/24/58 14/37/59 17/27/60
f 13/38/61 15/36/62 23/23/63 24/25/64
f 32/40/65 35/42/66 34/43/67 31/39/68
f 33/41/69 36/44/70 35/42/71 32/40/72
f 29/46/73 30/49/74 32/50/75 31/47/76
f 30/51/77 28/45/78 33/48/79 32/52/80
f 33/54/81 28/53/82 25/57/83 36/44/84
f 27/55/85 26/56/86 34/43/87 35/42/88
f 31/47/89 34/43/90 26/56/91 29/46/92
f 25/57/93 27/55/94 35/42/95 36/44/96
