# This file uses centimeters as units for non-parametric coordinates.

v 0.985627 0.410193 0.824013
v 0.985627 0.405077 0.827694
v 0.961331 0.410193 0.824013
v 0.961331 0.405077 0.827694
v 0.961331 0.430230 0.851858
v 0.961331 0.425113 0.855539
v 0.985627 0.430230 0.851858
v 0.985627 0.425113 0.855539
vt 0.416279 0.149894
vt 0.591332 0.149894
vt 0.591332 0.324947
vt 0.416279 0.324947
vt 0.591332 0.500000
vt 0.416279 0.500000
vt 0.591332 0.675053
vt 0.416279 0.675053
vt 0.591332 0.850106
vt 0.416279 0.850106
vt 0.766385 0.149894
vt 0.766385 0.324947
vt 0.241226 0.149894
vt 0.241226 0.324947
vn 0.000000 -0.584064 -0.811707
vn 0.000000 -0.584064 -0.811707
vn 0.000000 -0.584064 -0.811707
vn 0.000000 -0.584064 -0.811707
vn -1.000000 0.000000 -0.000006
vn -1.000000 0.000000 -0.000006
vn -1.000000 0.000000 -0.000006
vn -1.000000 0.000000 -0.000006
vn 0.000000 0.584053 0.811716
vn 0.000000 0.584053 0.811716
vn 0.000000 0.584053 0.811716
vn 0.000000 0.584053 0.811716
vn 1.000000 0.000000 0.000006
vn 1.000000 0.000000 0.000006
vn 1.000000 0.000000 0.000006
vn 1.000000 0.000000 0.000006
vn 0.000000 -0.811697 0.584078
vn 0.000000 -0.811697 0.584078
vn 0.000000 -0.811697 0.584078
vn 0.000000 -0.811697 0.584078
vn 0.000000 0.811695 -0.584081
vn 0.000000 0.811695 -0.584081
vn 0.000000 0.811695 -0.584081
vn 0.000000 0.811695 -0.584081
s off
f 1/1/1 2/2/2 4/3/3 3/4/4
f 3/4/5 4/3/6 6/5/7 5/6/8
f 5/6/9 6/5/10 8/7/11 7/8/12
f 7/8/13 8/7/14 2/9/15 1/10/16
f 2/2/17 8/11/18 6/12/19 4/3/20
f 7/13/21 1/1/22 3/4/23 5/14/24
