# This file uses centimeters as units for non-parametric coordinates.

mtllib pocketwatch_big_hand_geo.mtl
v 0.475689 0.520871 0.563860
v 0.524311 0.520871 0.563860
v 0.475689 0.527624 0.563860
v 0.524311 0.527624 0.563860
v 0.475689 0.527624 0.405743
v 0.524311 0.527624 0.405743
v 0.475689 0.520871 0.405743
v 0.524311 0.520871 0.405743
vt 0.894507 0.788093
vt 0.942192 0.788100
vt 0.942190 0.807918
vt 0.894504 0.807911
vt 0.942168 0.962990
vt 0.894482 0.962983
vt 0.942165 0.982808
vt 0.894479 0.982801
vt 0.894529 0.633021
vt 0.942214 0.633028
vt 0.962032 0.633031
vt 0.962010 0.788103
vt 0.874689 0.788090
vt 0.874711 0.633019
vn 0.000000 0.000000 1.000000
vn 0.000000 0.000000 1.000000
vn 0.000000 0.000000 1.000000
vn 0.000000 0.000000 1.000000
vn 0.000000 1.000000 0.000000
vn 0.000000 1.000000 0.000000
vn 0.000000 1.000000 0.000000
vn 0.000000 1.000000 0.000000
vn 0.000000 0.000000 -1.000000
vn 0.000000 0.000000 -1.000000
vn 0.000000 0.000000 -1.000000
vn 0.000000 0.000000 -1.000000
vn 0.000000 -1.000000 0.000000
vn 0.000000 -1.000000 0.000000
vn 0.000000 -1.000000 0.000000
vn 0.000000 -1.000000 0.000000
vn 1.000000 0.000000 0.000000
vn 1.000000 0.000000 0.000000
vn 1.000000 0.000000 0.000000
vn 1.000000 0.000000 0.000000
vn -1.000000 0.000000 0.000000
vn -1.000000 0.000000 0.000000
vn -1.000000 0.000000 0.000000
vn -1.000000 0.000000 0.000000
s off
usemtl pocketwatch_mtlSG
f 1/1/1 2/2/2 4/3/3 3/4/4
f 3/4/5 4/3/6 6/5/7 5/6/8
f 5/6/9 6/5/10 8/7/11 7/8/12
f 7/9/13 8/10/14 2/2/15 1/1/16
f 2/2/17 8/10/18 6/11/19 4/12/20
f 7/9/21 1/1/22 3/13/23 5/14/24
