# This file uses centimeters as units for non-parametric coordinates.

mtllib pocketwatch_small_hand_geo.mtl
v 0.489693 0.529833 0.363368
v 0.525442 0.529833 0.396325
v 0.489693 0.536362 0.363368
v 0.525442 0.536362 0.396325
v 0.562446 0.536362 0.284451
v 0.598195 0.536362 0.317408
v 0.562446 0.529833 0.284451
v 0.598195 0.529833 0.317408
vt 0.847024 0.835124
vt 0.786935 0.835123
vt 0.786936 0.810151
vt 0.847025 0.810152
vt 0.786937 0.677503
vt 0.847026 0.677504
vt 0.786937 0.652531
vt 0.847026 0.652532
vt 0.847021 0.967772
vt 0.786932 0.967771
vt 0.761960 0.967771
vt 0.761963 0.835123
vt 0.871997 0.835125
vt 0.871994 0.967773
vn -0.677806 0.000000 0.735241
vn -0.677806 0.000000 0.735241
vn -0.677806 0.000000 0.735241
vn -0.677806 0.000000 0.735241
vn 0.000000 1.000000 0.000000
vn 0.000000 1.000000 0.000000
vn 0.000000 1.000000 0.000000
vn 0.000000 1.000000 0.000000
vn 0.677807 0.000000 -0.735240
vn 0.677807 0.000000 -0.735240
vn 0.677807 0.000000 -0.735240
vn 0.677807 0.000000 -0.735240
vn 0.000000 -1.000000 0.000000
vn 0.000000 -1.000000 0.000000
vn 0.000000 -1.000000 0.000000
vn 0.000000 -1.000000 0.000000
vn 0.735238 0.000000 0.677810
vn 0.735238 0.000000 0.677810
vn 0.735238 0.000000 0.677810
vn 0.735238 0.000000 0.677810
vn -0.735238 0.000000 -0.677809
vn -0.735238 0.000000 -0.677809
vn -0.735238 0.000000 -0.677809
vn -0.735238 0.000000 -0.677809
s off
usemtl pocketwatch_mtlSG
f 1/1/1 2/2/2 4/3/3 3/4/4
f 3/4/5 4/3/6 6/5/7 5/6/8
f 5/6/9 6/5/10 8/7/11 7/8/12
f 7/9/13 8/10/14 2/2/15 1/1/16
f 2/2/17 8/10/18 6/11/19 4/12/20
f 7/9/21 1/1/22 3/13/23 5/14/24
