# This file uses centimeters as units for non-parametric coordinates.

mtllib pocketwatch_lid_geo.mtl
v 0.206275 0.546879 0.690151
v 0.793724 0.546879 0.690151
v 0.206275 0.632419 0.690254
v 0.793724 0.632419 0.690254
v 0.206275 0.633125 0.102806
v 0.793724 0.633125 0.102806
v 0.206275 0.547584 0.102703
v 0.793724 0.547584 0.102703
v 0.238638 0.547545 0.135066
v 0.761361 0.547545 0.135066
v 0.761361 0.546917 0.657789
v 0.238638 0.546917 0.657789
v 0.238638 0.579981 0.135105
v 0.761361 0.579981 0.135105
v 0.761361 0.579353 0.657827
v 0.238638 0.579353 0.657827
vt 0.055247 0.304553
vt 0.302053 0.305846
vt 0.300657 0.336906
vt 0.055785 0.335115
vt 0.056933 0.342581
vt 0.296285 0.342315
vt 0.296212 0.578553
vt 0.056223 0.578696
vt 0.053286 0.019531
vt 0.302437 0.020243
vt 0.302187 0.055198
vt 0.052665 0.054583
vt 0.075129 0.076276
vt 0.280535 0.077525
vt 0.279998 0.284043
vt 0.076484 0.282305
vt 0.337102 0.054818
vt 0.337139 0.305048
vt 0.020285 0.305003
vt 0.017627 0.055412
vt 0.288874 0.068412
vt 0.065974 0.067933
vt 0.289020 0.292427
vt 0.068284 0.291401
vn 0.000000 -0.001202 0.999999
vn 0.000000 -0.001202 0.999999
vn 0.000000 -0.001202 0.999999
vn 0.000000 -0.001202 0.999999
vn 0.000000 0.999999 0.001201
vn 0.000000 0.999999 0.001201
vn 0.000000 0.999999 0.001201
vn 0.000000 0.999999 0.001201
vn 0.000000 0.001198 -0.999999
vn 0.000000 0.001198 -0.999999
vn 0.000000 0.001198 -0.999999
vn 0.000000 0.001198 -0.999999
vn 0.000000 -0.999999 -0.001201
vn 0.000000 -0.999999 -0.001201
vn 0.000000 -0.999999 -0.001201
vn 0.000000 -0.999999 -0.001201
vn 1.000000 0.000001 0.000000
vn 1.000000 0.000001 0.000000
vn 1.000000 0.000001 0.000000
vn 1.000000 0.000001 0.000000
vn -1.000000 0.000000 0.000000
vn -1.000000 0.000000 0.000000
vn -1.000000 0.000000 0.000000
vn -1.000000 0.000000 0.000000
vn 0.000000 -0.999999 -0.001196
vn 0.000000 -0.999999 -0.001196
vn 0.000000 -0.999999 -0.001196
vn 0.000000 -0.999999 -0.001196
vn -0.000003 -0.999999 -0.001201
vn -0.000003 -0.999999 -0.001201
vn -0.000003 -0.999999 -0.001201
vn -0.000003 -0.999999 -0.001201
vn 0.000000 -0.999999 -0.001203
vn 0.000000 -0.999999 -0.001203
vn 0.000000 -0.999999 -0.001203
vn 0.000000 -0.999999 -0.001203
vn 0.000003 -0.999999 -0.001201
vn 0.000003 -0.999999 -0.001201
vn 0.000003 -0.999999 -0.001201
vn 0.000003 -0.999999 -0.001201
vn 0.000000 -0.001205 0.999999
vn 0.000000 -0.001205 0.999999
vn 0.000000 -0.001205 0.999999
vn 0.000000 -0.001205 0.999999
vn -1.000000 0.000000 0.000000
vn -1.000000 0.000000 0.000000
vn -1.000000 0.000000 0.000000
vn -1.000000 0.000000 0.000000
vn 0.000000 0.001196 -0.999999
vn 0.000000 0.001196 -0.999999
vn 0.000000 0.001196 -0.999999
vn 0.000000 0.001196 -0.999999
vn 1.000000 -0.000000 0.000000
vn 1.000000 -0.000000 0.000000
vn 1.000000 -0.000000 0.000000
vn 1.000000 -0.000000 0.000000
s off
usemtl pocketwatch_mtlSG
f 1/1/1 2/2/2 4/3/3 3/4/4
f 3/5/5 4/6/6 6/7/7 5/8/8
f 5/9/9 6/10/10 8/11/11 7/12/12
f 13/13/13 14/14/14 15/15/15 16/16/16
f 2/2/17 8/11/18 6/17/19 4/18/20
f 7/12/21 1/1/22 3/19/23 5/20/24
f 7/12/25 8/11/26 10/21/27 9/22/28
f 8/11/29 2/2/30 11/23/31 10/21/32
f 2/2/33 1/1/34 12/24/35 11/23/36
f 1/1/37 7/12/38 9/22/39 12/24/40
f 9/22/41 10/21/42 14/14/43 13/13/44
f 10/21/45 11/23/46 15/15/47 14/14/48
f 11/23/49 12/24/50 16/16/51 15/15/52
f 12/24/53 9/22/54 13/13/55 16/16/56
