# This file uses centimeters as units for non-parametric coordinates.

mtllib telescope_third_geo.mtl
v 0.469563 0.180744 0.530437
v 0.530437 0.180744 0.530437
v 0.469563 0.391344 0.530437
v 0.530437 0.391344 0.530437
v 0.469563 0.391344 0.469563
v 0.530437 0.391344 0.469563
v 0.469563 0.180744 0.469563
v 0.530437 0.180744 0.469563
v 0.479331 0.391344 0.520669
v 0.520669 0.391344 0.520669
v 0.520669 0.391344 0.479331
v 0.479331 0.391344 0.479331
v 0.479331 0.180744 0.479331
v 0.520669 0.180744 0.479331
v 0.520669 0.180744 0.520669
v 0.479331 0.180744 0.520669
v 0.465753 0.173176 0.534247
v 0.534247 0.173176 0.534247
v 0.465753 0.196181 0.534247
v 0.534247 0.196181 0.534247
v 0.465753 0.196181 0.465753
v 0.534247 0.196181 0.465753
v 0.465753 0.173176 0.465753
v 0.534247 0.173176 0.465753
v 0.476744 0.196181 0.523256
v 0.523256 0.196181 0.523256
v 0.523256 0.196181 0.476744
v 0.476744 0.196181 0.476744
v 0.476744 0.173176 0.476744
v 0.523256 0.173176 0.476744
v 0.523256 0.173176 0.523256
v 0.476744 0.173176 0.523256
vt 0.568104 0.894610
vt 0.568104 0.925622
vt 0.537092 0.894610
vt 0.537092 0.925622
vt 0.506081 0.894610
vt 0.506081 0.925622
vt 0.475069 0.894610
vt 0.475069 0.925622
vt 0.444058 0.894610
vt 0.444058 0.925622
vt 0.568104 0.956633
vt 0.537092 0.956633
vt 0.568104 0.863599
vt 0.537092 0.863599
vt 0.537092 0.894610
vt 0.537092 0.925622
vt 0.506081 0.925622
vt 0.506081 0.894610
vt 0.475069 0.894610
vt 0.475069 0.925622
vt 0.444058 0.925622
vt 0.444058 0.894610
vt 0.319030 0.836592
vt 0.352328 0.836592
vt 0.352328 0.869891
vt 0.319030 0.869891
vt 0.319030 0.903189
vt 0.352328 0.903189
vt 0.352328 0.936488
vt 0.319030 0.936488
vt 0.385627 0.836592
vt 0.385627 0.869891
vt 0.285731 0.836592
vt 0.285731 0.869891
vt 0.352328 0.869891
vt 0.319030 0.869891
vt 0.352328 0.903189
vt 0.319030 0.903189
vt 0.352328 0.936488
vt 0.319030 0.936488
vt 0.352328 0.969786
vt 0.352328 0.969786
vt 0.319030 0.969786
vt 0.319030 0.969786
vn 0.000000 0.000000 1.000000
vn 0.000000 0.000000 1.000000
vn 0.000000 0.000000 1.000000
vn 0.000000 0.000000 1.000000
vn 0.000000 0.000000 -1.000000
vn 0.000000 0.000000 -1.000000
vn 0.000000 0.000000 -1.000000
vn 0.000000 0.000000 -1.000000
vn 1.000000 0.000000 0.000000
vn 1.000000 0.000000 0.000000
vn 1.000000 0.000000 0.000000
vn 1.000000 0.000000 0.000000
vn -1.000000 0.000000 0.000000
vn -1.000000 0.000000 0.000000
vn -1.000000 0.000000 0.000000
vn -1.000000 0.000000 0.000000
vn 0.000000 1.000000 0.000003
vn 0.000000 1.000000 0.000003
vn 0.000000 1.000000 0.000003
vn 0.000000 1.000000 0.000003
vn 0.000000 1.000000 0.000000
vn 0.000000 1.000000 0.000000
vn 0.000000 1.000000 0.000000
vn 0.000000 1.000000 0.000000
vn 0.000000 1.000000 -0.000003
vn 0.000000 1.000000 -0.000003
vn 0.000000 1.000000 -0.000003
vn 0.000000 1.000000 -0.000003
vn 0.000000 1.000000 0.000000
vn 0.000000 1.000000 0.000000
vn 0.000000 1.000000 0.000000
vn 0.000000 1.000000 0.000000
vn 0.000000 -1.000000 0.000000
vn 0.000000 -1.000000 0.000000
vn 0.000000 -1.000000 0.000000
vn 0.000000 -1.000000 0.000000
vn 0.000000 -1.000000 0.000000
vn 0.000000 -1.000000 0.000000
vn 0.000000 -1.000000 0.000000
vn 0.000000 -1.000000 0.000000
vn 0.000000 -1.000000 -0.000000
vn 0.000000 -1.000000 -0.000000
vn 0.000000 -1.000000 -0.000000
vn 0.000000 -1.000000 -0.000000
vn 0.000000 -1.000000 0.000000
vn 0.000000 -1.000000 0.000000
vn 0.000000 -1.000000 0.000000
vn 0.000000 -1.000000 0.000000
vn 0.000000 0.000000 1.000000
vn 0.000000 0.000000 1.000000
vn 0.000000 0.000000 1.000000
vn 0.000000 0.000000 1.000000
vn 1.000000 0.000000 0.000000
vn 1.000000 0.000000 0.000000
vn 1.000000 0.000000 0.000000
vn 1.000000 0.000000 0.000000
vn -1.000000 0.000000 0.000000
vn -1.000000 0.000000 0.000000
vn -1.000000 0.000000 0.000000
vn -1.000000 0.000000 0.000000
vn 0.000000 0.000000 -1.000000
vn 0.000000 0.000000 -1.000000
vn 0.000000 0.000000 -1.000000
vn 0.000000 0.000000 -1.000000
vn 0.000000 0.000000 1.000000
vn 0.000000 0.000000 1.000000
vn 0.000000 0.000000 1.000000
vn 0.000000 0.000000 1.000000
vn 0.000000 0.000000 -1.000000
vn 0.000000 0.000000 -1.000000
vn 0.000000 0.000000 -1.000000
vn 0.000000 0.000000 -1.000000
vn 1.000000 0.000000 0.000000
vn 1.000000 0.000000 0.000000
vn 1.000000 0.000000 0.000000
vn 1.000000 0.000000 0.000000
vn -1.000000 0.000000 0.000000
vn -1.000000 0.000000 0.000000
vn -1.000000 0.000000 0.000000
vn -1.000000 0.000000 0.000000
vn 0.000000 1.000000 0.000000
vn 0.000000 1.000000 0.000000
vn 0.000000 1.000000 0.000000
vn 0.000000 1.000000 0.000000
vn 0.000000 1.000000 0.000000
vn 0.000000 1.000000 0.000000
vn 0.000000 1.000000 0.000000
vn 0.000000 1.000000 0.000000
vn 0.000000 1.000000 0.000000
vn 0.000000 1.000000 0.000000
vn 0.000000 1.000000 0.000000
vn 0.000000 1.000000 0.000000
vn 0.000000 1.000000 0.000000
vn 0.000000 1.000000 0.000000
vn 0.000000 1.000000 0.000000
vn 0.000000 1.000000 0.000000
vn 0.000000 -1.000000 0.000000
vn 0.000000 -1.000000 0.000000
vn 0.000000 -1.000000 0.000000
vn 0.000000 -1.000000 0.000000
vn 0.000000 -1.000000 0.000000
vn 0.000000 -1.000000 0.000000
vn 0.000000 -1.000000 0.000000
vn 0.000000 -1.000000 0.000000
vn 0.000000 -1.000000 0.000001
vn 0.000000 -1.000000 0.000001
vn 0.000000 -1.000000 0.000001
vn 0.000000 -1.000000 0.000001
vn 0.000000 -1.000000 0.000000
vn 0.000000 -1.000000 0.000000
vn 0.000000 -1.000000 0.000000
vn 0.000000 -1.000000 0.000000
vn 0.000000 0.000000 1.000000
vn 0.000000 0.000000 1.000000
vn 0.000000 0.000000 1.000000
vn 0.000000 0.000000 1.000000
vn 1.000000 0.000000 0.000000
vn 1.000000 0.000000 0.000000
vn 1.000000 0.000000 0.000000
vn 1.000000 0.000000 0.000000
vn -1.000000 0.000000 0.000000
vn -1.000000 0.000000 0.000000
vn -1.000000 0.000000 0.000000
vn -1.000000 0.000000 0.000000
vn 0.000000 0.000000 -1.000000
vn 0.000000 0.000000 -1.000000
vn 0.000000 0.000000 -1.000000
vn 0.000000 0.000000 -1.000000
s off
usemtl telescopegold_mtlSG
f 1/1/1 2/2/2 4/4/3 3/3/4
f 5/5/5 6/6/6 8/8/7 7/7/8
f 2/2/9 8/11/10 6/12/11 4/4/12
f 7/13/13 1/1/14 3/3/15 5/14/16
f 3/3/17 4/4/18 10/16/19 9/15/20
f 4/4/21 6/6/22 11/17/23 10/16/24
f 6/6/25 5/5/26 12/18/27 11/17/28
f 5/5/29 3/3/30 9/15/31 12/18/32
f 7/7/33 8/8/34 14/20/35 13/19/36
f 8/8/37 2/10/38 15/21/39 14/20/40
f 2/10/41 1/9/42 16/22/43 15/21/44
f 1/9/45 7/7/46 13/19/47 16/22/48
f 11/17/49 12/18/50 13/19/51 14/20/52
f 12/18/53 9/15/54 16/22/55 13/19/56
f 11/17/57 14/20/58 15/21/59 10/16/60
f 10/16/61 15/21/62 16/22/63 9/15/64
f 17/23/65 18/24/66 20/25/67 19/26/68
f 21/27/69 22/28/70 24/29/71 23/30/72
f 18/24/73 24/31/74 22/32/75 20/25/76
f 23/33/77 17/23/78 19/26/79 21/34/80
f 19/26/81 20/25/82 26/35/83 25/36/84
f 20/25/85 22/28/86 27/37/87 26/35/88
f 22/28/89 21/27/90 28/38/91 27/37/92
f 21/27/93 19/26/94 25/36/95 28/38/96
f 23/30/97 24/29/98 30/39/99 29/40/100
f 24/29/101 18/41/102 31/42/103 30/39/104
f 18/41/105 17/43/106 32/44/107 31/42/108
f 17/43/109 23/30/110 29/40/111 32/44/112
f 27/37/113 28/38/114 29/40/115 30/39/116
f 28/38/117 25/36/118 32/44/119 29/40/120
f 27/37/121 30/39/122 31/42/123 26/35/124
f 26/35/125 31/42/126 32/44/127 25/36/128
