# This file uses centimeters as units for non-parametric coordinates.

mtllib shiphelmdial.mtl
v 0.565413 0.645793 0.478746
v 0.555644 0.645793 0.459572
v 0.540428 0.645793 0.444356
v 0.521254 0.645793 0.434587
v 0.500000 0.645793 0.431221
v 0.478746 0.645793 0.434587
v 0.459572 0.645793 0.444356
v 0.444356 0.645793 0.459572
v 0.434587 0.645793 0.478746
v 0.431221 0.645793 0.500000
v 0.434587 0.645793 0.521254
v 0.444356 0.645793 0.540428
v 0.459572 0.645793 0.555644
v 0.478746 0.645793 0.565413
v 0.500000 0.645793 0.568779
v 0.521254 0.645793 0.565413
v 0.540428 0.645793 0.555644
v 0.555644 0.645793 0.540428
v 0.565413 0.645793 0.521254
v 0.568779 0.645793 0.500000
v 0.565413 0.653972 0.478746
v 0.555644 0.653972 0.459572
v 0.540428 0.653972 0.444356
v 0.521254 0.653972 0.434587
v 0.500000 0.653972 0.431221
v 0.478746 0.653972 0.434587
v 0.459572 0.653972 0.444356
v 0.444356 0.653972 0.459572
v 0.434587 0.653972 0.478746
v 0.431221 0.653972 0.500000
v 0.434587 0.653972 0.521254
v 0.444356 0.653972 0.540428
v 0.459572 0.653972 0.555644
v 0.478746 0.653972 0.565413
v 0.500000 0.653972 0.568779
v 0.521254 0.653972 0.565413
v 0.540428 0.653972 0.555644
v 0.555644 0.653972 0.540428
v 0.565413 0.653972 0.521254
v 0.568779 0.653972 0.500000
v 0.525889 0.645793 0.491588
v 0.522022 0.645793 0.484000
v 0.516000 0.645793 0.477978
v 0.508412 0.645793 0.474111
v 0.500000 0.645793 0.472779
v 0.491588 0.645793 0.474111
v 0.484000 0.645793 0.477978
v 0.477978 0.645793 0.484000
v 0.474111 0.645793 0.491588
v 0.472779 0.645793 0.500000
v 0.474111 0.645793 0.508412
v 0.477978 0.645793 0.516000
v 0.484000 0.645793 0.522022
v 0.491588 0.645793 0.525889
v 0.500000 0.645793 0.527221
v 0.508412 0.645793 0.525889
v 0.516000 0.645793 0.522022
v 0.522022 0.645793 0.516000
v 0.525889 0.645793 0.508412
v 0.527221 0.645793 0.500000
v 0.525889 0.653972 0.491588
v 0.522022 0.653972 0.484000
v 0.516000 0.653972 0.477978
v 0.508412 0.653972 0.474111
v 0.500000 0.653972 0.472779
v 0.491588 0.653972 0.474111
v 0.484000 0.653972 0.477978
v 0.477978 0.653972 0.484000
v 0.474111 0.653972 0.491588
v 0.472779 0.653972 0.500000
v 0.474111 0.653972 0.508412
v 0.477978 0.653972 0.516000
v 0.484000 0.653972 0.522022
v 0.491588 0.653972 0.525889
v 0.500000 0.653972 0.527221
v 0.508412 0.653972 0.525889
v 0.516000 0.653972 0.522022
v 0.522022 0.653972 0.516000
v 0.525889 0.653972 0.508412
v 0.527221 0.653972 0.500000
v 0.525889 0.647541 0.491588
v 0.522022 0.647541 0.484000
v 0.500000 0.647541 0.500000
v 0.516000 0.647541 0.477978
v 0.508412 0.647541 0.474111
v 0.500000 0.647541 0.472779
v 0.491588 0.647541 0.474111
v 0.484000 0.647541 0.477978
v 0.477978 0.647541 0.484000
v 0.474111 0.647541 0.491588
v 0.472779 0.647541 0.500000
v 0.474111 0.647541 0.508412
v 0.477978 0.647541 0.516000
v 0.484000 0.647541 0.522022
v 0.491588 0.647541 0.525889
v 0.500000 0.647541 0.527221
v 0.508412 0.647541 0.525889
v 0.516000 0.647541 0.522022
v 0.522022 0.647541 0.516000
v 0.525889 0.647541 0.508412
v 0.527221 0.647541 0.500000
v 0.525889 0.650214 0.491588
v 0.522022 0.650214 0.484000
v 0.500000 0.650214 0.500000
v 0.516000 0.650214 0.477978
v 0.508412 0.650214 0.474111
v 0.500000 0.650214 0.472779
v 0.491588 0.650214 0.474111
v 0.484000 0.650214 0.477978
v 0.477978 0.650214 0.484000
v 0.474111 0.650214 0.491588
v 0.472779 0.650214 0.500000
v 0.474111 0.650214 0.508412
v 0.477978 0.650214 0.516000
v 0.484000 0.650214 0.522022
v 0.491588 0.650214 0.525889
v 0.500000 0.650214 0.527221
v 0.508412 0.650214 0.525889
v 0.516000 0.650214 0.522022
v 0.522022 0.650214 0.516000
v 0.525889 0.650214 0.508412
v 0.527221 0.650214 0.500000
vt 0.828751 0.246909
vt 0.819736 0.229218
vt 0.805696 0.215178
vt 0.788005 0.206163
vt 0.768394 0.203057
vt 0.748783 0.206163
vt 0.731091 0.215178
vt 0.717051 0.229218
vt 0.708037 0.246909
vt 0.704931 0.266520
vt 0.708037 0.286131
vt 0.717051 0.303823
vt 0.731091 0.317863
vt 0.748783 0.326877
vt 0.768394 0.329983
vt 0.788005 0.326877
vt 0.805696 0.317863
vt 0.819736 0.303823
vt 0.828751 0.286131
vt 0.831857 0.266520
vt 0.707738 0.151237
vt 0.714636 0.151237
vt 0.721534 0.151237
vt 0.728432 0.151237
vt 0.735329 0.151237
vt 0.742227 0.151237
vt 0.749125 0.151237
vt 0.756023 0.151237
vt 0.762920 0.151237
vt 0.769818 0.151237
vt 0.776716 0.151237
vt 0.783614 0.151237
vt 0.790511 0.151237
vt 0.797409 0.151237
vt 0.804307 0.151237
vt 0.811205 0.151237
vt 0.818103 0.151237
vt 0.825000 0.151237
vt 0.831898 0.151237
vt 0.838796 0.151237
vt 0.845694 0.151237
vt 0.707738 0.358688
vt 0.714636 0.358688
vt 0.721534 0.358688
vt 0.728432 0.358688
vt 0.735329 0.358688
vt 0.742227 0.358688
vt 0.749125 0.358688
vt 0.756023 0.358688
vt 0.762920 0.358688
vt 0.769818 0.358688
vt 0.776716 0.358688
vt 0.783614 0.358688
vt 0.790511 0.358688
vt 0.797409 0.358688
vt 0.804307 0.358688
vt 0.811205 0.358688
vt 0.818103 0.358688
vt 0.825000 0.358688
vt 0.831898 0.358688
vt 0.838796 0.358688
vt 0.845694 0.358688
vt 0.588468 0.237839
vt 0.555525 0.176136
vt 0.505116 0.127632
vt 0.442174 0.097086
vt 0.372870 0.087495
vt 0.303997 0.099802
vt 0.242307 0.132798
vt 0.193844 0.183242
vt 0.163352 0.246187
vt 0.153807 0.315463
vt 0.166134 0.384286
vt 0.199116 0.445924
vt 0.249519 0.494352
vt 0.312410 0.524841
vt 0.381641 0.534415
vt 0.450444 0.522137
vt 0.512095 0.489207
vt 0.560565 0.438838
vt 0.591107 0.375951
vt 0.600725 0.306692
vt 0.768394 0.263982
vt 0.655466 0.734298
vt 0.819736 0.229218
vt 0.828751 0.246909
vt 0.805696 0.215178
vt 0.788005 0.206163
vt 0.768394 0.203057
vt 0.748783 0.206163
vt 0.731091 0.215178
vt 0.717051 0.229218
vt 0.708037 0.246909
vt 0.704931 0.266520
vt 0.708037 0.286131
vt 0.717051 0.303823
vt 0.731091 0.317863
vt 0.748783 0.326877
vt 0.768394 0.329983
vt 0.788005 0.326877
vt 0.805696 0.317863
vt 0.819736 0.303823
vt 0.828751 0.286131
vt 0.831857 0.266520
vt 0.466743 0.334208
vt 0.455172 0.360700
vt 0.435998 0.382316
vt 0.411097 0.396955
vt 0.382900 0.403197
vt 0.354154 0.400436
vt 0.327657 0.388939
vt 0.305994 0.369822
vt 0.291283 0.344940
vt 0.284972 0.316717
vt 0.287692 0.287907
vt 0.299192 0.261335
vt 0.318356 0.239613
vt 0.343311 0.224882
vt 0.371605 0.218598
vt 0.400456 0.221382
vt 0.427023 0.232958
vt 0.448697 0.252181
vt 0.463353 0.277155
vt 0.469567 0.305421
vt 0.819736 0.229218
vt 0.828751 0.246909
vt 0.805696 0.215178
vt 0.788005 0.206163
vt 0.768394 0.203057
vt 0.748783 0.206163
vt 0.731091 0.215178
vt 0.717051 0.229218
vt 0.708037 0.246909
vt 0.704931 0.266520
vt 0.708037 0.286131
vt 0.717051 0.303823
vt 0.731091 0.317863
vt 0.748783 0.326877
vt 0.768394 0.329983
vt 0.788005 0.326877
vt 0.805696 0.317863
vt 0.819736 0.303823
vt 0.828751 0.286131
vt 0.831857 0.266520
vt 0.734171 0.755200
vt 0.445726 0.354750
vt 0.428855 0.373724
vt 0.406970 0.386566
vt 0.382201 0.392037
vt 0.356953 0.389612
vt 0.333673 0.379522
vt 0.314628 0.362738
vt 0.301677 0.340882
vt 0.296101 0.316073
vt 0.298464 0.290729
vt 0.308560 0.267336
vt 0.325415 0.248201
vt 0.347381 0.235220
vt 0.372299 0.229684
vt 0.397705 0.232145
vt 0.421091 0.242356
vt 0.440153 0.259300
vt 0.453021 0.281296
vt 0.458450 0.306170
vt 0.736693 0.729891
vt 0.455928 0.331478
vt 0.731264 0.705017
vt 0.718396 0.683022
vt 0.699335 0.666077
vt 0.675948 0.655866
vt 0.650542 0.653405
vt 0.625625 0.658941
vt 0.603658 0.671922
vt 0.586803 0.691057
vt 0.576707 0.714450
vt 0.574344 0.739794
vt 0.579920 0.764603
vt 0.592871 0.786459
vt 0.611917 0.803243
vt 0.635196 0.813333
vt 0.660444 0.815759
vt 0.685213 0.810287
vt 0.707098 0.797446
vt 0.723969 0.778471
vn 0.951057 0.000000 -0.309016
vn 0.809017 0.000000 -0.587786
vn 0.809017 0.000000 -0.587786
vn 0.951057 0.000000 -0.309016
vn 0.587784 0.000000 -0.809018
vn 0.587784 0.000000 -0.809018
vn 0.309019 0.000000 -0.951056
vn 0.309019 0.000000 -0.951056
vn 0.000000 0.000000 -1.000000
vn 0.000000 0.000000 -1.000000
vn -0.309019 0.000000 -0.951056
vn -0.309019 0.000000 -0.951056
vn -0.587785 0.000000 -0.809017
vn -0.587785 0.000000 -0.809017
vn -0.809016 0.000000 -0.587787
vn -0.809016 0.000000 -0.587787
vn -0.951057 0.000000 -0.309016
vn -0.951057 0.000000 -0.309016
vn -1.000000 0.000000 0.000000
vn -1.000000 0.000000 0.000000
vn -0.951057 0.000000 0.309016
vn -0.951057 0.000000 0.309016
vn -0.809017 0.000000 0.587785
vn -0.809017 0.000000 0.587785
vn -0.587787 0.000000 0.809016
vn -0.587787 0.000000 0.809016
vn -0.309017 0.000000 0.951057
vn -0.309017 0.000000 0.951057
vn 0.000001 0.000000 1.000000
vn 0.000001 0.000000 1.000000
vn 0.309018 0.000000 0.951056
vn 0.309018 0.000000 0.951056
vn 0.587786 0.000000 0.809017
vn 0.587786 0.000000 0.809017
vn 0.809017 0.000000 0.587786
vn 0.809017 0.000000 0.587786
vn 0.951056 0.000000 0.309018
vn 0.951056 0.000000 0.309018
vn 1.000000 0.000000 0.000001
vn 1.000000 0.000000 0.000001
vn 0.000000 -1.000000 0.000004
vn 0.000000 -1.000000 -0.000004
vn 0.000000 -1.000000 -0.000000
vn 0.000000 -1.000000 0.000000
vn 0.000000 -1.000000 0.000000
vn 0.000000 -1.000000 0.000000
vn 0.000000 -1.000000 0.000000
vn 0.000000 -1.000000 0.000000
vn 0.000000 -1.000000 0.000000
vn 0.000000 -1.000000 -0.000008
vn 0.000000 -1.000000 -0.000000
vn 0.000000 -1.000000 0.000004
vn 0.000000 -1.000000 -0.000004
vn 0.000000 -1.000000 0.000000
vn 0.000000 -1.000000 0.000000
vn 0.000000 -1.000000 0.000000
vn 0.000000 -1.000000 0.000000
vn 0.000000 -1.000000 0.000000
vn 0.000000 -1.000000 0.000000
vn 0.000000 -1.000000 0.000008
vn 0.000000 -1.000000 -0.000000
vn 0.000000 1.000000 0.000000
vn 0.000000 1.000000 0.000000
vn 0.000000 1.000000 0.000000
vn 0.000000 1.000000 0.000004
vn 0.000000 1.000000 0.000004
vn 0.000000 1.000000 0.000000
vn 0.000000 1.000000 0.000002
vn 0.000000 1.000000 0.000002
vn 0.000000 1.000000 0.000000
vn 0.000000 1.000000 0.000000
vn 0.000000 1.000000 0.000000
vn 0.000000 1.000000 0.000000
vn 0.000000 1.000000 0.000000
vn 0.000000 1.000000 -0.000004
vn 0.000000 1.000000 -0.000004
vn 0.000000 1.000000 0.000000
vn 0.000000 1.000000 -0.000002
vn 0.000000 1.000000 -0.000002
vn 0.000000 1.000000 0.000000
vn 0.000000 1.000000 0.000000
vn 0.000000 1.000000 0.000000
vn 0.000000 -1.000000 0.000000
vn 0.000000 -1.000000 0.000000
vn 0.000000 -1.000000 0.000000
vn 0.000000 -1.000000 0.000000
vn 0.000000 -1.000000 0.000000
vn 0.000000 -1.000000 0.000000
vn 0.000000 -1.000000 0.000000
vn 0.000000 -1.000000 0.000000
vn 0.000000 -1.000000 0.000000
vn 0.000000 -1.000000 0.000000
vn 0.000000 -1.000000 0.000000
vn 0.000000 -1.000000 0.000000
vn 0.000000 -1.000000 0.000000
vn 0.000000 -1.000000 0.000000
vn 0.000000 -1.000000 0.000000
vn 0.000000 -1.000000 0.000000
vn 0.000000 -1.000000 0.000000
vn 0.000000 -1.000000 0.000000
vn 0.000000 -1.000000 0.000000
vn 0.000000 -1.000000 0.000000
vn 0.000000 -1.000000 0.000003
vn 0.000000 -1.000000 0.000003
vn 0.000000 -1.000000 0.000003
vn 0.000000 -1.000000 0.000003
vn 0.000000 -1.000000 0.000000
vn 0.000000 -1.000000 0.000000
vn 0.000000 -1.000000 0.000000
vn 0.000000 -1.000000 0.000000
vn 0.000000 -1.000000 0.000003
vn 0.000000 -1.000000 0.000003
vn 0.000000 -1.000000 0.000003
vn 0.000000 -1.000000 0.000003
vn 0.000000 -1.000000 0.000000
vn 0.000000 -1.000000 0.000000
vn 0.000000 -1.000000 0.000000
vn 0.000000 -1.000000 0.000000
vn 0.000000 -1.000000 0.000000
vn 0.000000 -1.000000 0.000000
vn 0.000000 -1.000000 0.000000
vn 0.000000 -1.000000 0.000000
vn 0.000000 -1.000000 -0.000003
vn 0.000000 -1.000000 -0.000003
vn 0.000000 -1.000000 -0.000003
vn 0.000000 -1.000000 -0.000003
vn 0.000000 -1.000000 0.000000
vn 0.000000 -1.000000 0.000000
vn 0.000000 -1.000000 0.000000
vn 0.000000 -1.000000 0.000000
vn 0.000000 -1.000000 0.000000
vn 0.000000 -1.000000 0.000000
vn 0.000000 -1.000000 0.000000
vn 0.000000 -1.000000 0.000000
vn 0.000000 -1.000000 0.000000
vn 0.000000 -1.000000 0.000000
vn 0.000000 -1.000000 0.000000
vn 0.000000 -1.000000 0.000000
vn 0.000000 -1.000000 0.000000
vn 0.000000 -1.000000 0.000000
vn 0.000000 -1.000000 0.000000
vn 0.000000 -1.000000 0.000000
vn 0.000000 -1.000000 0.000003
vn 0.000000 -1.000000 0.000003
vn 0.000000 -1.000000 0.000003
vn 0.000000 -1.000000 0.000003
vn 0.000000 -1.000000 0.000000
vn 0.000000 -1.000000 0.000000
vn 0.000000 -1.000000 0.000000
vn 0.000000 -1.000000 0.000000
vn 0.000000 -1.000000 -0.000003
vn 0.000000 -1.000000 -0.000003
vn 0.000000 -1.000000 -0.000003
vn 0.000000 -1.000000 -0.000003
vn 0.000000 -1.000000 0.000003
vn 0.000000 -1.000000 0.000003
vn 0.000000 -1.000000 0.000003
vn 0.000000 -1.000000 0.000003
vn 0.000000 -1.000000 0.000000
vn 0.000000 -1.000000 0.000000
vn 0.000000 -1.000000 0.000000
vn 0.000000 -1.000000 0.000000
vn 0.000000 1.000000 -0.000003
vn 0.000000 1.000000 -0.000003
vn 0.000000 1.000000 -0.000003
vn 0.000000 1.000000 -0.000003
vn 0.000000 1.000000 0.000000
vn 0.000000 1.000000 0.000000
vn 0.000000 1.000000 0.000000
vn 0.000000 1.000000 0.000000
vn 0.000000 1.000000 0.000000
vn 0.000000 1.000000 0.000000
vn 0.000000 1.000000 0.000000
vn 0.000000 1.000000 0.000000
vn 0.000000 1.000000 0.000002
vn 0.000000 1.000000 0.000002
vn 0.000000 1.000000 0.000002
vn 0.000000 1.000000 0.000002
vn 0.000000 1.000000 0.000002
vn 0.000000 1.000000 0.000002
vn 0.000000 1.000000 0.000002
vn 0.000000 1.000000 0.000002
vn 0.000000 1.000000 -0.000003
vn 0.000000 1.000000 -0.000003
vn 0.000000 1.000000 -0.000003
vn 0.000000 1.000000 -0.000003
vn 0.000000 1.000000 0.000000
vn 0.000000 1.000000 0.000000
vn 0.000000 1.000000 0.000000
vn 0.000000 1.000000 0.000000
vn 0.000000 1.000000 -0.000003
vn 0.000000 1.000000 -0.000003
vn 0.000000 1.000000 -0.000003
vn 0.000000 1.000000 -0.000003
vn 0.000000 1.000000 0.000000
vn 0.000000 1.000000 0.000000
vn 0.000000 1.000000 0.000000
vn 0.000000 1.000000 0.000000
vn 0.000000 1.000000 0.000000
vn 0.000000 1.000000 0.000000
vn 0.000000 1.000000 0.000000
vn 0.000000 1.000000 0.000000
vn 0.000000 1.000000 0.000003
vn 0.000000 1.000000 0.000003
vn 0.000000 1.000000 0.000003
vn 0.000000 1.000000 0.000003
vn 0.000000 1.000000 0.000000
vn 0.000000 1.000000 0.000000
vn 0.000000 1.000000 0.000000
vn 0.000000 1.000000 0.000000
vn 0.000000 1.000000 0.000000
vn 0.000000 1.000000 0.000000
vn 0.000000 1.000000 0.000000
vn 0.000000 1.000000 0.000000
vn 0.000000 1.000000 -0.000002
vn 0.000000 1.000000 -0.000002
vn 0.000000 1.000000 -0.000002
vn 0.000000 1.000000 -0.000002
vn 0.000000 1.000000 -0.000002
vn 0.000000 1.000000 -0.000002
vn 0.000000 1.000000 -0.000002
vn 0.000000 1.000000 -0.000002
vn 0.000000 1.000000 0.000002
vn 0.000000 1.000000 0.000002
vn 0.000000 1.000000 0.000002
vn 0.000000 1.000000 0.000002
vn 0.000000 1.000000 0.000000
vn 0.000000 1.000000 0.000000
vn 0.000000 1.000000 0.000000
vn 0.000000 1.000000 0.000000
vn 0.000000 1.000000 0.000003
vn 0.000000 1.000000 0.000003
vn 0.000000 1.000000 0.000003
vn 0.000000 1.000000 0.000003
vn 0.000000 1.000000 0.000000
vn 0.000000 1.000000 0.000000
vn 0.000000 1.000000 0.000000
vn 0.000000 1.000000 0.000000
vn 0.000000 1.000000 0.000003
vn 0.000000 1.000000 0.000003
vn 0.000000 1.000000 0.000003
vn 0.000000 1.000000 0.000003
vn -0.809018 0.000000 0.587784
vn -0.951058 0.000011 0.309013
vn -0.951056 0.000011 0.309019
vn -0.809018 0.000000 0.587784
vn -0.587784 0.000000 0.809018
vn -0.587784 0.000000 0.809018
vn -0.309019 0.000000 0.951056
vn -0.309019 0.000000 0.951056
vn 0.000004 -0.000016 1.000000
vn 0.000004 -0.000016 1.000000
vn 0.309012 -0.000032 0.951058
vn 0.309016 -0.000032 0.951057
vn 0.587780 -0.000016 0.809021
vn 0.587780 -0.000016 0.809021
vn 0.809018 0.000000 0.587784
vn 0.809018 0.000000 0.587784
vn 0.951057 0.000000 0.309016
vn 0.951057 0.000000 0.309016
vn 1.000000 0.000000 -0.000000
vn 1.000000 0.000000 -0.000000
vn 0.951057 0.000000 -0.309016
vn 0.951057 0.000000 -0.309016
vn 0.809017 -0.000007 -0.587785
vn 0.809017 -0.000007 -0.587785
vn 0.587780 -0.000011 -0.809021
vn 0.587783 -0.000011 -0.809018
vn 0.309019 -0.000004 -0.951056
vn 0.309019 -0.000004 -0.951056
vn 0.000000 0.000000 -1.000000
vn 0.000000 0.000000 -1.000000
vn -0.309016 0.000000 -0.951057
vn -0.309016 0.000000 -0.951057
vn -0.587782 0.000000 -0.809020
vn -0.587782 0.000000 -0.809020
vn -0.809018 0.000000 -0.587783
vn -0.809018 0.000000 -0.587783
vn -0.951057 0.000000 -0.309016
vn -0.951057 0.000000 -0.309016
vn -1.000000 0.000011 -0.000000
vn -1.000000 0.000011 -0.000000
vn -0.951057 -0.000008 0.309017
vn -0.809015 -0.000002 0.587788
vn -0.809015 -0.000002 0.587788
vn -0.951056 -0.000008 0.309020
vn -0.587786 0.000000 0.809016
vn -0.587786 0.000000 0.809016
vn -0.309018 0.000000 0.951056
vn -0.309018 0.000000 0.951056
vn 0.000000 0.000000 1.000000
vn 0.000000 0.000000 1.000000
vn 0.309020 0.000002 0.951056
vn 0.309020 0.000002 0.951056
vn 0.587785 0.000002 0.809017
vn 0.587785 0.000002 0.809017
vn 0.809014 -0.000000 0.587789
vn 0.809014 -0.000000 0.587789
vn 0.951056 0.000000 0.309018
vn 0.951056 0.000000 0.309018
vn 1.000000 0.000000 0.000000
vn 1.000000 0.000000 0.000000
vn 0.951056 0.000000 -0.309018
vn 0.951056 0.000000 -0.309018
vn 0.809014 0.000000 -0.587789
vn 0.809014 0.000000 -0.587789
vn 0.587784 0.000000 -0.809018
vn 0.587784 0.000000 -0.809018
vn 0.309016 0.000000 -0.951057
vn 0.309016 0.000000 -0.951057
vn 0.000000 0.000000 -1.000000
vn 0.000000 0.000000 -1.000000
vn -0.309016 0.000000 -0.951057
vn -0.309016 0.000000 -0.951057
vn -0.587784 0.000000 -0.809018
vn -0.587784 0.000000 -0.809018
vn -0.809014 0.000000 -0.587789
vn -0.809014 0.000000 -0.587789
vn -0.951056 0.000000 -0.309018
vn -0.951056 0.000000 -0.309018
vn -1.000000 -0.000005 -0.000001
vn -1.000000 -0.000005 0.000001
usemtl initialShadingGroup
f 1/21/1 2/22/2 22/43/3 21/42/4
f 2/22/2 3/23/5 23/44/6 22/43/3
f 3/23/5 4/24/7 24/45/8 23/44/6
f 4/24/7 5/25/9 25/46/10 24/45/8
f 5/25/9 6/26/11 26/47/12 25/46/10
f 6/26/11 7/27/13 27/48/14 26/47/12
f 7/27/13 8/28/15 28/49/16 27/48/14
f 8/28/15 9/29/17 29/50/18 28/49/16
f 9/29/17 10/30/19 30/51/20 29/50/18
f 10/30/19 11/31/21 31/52/22 30/51/20
f 11/31/21 12/32/23 32/53/24 31/52/22
f 12/32/23 13/33/25 33/54/26 32/53/24
f 13/33/25 14/34/27 34/55/28 33/54/26
f 14/34/27 15/35/29 35/56/30 34/55/28
f 15/35/29 16/36/31 36/57/32 35/56/30
f 16/36/31 17/37/33 37/58/34 36/57/32
f 17/37/33 18/38/35 38/59/36 37/58/34
f 18/38/35 19/39/37 39/60/38 38/59/36
f 19/39/37 20/40/39 40/61/40 39/60/38
f 20/40/39 1/41/1 21/62/4 40/61/40
f 82/125/41 81/126/42 83/83/43
f 84/127/44 82/125/41 83/83/43
f 85/128/45 84/127/44 83/83/43
f 86/129/46 85/128/45 83/83/43
f 87/130/47 86/129/46 83/83/43
f 88/131/48 87/130/47 83/83/43
f 89/132/49 88/131/48 83/83/43
f 90/133/50 89/132/49 83/83/43
f 91/134/51 90/133/50 83/83/43
f 92/135/52 91/134/51 83/83/43
f 93/136/53 92/135/52 83/83/43
f 94/137/54 93/136/53 83/83/43
f 95/138/55 94/137/54 83/83/43
f 96/139/56 95/138/55 83/83/43
f 97/140/57 96/139/56 83/83/43
f 98/141/58 97/140/57 83/83/43
f 99/142/59 98/141/58 83/83/43
f 100/143/60 99/142/59 83/83/43
f 101/144/61 100/143/60 83/83/43
f 81/126/42 101/144/61 83/83/43
f 102/145/62 103/184/63 104/84/64
f 103/184/63 105/183/65 104/84/64
f 105/183/65 106/182/66 104/84/64
f 106/182/66 107/181/67 104/84/64
f 107/181/67 108/180/68 104/84/64
f 108/180/68 109/179/69 104/84/64
f 109/179/69 110/178/70 104/84/64
f 110/178/70 111/177/71 104/84/64
f 111/177/71 112/176/72 104/84/64
f 112/176/72 113/175/73 104/84/64
f 113/175/73 114/174/74 104/84/64
f 114/174/74 115/173/75 104/84/64
f 115/173/75 116/172/76 104/84/64
f 116/172/76 117/171/77 104/84/64
f 117/171/77 118/170/78 104/84/64
f 118/170/78 119/169/79 104/84/64
f 119/169/79 120/168/80 104/84/64
f 120/168/80 121/167/81 104/84/64
f 121/167/81 122/165/82 104/84/64
f 122/165/82 102/145/62 104/84/64
f 2/2/83 1/1/84 41/86/85 42/85/86
f 3/3/87 2/2/88 42/85/89 43/87/90
f 4/4/91 3/3/92 43/87/93 44/88/94
f 5/5/95 4/4/96 44/88/97 45/89/98
f 6/6/99 5/5/100 45/89/101 46/90/102
f 7/7/103 6/6/104 46/90/105 47/91/106
f 8/8/107 7/7/108 47/91/109 48/92/110
f 9/9/111 8/8/112 48/92/113 49/93/114
f 10/10/115 9/9/116 49/93/117 50/94/118
f 11/11/119 10/10/120 50/94/121 51/95/122
f 12/12/123 11/11/124 51/95/125 52/96/126
f 13/13/127 12/12/128 52/96/129 53/97/130
f 14/14/131 13/13/132 53/97/133 54/98/134
f 15/15/135 14/14/136 54/98/137 55/99/138
f 16/16/139 15/15/140 55/99/141 56/100/142
f 17/17/143 16/16/144 56/100/145 57/101/146
f 18/18/147 17/17/148 57/101/149 58/102/150
f 19/19/151 18/18/152 58/102/153 59/103/154
f 20/20/155 19/19/156 59/103/157 60/104/158
f 1/1/159 20/20/160 60/104/161 41/86/162
f 21/81/163 22/80/164 62/106/165 61/105/166
f 22/80/167 23/79/168 63/107/169 62/106/170
f 23/79/171 24/78/172 64/108/173 63/107/174
f 24/78/175 25/77/176 65/109/177 64/108/178
f 25/77/179 26/76/180 66/110/181 65/109/182
f 26/76/183 27/75/184 67/111/185 66/110/186
f 27/75/187 28/74/188 68/112/189 67/111/190
f 28/74/191 29/73/192 69/113/193 68/112/194
f 29/73/195 30/72/196 70/114/197 69/113/198
f 30/72/199 31/71/200 71/115/201 70/114/202
f 31/71/203 32/70/204 72/116/205 71/115/206
f 32/70/207 33/69/208 73/117/209 72/116/210
f 33/69/211 34/68/212 74/118/213 73/117/214
f 34/68/215 35/67/216 75/119/217 74/118/218
f 35/67/219 36/66/220 76/120/221 75/119/222
f 36/66/223 37/65/224 77/121/225 76/120/226
f 37/65/227 38/64/228 78/122/229 77/121/230
f 38/64/231 39/63/232 79/123/233 78/122/234
f 39/63/235 40/82/236 80/124/237 79/123/238
f 40/82/239 21/81/240 61/105/241 80/124/242
f 42/85/243 41/86/244 81/126/245 82/125/246
f 43/87/247 42/85/243 82/125/246 84/127/248
f 44/88/249 43/87/247 84/127/248 85/128/250
f 45/89/251 44/88/249 85/128/250 86/129/252
f 46/90/253 45/89/251 86/129/252 87/130/254
f 47/91/255 46/90/253 87/130/254 88/131/256
f 48/92/257 47/91/255 88/131/256 89/132/258
f 49/93/259 48/92/257 89/132/258 90/133/260
f 50/94/261 49/93/259 90/133/260 91/134/262
f 51/95/263 50/94/261 91/134/262 92/135/264
f 52/96/265 51/95/263 92/135/264 93/136/266
f 53/97/267 52/96/265 93/136/266 94/137/268
f 54/98/269 53/97/267 94/137/268 95/138/270
f 55/99/271 54/98/269 95/138/270 96/139/272
f 56/100/273 55/99/271 96/139/272 97/140/274
f 57/101/275 56/100/273 97/140/274 98/141/276
f 58/102/277 57/101/275 98/141/276 99/142/278
f 59/103/279 58/102/277 99/142/278 100/143/280
f 60/104/281 59/103/279 100/143/280 101/144/282
f 41/86/244 60/104/281 101/144/282 81/126/245
f 61/105/283 62/106/284 103/146/285 102/166/286
f 62/106/284 63/107/287 105/147/288 103/146/285
f 63/107/287 64/108/289 106/148/290 105/147/288
f 64/108/289 65/109/291 107/149/292 106/148/290
f 65/109/291 66/110/293 108/150/294 107/149/292
f 66/110/293 67/111/295 109/151/296 108/150/294
f 67/111/295 68/112/297 110/152/298 109/151/296
f 68/112/297 69/113/299 111/153/300 110/152/298
f 69/113/299 70/114/301 112/154/302 111/153/300
f 70/114/301 71/115/303 113/155/304 112/154/302
f 71/115/303 72/116/305 114/156/306 113/155/304
f 72/116/305 73/117/307 115/157/308 114/156/306
f 73/117/307 74/118/309 116/158/310 115/157/308
f 74/118/309 75/119/311 117/159/312 116/158/310
f 75/119/311 76/120/313 118/160/314 117/159/312
f 76/120/313 77/121/315 119/161/316 118/160/314
f 77/121/315 78/122/317 120/162/318 119/161/316
f 78/122/317 79/123/319 121/163/320 120/162/318
f 79/123/319 80/124/321 122/164/322 121/163/320
f 80/124/321 61/105/283 102/166/286 122/164/322
